<mxfile host="app.diagrams.net" agent="Mozilla/5.0 (Windows NT 10.0; Win64; x64) AppleWebKit/537.36 (KHTML, like Gecko) Chrome/131.0.0.0 Safari/537.36" version="25.0.3">
  <diagram name="Page-1" id="3ovq5i0faJTmBhTdkMv-">
    <mxGraphModel dx="832" dy="820" grid="1" gridSize="10" guides="1" tooltips="1" connect="1" arrows="1" fold="1" page="1" pageScale="1" pageWidth="850" pageHeight="1100" math="0" shadow="0">
      <root>
        <mxCell id="0" />
        <mxCell id="1" parent="0" />
        <mxCell id="45X9PmNRLV-VkTAyh2oA-49" value="" style="rounded=1;whiteSpace=wrap;html=1;dashed=1;fillColor=#f9f7ed;strokeColor=#36393d;fontColor=#F9F7ED;" vertex="1" parent="1">
          <mxGeometry x="100" y="380" width="710" height="250" as="geometry" />
        </mxCell>
        <mxCell id="45X9PmNRLV-VkTAyh2oA-4" value="" style="whiteSpace=wrap;html=1;" vertex="1" parent="1">
          <mxGeometry x="140" y="240" width="160" height="100" as="geometry" />
        </mxCell>
        <mxCell id="45X9PmNRLV-VkTAyh2oA-43" value="" style="edgeStyle=orthogonalEdgeStyle;rounded=0;orthogonalLoop=1;jettySize=auto;html=1;" edge="1" parent="1" source="45X9PmNRLV-VkTAyh2oA-5" target="45X9PmNRLV-VkTAyh2oA-14">
          <mxGeometry relative="1" as="geometry" />
        </mxCell>
        <mxCell id="45X9PmNRLV-VkTAyh2oA-5" value="" style="whiteSpace=wrap;html=1;" vertex="1" parent="1">
          <mxGeometry x="375" y="240" width="160" height="100" as="geometry" />
        </mxCell>
        <mxCell id="45X9PmNRLV-VkTAyh2oA-6" value="" style="whiteSpace=wrap;html=1;" vertex="1" parent="1">
          <mxGeometry x="610" y="240" width="160" height="100" as="geometry" />
        </mxCell>
        <mxCell id="45X9PmNRLV-VkTAyh2oA-20" value="" style="edgeStyle=orthogonalEdgeStyle;rounded=0;orthogonalLoop=1;jettySize=auto;html=1;startArrow=classic;startFill=1;dashed=1;strokeColor=#B3B3B3;" edge="1" parent="1" source="45X9PmNRLV-VkTAyh2oA-11" target="45X9PmNRLV-VkTAyh2oA-14">
          <mxGeometry relative="1" as="geometry" />
        </mxCell>
        <mxCell id="45X9PmNRLV-VkTAyh2oA-30" value="&lt;font&gt;Shared Weights&lt;/font&gt;" style="edgeLabel;html=1;align=center;verticalAlign=middle;resizable=0;points=[];fontSize=10;fontColor=#B3B3B3;labelBackgroundColor=none;" vertex="1" connectable="0" parent="45X9PmNRLV-VkTAyh2oA-20">
          <mxGeometry relative="1" as="geometry">
            <mxPoint y="-10" as="offset" />
          </mxGeometry>
        </mxCell>
        <mxCell id="45X9PmNRLV-VkTAyh2oA-23" value="" style="edgeStyle=orthogonalEdgeStyle;rounded=0;orthogonalLoop=1;jettySize=auto;html=1;" edge="1" parent="1" source="45X9PmNRLV-VkTAyh2oA-11" target="45X9PmNRLV-VkTAyh2oA-22">
          <mxGeometry relative="1" as="geometry" />
        </mxCell>
        <mxCell id="45X9PmNRLV-VkTAyh2oA-11" value="ResNet" style="rounded=1;whiteSpace=wrap;html=1;resizeHeight=0;shadow=0;glass=0;imageWidth=24;imageHeight=24;imageAspect=1;" vertex="1" parent="1">
          <mxGeometry x="145" y="410" width="150" height="60" as="geometry" />
        </mxCell>
        <mxCell id="45X9PmNRLV-VkTAyh2oA-21" value="" style="edgeStyle=orthogonalEdgeStyle;rounded=0;orthogonalLoop=1;jettySize=auto;html=1;startArrow=classic;startFill=1;dashed=1;strokeColor=#B3B3B3;" edge="1" parent="1" source="45X9PmNRLV-VkTAyh2oA-14" target="45X9PmNRLV-VkTAyh2oA-15">
          <mxGeometry relative="1" as="geometry" />
        </mxCell>
        <mxCell id="45X9PmNRLV-VkTAyh2oA-35" value="&lt;font&gt;Shared Weights&lt;/font&gt;" style="edgeLabel;html=1;align=center;verticalAlign=middle;resizable=0;points=[];fontColor=#B3B3B3;fontSize=10;labelBackgroundColor=none;" vertex="1" connectable="0" parent="45X9PmNRLV-VkTAyh2oA-21">
          <mxGeometry relative="1" as="geometry">
            <mxPoint y="-10" as="offset" />
          </mxGeometry>
        </mxCell>
        <mxCell id="45X9PmNRLV-VkTAyh2oA-28" value="" style="edgeStyle=orthogonalEdgeStyle;rounded=0;orthogonalLoop=1;jettySize=auto;html=1;" edge="1" parent="1" source="45X9PmNRLV-VkTAyh2oA-14" target="45X9PmNRLV-VkTAyh2oA-24">
          <mxGeometry relative="1" as="geometry" />
        </mxCell>
        <mxCell id="45X9PmNRLV-VkTAyh2oA-14" value="ResNet" style="rounded=1;whiteSpace=wrap;html=1;" vertex="1" parent="1">
          <mxGeometry x="380" y="410" width="150" height="60" as="geometry" />
        </mxCell>
        <mxCell id="45X9PmNRLV-VkTAyh2oA-29" value="" style="edgeStyle=orthogonalEdgeStyle;rounded=0;orthogonalLoop=1;jettySize=auto;html=1;" edge="1" parent="1" source="45X9PmNRLV-VkTAyh2oA-15" target="45X9PmNRLV-VkTAyh2oA-26">
          <mxGeometry relative="1" as="geometry" />
        </mxCell>
        <mxCell id="45X9PmNRLV-VkTAyh2oA-15" value="ResNet" style="rounded=1;whiteSpace=wrap;html=1;" vertex="1" parent="1">
          <mxGeometry x="615" y="410" width="150" height="60" as="geometry" />
        </mxCell>
        <mxCell id="45X9PmNRLV-VkTAyh2oA-25" value="" style="edgeStyle=orthogonalEdgeStyle;rounded=0;orthogonalLoop=1;jettySize=auto;html=1;startArrow=classic;startFill=1;dashed=1;strokeColor=#B3B3B3;" edge="1" parent="1" source="45X9PmNRLV-VkTAyh2oA-22" target="45X9PmNRLV-VkTAyh2oA-24">
          <mxGeometry relative="1" as="geometry" />
        </mxCell>
        <mxCell id="45X9PmNRLV-VkTAyh2oA-45" value="Shared Weights" style="edgeLabel;html=1;align=center;verticalAlign=middle;resizable=0;points=[];fontColor=#B3B3B3;fontSize=10;labelBackgroundColor=none;" vertex="1" connectable="0" parent="45X9PmNRLV-VkTAyh2oA-25">
          <mxGeometry relative="1" as="geometry">
            <mxPoint y="-10" as="offset" />
          </mxGeometry>
        </mxCell>
        <mxCell id="45X9PmNRLV-VkTAyh2oA-53" value="" style="edgeStyle=orthogonalEdgeStyle;rounded=0;orthogonalLoop=1;jettySize=auto;html=1;entryX=0.5;entryY=1;entryDx=0;entryDy=0;" edge="1" parent="1" source="45X9PmNRLV-VkTAyh2oA-22" target="45X9PmNRLV-VkTAyh2oA-51">
          <mxGeometry relative="1" as="geometry">
            <mxPoint x="220" y="700" as="targetPoint" />
          </mxGeometry>
        </mxCell>
        <mxCell id="45X9PmNRLV-VkTAyh2oA-55" value="" style="rounded=0;orthogonalLoop=1;jettySize=auto;html=1;entryX=0.75;entryY=1;entryDx=0;entryDy=0;" edge="1" parent="1" source="45X9PmNRLV-VkTAyh2oA-22" target="45X9PmNRLV-VkTAyh2oA-51">
          <mxGeometry relative="1" as="geometry">
            <mxPoint x="415" y="717" as="targetPoint" />
          </mxGeometry>
        </mxCell>
        <mxCell id="45X9PmNRLV-VkTAyh2oA-22" value="Fully Connected" style="shape=document;whiteSpace=wrap;html=1;boundedLbl=1;rounded=1;shadow=0;glass=0;" vertex="1" parent="1">
          <mxGeometry x="160" y="540" width="120" height="80" as="geometry" />
        </mxCell>
        <mxCell id="45X9PmNRLV-VkTAyh2oA-27" value="" style="edgeStyle=orthogonalEdgeStyle;rounded=0;orthogonalLoop=1;jettySize=auto;html=1;startArrow=classic;startFill=1;dashed=1;strokeColor=#B3B3B3;" edge="1" parent="1" source="45X9PmNRLV-VkTAyh2oA-24" target="45X9PmNRLV-VkTAyh2oA-26">
          <mxGeometry relative="1" as="geometry" />
        </mxCell>
        <mxCell id="45X9PmNRLV-VkTAyh2oA-47" value="Shared Weights" style="edgeLabel;html=1;align=center;verticalAlign=middle;resizable=0;points=[];fontColor=#B3B3B3;fontSize=10;labelBackgroundColor=none;" vertex="1" connectable="0" parent="45X9PmNRLV-VkTAyh2oA-27">
          <mxGeometry relative="1" as="geometry">
            <mxPoint y="-10" as="offset" />
          </mxGeometry>
        </mxCell>
        <mxCell id="45X9PmNRLV-VkTAyh2oA-24" value="Fully Connected" style="shape=document;whiteSpace=wrap;html=1;boundedLbl=1;rounded=1;shadow=0;glass=0;" vertex="1" parent="1">
          <mxGeometry x="395" y="540" width="120" height="80" as="geometry" />
        </mxCell>
        <mxCell id="45X9PmNRLV-VkTAyh2oA-57" value="" style="rounded=0;orthogonalLoop=1;jettySize=auto;html=1;entryX=0.25;entryY=1;entryDx=0;entryDy=0;" edge="1" parent="1" source="45X9PmNRLV-VkTAyh2oA-26" target="45X9PmNRLV-VkTAyh2oA-51">
          <mxGeometry relative="1" as="geometry">
            <mxPoint x="690" y="700" as="targetPoint" />
          </mxGeometry>
        </mxCell>
        <mxCell id="45X9PmNRLV-VkTAyh2oA-26" value="Fully Connected" style="shape=document;whiteSpace=wrap;html=1;boundedLbl=1;rounded=1;shadow=0;glass=0;" vertex="1" parent="1">
          <mxGeometry x="630" y="540" width="120" height="80" as="geometry" />
        </mxCell>
        <mxCell id="45X9PmNRLV-VkTAyh2oA-42" value="" style="edgeStyle=orthogonalEdgeStyle;rounded=0;orthogonalLoop=1;jettySize=auto;html=1;" edge="1" parent="1" source="45X9PmNRLV-VkTAyh2oA-39" target="45X9PmNRLV-VkTAyh2oA-11">
          <mxGeometry relative="1" as="geometry" />
        </mxCell>
        <mxCell id="45X9PmNRLV-VkTAyh2oA-39" value="" style="shape=image;verticalLabelPosition=bottom;labelBackgroundColor=default;verticalAlign=top;imageAspect=0;image=data:image/jpeg,/9j/4AAQSkZJRgABAQAAAQABAAD/2wBDAAgGBgcGBQgHBwcJCQgKDBQNDAsLDBkSEw8UHRofHh0aHBwgJC4nICIsIxwcKDcpLDAxNDQ0Hyc5PTgyPC4zNDL/2wBDAQkJCQwLDBgNDRgyIRwhMjIyMjIyMjIyMjIyMjIyMjIyMjIyMjIyMjIyMjIyMjIyMjIyMjIyMjIyMjIyMjIyMjL/wAARCAFGAdMDASIAAhEBAxEB/8QAHwAAAQUBAQEBAQEAAAAAAAAAAAECAwQFBgcICQoL/8QAtRAAAgEDAwIEAwUFBAQAAAF9AQIDAAQRBRIhMUEGE1FhByJxFDKBkaEII0KxwRVS0fAkM2JyggkKFhcYGRolJicoKSo0NTY3ODk6Q0RFRkdISUpTVFVWV1hZWmNkZWZnaGlqc3R1dnd4eXqDhIWGh4iJipKTlJWWl5iZmqKjpKWmp6ipqrKztLW2t7i5usLDxMXGx8jJytLT1NXW19jZ2uHi4+Tl5ufo6erx8vP09fb3+Pn6/8QAHwEAAwEBAQEBAQEBAQAAAAAAAAECAwQFBgcICQoL/8QAtREAAgECBAQDBAcFBAQAAQJ3AAECAxEEBSExBhJBUQdhcRMiMoEIFEKRobHBCSMzUvAVYnLRChYkNOEl8RcYGRomJygpKjU2Nzg5OkNERUZHSElKU1RVVldYWVpjZGVmZ2hpanN0dXZ3eHl6goOEhYaHiImKkpOUlZaXmJmaoqOkpaanqKmqsrO0tba3uLm6wsPExcbHyMnK0tPU1dbX2Nna4uPk5ebn6Onq8vP09fb3+Pn6/9oADAMBAAIRAxEAPwDMySGHB6YHc03a4/d7vXOT6c/4/pT9ysCflYDJBPG4+h+lNOCcsOowB0zj39f/AK1NbB5iEgoGTf0IAxnrjn9PXtTj83UqMtyOp7UxeUG1MIW67ev+cUEAM27b82MdiSMdR7UNajdmDhT8rMwDYOB1P+cf57kbB41ZgGPUfLjoRTkYLuLcE88Hv60wDPJkzlsgFu/+c8UlpsCJFyGD4UFuScjOR0poyz5DtsDA/KeT/h/9el2sJTgDB6gt9Tn3/wDr0B85XPDZxt9cY9aBdRFCKVz93GTj2/PmmqTtLjgZxz2+tPMqh8qfmJCkDoajztYYG7uQPl+gNOOo+g9ztQ8KRnIzwO5/z9KewEY3c9T8317/AJfnUUTYYfwn0xyP8/1pZAfl2cAjHyjr9aHqxXHZOVyOSMhhj6YH+RSeYEdcI+0ZwQeDk/8A6/zppz5YTnrwF7D/ACacrKAQzDk9c4NCt1H6ACI1GSOQMf57df0oy24MZBtJJIHrk/5zQS/lkYO0HJzkZx6Y/wA8UBkDkrgnOAWH1/z/AJzQGmtg3FXUAfN2brz9ePenFmzl3AGD82eajOSBnactgHjj2p4XJBk3EjgAc8f407APTPAA3Dsccjv0/wA9qRC+1vlAAIOAMf56f/XpoZRsfaRxgEj86ergOdy7McnHB3dORSswv2I8q6hvMUMcjHHHv+R61Kzs2Rgg54xyQOOaYhdWb7uDwQBwaerhc9wcnBBHGP8ACmw03FB+UAqCgzlcng0isWBLArz0257d6XhnK7gFBzzkZ6iky2zAB2eoGc49/wCv0pXTBIdtYcFiD34645powV2iTK85Oeg/z6Uhdd4ORwMnjPGcf5zSouWACZXaQSOMdv8AJ+lC0Ym2IpzIU5xz9B6n+dSABTjayjkk7enrTTGEQNgBu/r6E0u92iOchTnG08j9aGUrPUcF+8qoA2M4x6e31phJb7w2HvkYz/n+tDMclgCUx09Prz/nNKOUPPHqBnqPWqXcVxcKcNwuc87c/wCe3507kpjLB+DgnIHp+HNNPzAM+4544PXn/P5UucncqkAAjCgcD6fXj/8AVSfcLA3zAbj6/wCcUroAMA5J5zuHHt9KQkIi79p7tgZyRz/jSjOAWJAJySOMDr/XvRtqg21QrNsC4wvPOP5/zowy53bSBkjPc0ig5bngNg4GfofzpGcscqAGbvnp24H1poPQefmQ8KR0G38cHOPTNKrE/MPmwcbvw9PT/CgAg7h93HBPc9zmo3DEhtm3tn15xS0HoTeZkBos7wcgn5eT/wDqpASmxVOccjHf6Um0Hd13ABcj6c4/z+XFIjLu3BiM9MrjHtj8aVhIHwmMORtB4zj0/wAalXO07kwGxznBOOe1MU4JOFOBwOw/znNBYqhLMWDcg/lkf59Kp6i1sTAFiVwwVR1PQ9+/0phJUuAxXCj5fQ44GfxpQWXO5sE9MjlQf/10KSzFQQFJKn5B9R3+goQ2C4OAGIJPA6delKuT0J3knBB4PrjtTCASdwDY5J9etLjbGGOcfxmj1FppYU7lA37/ALueefUdKkTBiZSFPGeDnkf5H/1zUabFJ3hx6N15/pSmJmbHOV464/n/APrp2TDRi/LwBnGATjnn29+acSnmED7w7N/F/kfzpOT5YVON2P69vofypwBD55I64H+PapvqDuIW3dBuzzz6f5/r60LvXg4Vucg/57E/WkKgkjb82GILDgcU45ClCMEHkEcZ+vp1qvINgJQOFwqMRnIUHv1poZd+MswK/wAX+elKzgLt2jOfc55/SkY8I0nzY9DwBStfcGOXJPzAgg5A7sPTjmiNTli2wYOM0keQm98bF4PoopfmaPhc9AOOp9vT/wDVRYOlmKSCzHpjHTj9OvU0w9SMEleAAent/KngqoIYDeeeG5PP/wCugFvlIbLdDtX/ADnvS1Q2hrEbiPOUY4wQOPzFFRYgOC/DY5AzRTXzGk7f8BGd5iKn8RyD0PPT/wCvQ2McYHAzjj9OnQinbi/yAqV4I5wR3phbLMfvRk9McipD1FkfedzbTxwAe/b+f6U0xjaWOCM5OAQKeceWcyZU4GCD+f5/ypMiT7wG44yABk854/lTJ8kEaKMuFAUDDEdCPp6c/rQQ2cPhAxwO2OP6UzIAcEYLDPTIA7Y9O3509Tt4DEkKBnPbI5Hc0tddR6tCFvMcbeDu3Y7f5FAJbqVC9MYyeAKCmQwwccbSV59+/HSmg/uwnJBGOuN3+c/560KwJajiAvDluOgAyDx/n/PFIehRjkDG3HX8aXCHlfmJXI7jvSR8OD5fyknnGP8AP+fpRfQLXeg9ZAqgkMctkAHpj/8AXTD8silN+Sfcf56VZt7RpAzNIqr75AGP896nmWOBNgAx0wOM4x19OKxlWjHY6aeFlIzi4AZlAyf/AK/H+fWkxvjJJBBxnAAx9e3p/LrUU08eW3OMDLA49D19Py9KI5sMGBVgeCR1Oc1nHEpNG08E+W9yz1w3OAMdB0/zn/JpPlG0EEtkf/q/OmRypg8EEHPQY9KeGUv5YTg4GSCcf55rpjNSV0cLi4uwjZKsW+XjGCRjpTyrkjy0OF4GOMDOP8PzPegsGA3HOeDhsdz2HHpTMcg5GAcFcg8f5AqmxJWH4G5hnCkgKAOnPU/57Uu9xG2OTx8oHUe/+e9Cx4kfBIYegHA6Dn160m9QuTyCeuNuD+tJsVuw7dlOBjAz1yc8H0+v60cgIHLcHA7cnpmk3A5O4qmeTzk/5/xp4+aRiD8uNu3OcfX/ADmh9wS1sGN25gx3ck+vPFIWLHd5mctnGcY9/YUI/wA+8cEtgYwc8/5NAbJIB+YjqOw54P5mmrjFjIAxwQeCen50q7PvfeB6Y54/zxScs5woHXk989vf/wDXQJCZCoIJA/DHb+lJa6j7gxYnl/un1wSPbPanKRlQzKRxgYzx7evrTcldoP5d/fGe/wDnmkJTgqGIIwSW4H6UbkdLDnP7sjzHGQevc+w/D9aVcLtDFl5JwOvHp37Gk4JBOR+n4/rnijIHK5X0GR1/z/KmtykO/dlX+ZiQc8dT27/XvSIzfws2Ax6tk01Hzjk8tnIPcYz/AI/nT8ZkVsliPvADj6e/FACRnAAKjaw6deP/ANfrT14IY7SABn+fX8vyqPkSYHc/KG46Y/L+VLuVFPQDr83px1/WnYBWZWQHbyxC7jwR+XenBnUH+I+3JyPU0cLKMZCkfwn7v+P4mkkJwCD8wHJx26/jS3DcQjZtbaTjAyKcrncTuY4yMHg446en/wBejfzgMGBJUhTu6e3vzSHcgP8AEMkDBx1HX/PvQt9RWQpdd6ryec8j8e/404xljwpUHhs9x6VGckZ3HG7A+nQfWnjJx145I9ST2B+vp3p2tsMdkqrSRnfnrsBxnn07dacMHcEJAABwD+XT+f8A+qoxkNjC9OCB6eo/GpA5IO35h68ZB/H6UMNRHYBW2E4wQck54/yf89XhTjDfKzcg9cn/ADimrvcEAsQD8voO2fWj5tzIRkr/ABdj9fb/AAoQlvqA25AJyQCDgf5/lUn7yM8EbSOn3Rj+nfp6GmL94xu6hW5UqM4/T8PwoB+c7d2SMnoeB+H+c0AtNCVRzlUVVwcgD/H8fypBtVxyNoAGDwAM/wD7VMeQsCdvy554z+n50pZYlG3YMDHHYe+PahbBazJVAYvvGTxnI5H+eaaGyDlgefmB49/6UxeH3BMFsjAGB6c575oV9gwr4YAZOM5/CmtroTHqrhwy7MkYxu5/nyen6UifvDtXbyenBx+H+etK37z5tpwP1pxG+UuCTu4xjtnjiluDYgPz5ZQhBIXb/n6UrbQUXII/2en+fakUNI/LDcRjpj8vb3ppkJfhmXBHXnHfn8qLdB63aHDJKD5SQf4hj/Pb8KcVZVX3bAAH+c9BTSR94McAhhk544/L19adxgqA2OmTj6fSk2D3Exul2jGTyON3Ixn+X5GkMgPJUhAOf89KUZaQEqQcYznOBnj/AD1oOZXKoCD3HI9Ce+PWnYN3qOWNmGWQZ75NFKqyFRtRmXHB5Of50UnGTejJafb8WYpddvG0FTxkdT/nAp0cTF28s4G4E5H/ANakjXJwgyD1+Xqa3YbSNY3WQf6rlSDnbxmsJzUXY6qNDn3MuCyGA77sFsLlcAHof6fSprrT4YYSpysgHHPP1/CpyPLCqq5UjOfXjj9M1XvZQkJ807WA24UYOex/OuGeIlc9Onh4WRkvcKAEkUYGM7eMdv61XmvWjkLfKdowFYAH/OB0qpcMV3qGIGBgg8+lU57ho1AzwcfKTgg9Mf59KyVepdWZu8LCS1RvR3MV0qup6Ae/H0/Cpvu8qVG7BPH865a3vWinDCTb6YP3v8P/ANXpXQR30c8YlKqh44b73Pf8f616NKuranl1sLKErQWhLJcCM7mYbifu4xjgf/qpsepRrlnQYz6g5/w5/Ss3UboSspViONufX/H/AOtVFrjeqgsQwB5POOP/AK9clXEub0PSwuBjGKlJanQNrQ3EKFjA/iwRj2FWoriG7iO1zu6bc9Tn2rkVnVZGO/Ixxx97Gen6U6O88uVJBIyHHRDgYrFNvR7Hc6Fload3FMHCBCcjLYPH8+azzeTwttLnAGCVP51uDUEv4kU4DL1xzkd/5VhXUEi3GegI5GM+v+fypNK4RS1TLkV8PNVT1IwCOMcf/qrVtZAy7GyGXoM8E+/tXLmR1jw2cgHJB9f5HH9KtQ3JLKcnccADOOfp3ranVcTlxGDjUVzpQznkswjC4fJz1+tLGSp2sVJY8c85/wD1d6zYNQ3OFf5VK7sEden6VpJIMAkKAepPTn2/D9a9GFRT2PBrUZU3ZoNu8Rs+ODu+ZuuaAHOzByEPfIx+NNbcxJUkH7xwDyQf0FP/ANYflOOR3PP4Z+taGO+ojMVKru646tz3/XOTQAQvIBbHPfn0/wA9Kc4CsgTO8e+cfh/npSElMswXOM+gHp+n+eaS8htuw7pIr7juPbGfyzSsOCRhWAwOSe3t07/56LI5B+6VQAAFvr745/wqGNk8sldwCrkYPbt/n/IWoLTUehLYG4MW4DYFJwvy9RyWU9zTyQAC3Cg8A9c+nFMXa6s+VJwcYJOOOef6VSfVDQ4qArnGBnOTwOv/ANanB1CYbqw7A5wP8/rTV3Z3kADO3nge/wDn6UqYXo3zPhmPrx/Ok0rCHKxXKoAeCcnp+NMUtwCx5AwMnmgMu4ltvUlhjAz/AJFEfmRuAxAOc9c/nTsHccAC4DqOo5x1OP8APFKcbsg7gD/CAc/5z+tNcAo20jheWJyAPr+JpW+TIbk4P8QPH+H+FIXoHA5G4gk5UHPv+HelG5icMo3HP+R07Uwuu8/LmTA5UAbR/ninsej8Dnp6en48f5xQ3y6suNOUmkluPUKWyACVA64P+TnFN8rLHarMCOAOcf5/z7uhaNU8wqGTlcj+I9ef89qvWysseAjYLcBTz/PiuSWMs7RPQjl7S95lPaFcvsKkfKNlNY4VRIPmHcjOPfOOO1X4bO4vZsDLYAPA7d/r1q1LoriFo48Eg/fHBJzSWKd9hSwPZmKGBkXazBeBk4A6f59venMxO75iWHr17981HcLcWb7WjVssMg4UYx0pVwwK42ydDng/Tp+tdEK0J7HLVw86VuYlypB5wx6jOCDj+lNZwyqpL8dPTpz0pSzGEcfKRkY4GM9MdD/+umgIA5ySp44yPwP41qYX0Jc7sSMdo3YwOMdB+Oev4d6bgbgxwXzwB0BoRgygJz2xuyT0/OlKo8P3vlH3jyTj/CmtWTsxTuyw3lj6tyB/n/Ps1Sx+9gYOeM88f5/Ogs+crhgBz8v8OP8AI6UqrhTk7WwRzkUDt0HfMCwXOAPmy2Ov+f1oDnbhozgjgngmhWAwW2k5AyD/AJ7D8qTCEkh+BwSxwf8APT/9VNAuwoIyjgAY4xg/Ljrz3p4IKElQp3csOcn1/nTcsB94MDwOfpzSqwVQv4D5evFDBsfhWJwFBOFPoRj8/wClJgMnyLwxOSCOh/n0pvDqC/HJHTvxntSbzw+3BB+Uhfbj8KOmga7EydQQ23BG7JOP8+n0pMnZuZwRnoRnr1/z7U35iXjAJwo27eh/w5zRwo+bIxyScdP8/wCfQS0B2HBWzgP8w5xnB9aC2CcYB74xwSOf1pOfkO3cOeOMY+hobcSflG3pgnHr6e/vS3YnqPITjALH26daAvGQASOCSc8f4YP6VFvYYUHvjOaeAQ6jAHGRwfz/AC4/GnbzBdmywsscY2CUAAkYG7HXtgUVVld1kYBoMdeWOf50Ucr8/wACuWD7/wBfINMi5DlsKBlcd+KtzybiUWJQAOMYyPY/571FEUS3CjO4Ek5yBmoxOI2MzuR8+CRxk149ao+h7lGm0glctEqrGR8uCyvnOeP8KyLnhCHdwQS5OD/L8QasX07yqr5AC/KM/wAPPaubvL/52jbgHJIHYEf5/OuaS6HbCndXKt3IRI7AgYJHP+eazZJiS+4ggnIyufoamuXUKzbcdgzHB+nX09az3YFcZwBwCO3tW1OKtdmrS2J0laMjdjPUDp/nPFWYZyR0BQHB449u/wDj+tZfAUl2HToPX607z3Xo3GMdOgrbk7GEopao1JJWEQGSpPHfn/PX8OtQSSMsZReRx1bceOaZFMkkhLjjP97/AD/nFJKGUAYyGbI2/wCPas+WzOmjUTVnuKsjRrvxuAPUg/55p4l+UHOG6Zzj/wDV6VFnY2Ryc8HPQ01fndduSG4Xtk1Vr7nR5F+2nkjYMsgU+nr9Oeef6VrLsvIuzOPvjnJFc4G64KjI5Bq3b3LRkBRkeoGO/Pb/ADiokuxlJX2J/KIlJ2juOB0A/nUGfKwqsp55BIPfPT/PpV9I3lBI2ncPlI6fXH6Ux4g0hCn5u+ORgdOT+P51Fr6k7kCXMyHO/CrnA7Dp0rVt9SZQuQ2DjIBzn04/rWHMhU/3ipPBx1x9ff8AziiG4MRJ6pwOucelawly6o5q9CM42sdmjkkSEjYT/e6e3+femxoMZYgEEkkn+fp2rHtNS2pyoZfTJwcfy6VsW0iSxhkYknhgpwOPf869CnWjNWPn6uHnTT0JUHy+YoOMcAN17fjTcEKu3cQRwxJPH/6/607zHIxjK9OMj8f5fnRIuWHyvzwSvJ6+/XpWiZz7BkkooXeByAfT6dfSnYVZOflIbaCcD9c59R/nhpDE4Hp1H60KCDuxgBScKQf8/hQAgHGNhbn5Qew7/wD6vam8/KNxXIBJUfXv/nvTw+GZxjluh4HXr27/ANKIkZHw4DEjBOecZ/8A1/l+NWtBNtMBwA21SSQ2Ac9enbGach6EbQRwAfz69KF27snpnkAd/wD9dNbf1G7IBIG4H9PwHFJ6hdIduLOFyQTkg4wfp1+vNIVzhQMlTn0x+H40rEuclvlxtP14pSN5xhQTggZycenX0HeleweYhCtw+DGBjHp6H1//AFU8MXddxK++Ouf/ANdRBjj58ljz649PT61HNPs7CQnAAx37GlKairs0p0pVJcqHSXHk7QAC2MAk9vXH4mmW8E3luynJkG4FlI49OmOvemWVvNOryPMTu+Xc3Qex4/pWrAyx2uJIsup4GeGGeme3/wBevPqVHU3PocNho0I+bDToDJAoA3BTtXIGCMHj1/z7VuW6IIwvl/KPvNngnuPrz1qtG6pB+7X972xxjntTJsLEXmuDIre5Iz6dPrWLaW5q05aI3v8Aj3tleI4LdSeQRgnj/P8AKrkEz3OFSM4xlieNpHH8wD/PrXMWupzbY4AU3YBwDnBx/wDXrRh15YVCqBt4BXGOTwee3/1qIyV79DGdCWqSKWtaa0+5YlCSqBkMPvDnr9cVx7m5t7oRugKoNrEn8hiu7udZtrlFdYzDMF4Dnv7n8TXGavMZXCvwYxnJ4UdzSbXNzRZUKXNFxkixG3mqJEILN2HTOcH68fX+lP3NGFUZPbGR+Qz9aoafcBv3e4tkfwnP4fpV8DaxwpC5zg+xNepQm5QTZ4OJpezqNChVUBgCCDyGYDB7d/b8Keu4/Lk5bHOPzAqJXMi4yN2AMMcfnTgpwfYZ29Py/StrXOd2Wo/BCgKMMMkgjjHGf69fShAMlRuctngHrn/9VICGQ4BB7Nnr/jSnKSFmOM5wSP8AOe9G49HdCAbQFziPtg+/+fzpygFi2QXPU9cdOn5U0EodiZK7vvYHzd+vtSgSEHK8jgAgfhT3QLRslbBbncc5HPOMcf4Cm4+RSOh4wCKXAEDIZMLnHTrQMFQzEpzwOePQ/r+tJCFR2BG1vYZHQ8/4UHHBYDOex69OPy/WkwcD5sMOSoPU/wCR/nuo9S/zA/w8/T9f6UaAlroLhQVbG04xyT645p5I24PGAOcHgetJuzGc4wOm7pg/5H+TS/MJcZ2r69D260MVk9WKRuUheV9xnj1/LP50mCrIpDDjA5zj0qNX3DauX47844//AF+1SFtqYXb7A/r9R/8AX69aLNDa6AGG4DLc+q9sdwKVTv8AuDJCnJyTuPX8utM3MCM7DtPPJ9D09TTgpGMgL2P+e1MVug5mXc3yIeTy6nP6Gik8yUfdUbe3H/16KS9PxLvFaNlN512ZkTad2SxbrjmkkkA2ooDKfl5Ofyx9f896DZlKqWLbQMY9fUc09d8gKnOSoxg49+B/WvB+J6n0sVpoRXscqJKihpFXtxnr27+tYF3+7fdzntkDJwDXQXhEoRiT8i4UvyT09vX19a526Z5kGMHscDOT6/T60uup1U9VYypspwWbn7wyTgelVZMAkckduKnm+XcASc9R29KrsPm+ZsDGMnnP+R/KuuOiFUsNbLPjgk4A+lJneRyBxz2HH86ViO3ADcA03qBt746jr7YrSxzSeo+ORoyWL/P6k5/OrgcSqN2MLgccn8OmaoZIBII655HWpIXIk2gd+Pb/AD/WhohaO5ZyUyN2cjPHTHrSHG8gYHHXP+fpSqwKfNk44Povp+HNRKx2ZIAzxiosdlOqmTfeIDcEdx0NC5UYGee2KZk7gBtAI/T6/hTwVH3gFYY6Z9almy7lq2uHjmVlbLYwOevsee+ameRzIJCwfd6+3es0DDHqG64B9/8APpUyOFQbmI5xg8gDp+HWpa7EWS3LD5fYSvODzg5U5z/WoiFDhDtwfvDGP0/KpA25VA3BjyBkfj9KjmgdMKR0UZzxx6Y/KkkQmgWUjk4AyVOOg/zmtKyvsEht3Byc4z9fWsll+RCpGSeBn+X504SCNiVAOeAenHb+Rqotx2Mp0lONmdpDc+YwYb8njr/P8qn5ZMAjsC27/wDVXJWl88ZPz4AB57nn0/Ot+zulkAw5kReSoOOvb/PtXbRqp6HhYjCOm7o0Y1IjyFxxgrt6fhTRuwAcBcgHIHzDuf5/lTiW3glWyMfj6/p+NEhTcFG/J457D37f0/SttTgv0GEBY9zMcg4LMD/nt2pWJ+ZWwRySM4A59MVGWUDmPLHDbT270/OFxlOhBPOT9P8AP51XL3KQdWB2+uFwOTSZAyQOvHHHT/Pp6UsjOdqhgXU8e4PSkcgOzYwwJBOOAOmf1oWrCwudrI4DHtkgDrRuJ3q3TjdvOMe/6/rTSQxLPkE+gzzioZpkTKKQHPIB6H61E5RgryNKVKVWSjHcknuFiRo8bmOMc8D/AOviqcDrAA8jowzgZbtn/PJohkVoZXc5kdsbQeg/KkMq4GI8YAZWxkV5dWq5u/Q+mwmEjQja12zUidgd8LAA5UFBjHTg/hWgqxFWZmwpwp46g+lZNraPbyl8Kfm/dr2Bz1PpWs+2Iotx5Y28og+7k85oTN2lfQusslvYBomBY8ID146f596zdQvcQRRCU/L8zOe56YPtVe4vy8xUlnHrnGRnjvxSSwJKVaArkZ25bABA6Y9aym76ouFO2siP7Z5MhdFzM3y5B469Oeh/xqNLp9reYjbgu5tgyBzx0/z9KpGRy58sr5hz2PGe/wCdaOm2RlWdw0aIEwGc52k9PasYK7sbzUYq7HG5eXZtjXco+YhgPyz0/wA/WqV7NLt3uC7SMSRjII/D/CtARNDEYYF3SOpQMo4/M1zuoGZZVEokXcu4qrcf49q0SaMeWLZdgZYpYleQKdysABjjjrkj0rUwHGCo28DLHAyayoFaR2jwSU4Egxkjpg/19a1XyUJ2ljjjmvSwT92x87miSqqwg5YgtyRjjjPQmneaQMOSCd3Tv26UEnAIUAqAD9eM/wCNC7jGQCAORg8Z9+ldunU8sUg7WwM4b0/z+lKuVwpYIGUndnOOP/rUhwFABI9mPQ56cfjThgjA2knP3lB9Pzp30BiqpbDnOTkeuaVM5yAcEY5PTjqR61G+NxJ3H3A5GB3H0/lTiTwu4ZJ6g88dAfypbhazsiVWyflIBI/h/P8AxpAc52MSo42r3JP4UYPmYPYEkEZP05pFDbCYmKkjpjrRbQatcXcpGeF9eee459OtC87eW4wc54+n1z6UKQGIx7gHHT69v/rfWlycn5mwOh3DgD/PrTuJ6aofgkqAMjGRimxB+duRn7px6+1BOHIBJU8HJOCff9PrikJVWHygk+/Xvn+VFguyVSEy0jsxyfvD6dc03Ckr8nLcsM8flj1ppyB5Y2Z79v8AP4U8Oikgfe5AY9QfWp0eorq4iIfmVs5IPP8Ae/Mj6/hUgOEBbIbjAA4/z/hTDjAYEAdSF+nT8+9PB53HDEnqDnJPvTeoatiAIR89ztbuD2oo81lGBs/75H+NFVd9y7S6MxppDcQh1UYIIK4wQcc/l0qq0jzAu0zbeckYx19BRHqDLB9lddyrkkiP5j1/+vWY0giR2ADIwxkE4Hf8f/114M9JWPpqWqNYsrpI6sF2JggDjPpxXP3iiNfldwduR83bHQ1qiZWt/LZgyE7iWHB54461l3gVFyxUru6EEEnp/kVC3R009NDHlXlgxOTzz61CSFB6DHBwOT0qeUlsgcY78e9QSEOR3yMAD17/ANa64sKhHw2Rg7Scc8/lUeTwRkjv6CnuASc5z/OmFvYEA8Vqjjl5igng98kk+hoLkbRz04PpzQ24dFA25zx3oALswB5Pt0NPzIbJo2OSQVGR82QcVY3xysMEhiOAevrVIbmbYFJ2r0qaJgvTqemev6fSokrlKXK7k5BH3Rx/Pv1/KkYtjcMe4K8en9KUSKIjztI6HPOP8+tGAmzO0nPQ9Mf5/wA80lFydkdHt0otkZyCdoycZA5p5RgquSpXHPU1U+1kSEc9SCM8/j+n/wBenli4Izkgbm4yTjPP61639mx5L31PFlnMvaKKWhOkoUg4AUEkY/z7VoWzeeCH3EAHh+//ANesZHJxncAF/IVZtZSqsm4/N2BryZRa0PaVRS1Rea3KHkhsN8wIz+n1zVd0YMVwVJBOW/z/AJ4rTimSdQjMFPVuMnPHb6dvai4sWETEElB39B7fr/nplew1Kz1M1CY2Yk5B9+uO1Wra7eNUVWIGSSF47cfzqq0eNw9D6dMev50oKhAzDMeRwSDj0OafoTOCktUdXYajvPlvuXd8yg4GO39K0hhv9VyAcADHH6exrh47radyMwUnqf8AP+c1t6fqiFBby7VYDBIGAp+v4V1UavRnjYrCNe9A20+dTySQOOeMjvR8wTLAFT/FgHnj+h6+9COJW6LkEsxDZ9e35VNqjJFYFgcuR2GRn29+teph8M6qc5bI+azDHfVWoQXvMqJdQ3TsqPhkGcAU8BQfLKtk/wAOM1x+m3UkeqKS7MG4bk+vf/8AXXSXN4FzGhAIPLDkZz79/f2rmxDjSe+h6eAhPEJLqTy3CRpsGckYIycj2/Q1RIPmZY54B3Z6nvUCl2UuCpI4YnrzzwPz60bwDgsQWOMFs57cc141as5PU+uwuDjQjZblpECJLngOOof7vI7en+NMhid5ECBpdpwQzZ5PrWhFGstqIlmjfeqEkn7px0/OrlnBHHbIA6vIQQrFed3bgVMYptHS5WRYjsIpYlBDgg5UqPfn61Nd5aMmXDCE5XdgN+Q69qaUEWxFlMeAQ+05LY6/5H+FVp0MkjCAAjGWyuQp6DBFaPRaGUU+a5S5d964XgqX4wfXr1PFSyxvAp3kiQn5SGAxkdx6/wCfrXciNY4vLwxJJwMH2wP89+9TXUqxWyHCmQRgH1U9+fyrGStqdHNsVXRUG0naWHBPykA9fw5rTjaKLRUUOWLuZJIwAMAcAcduc/hWax+0yKQNrAfMO+eP/re9NLs7c4JPJB7Dpjr+n0NRGTiEo82/QtpeEwPHNJIIh2J6jPRR681k3GswzX3mtbsNg2jpyB3IHfipJ9gtyjsApIYgLz+HrWHf7TKAm4YXBye/0qqcm2Uqa3Zo2N5C98whLZYjjPXGOD7e1dCCyttK4xzubkD8/wAa5jRY994z+WdqLy3qT29+grpHcPhmUbcKNp/n/wDr/wDr16uFXu3Z8vm0v33KuhLkeWCBjHAHXBB6Cm5O4lQQWbAx9MVGA7kHCEDJUH37DnFSM6kAqVwxyckHPTqP8/zrq29Dy9BXZyCV4A6YOTUiNhwN6Lxzx15B+oppjy5wSNvbPJ9vr1pQDggvu2jOAPX8Ke4roaQyKpHQjA3HrSnbtUEgN6rg/wCNCEgksM54Jxk9e1O2MEwRjjjaevHUGi9gHh4mYsCvyEnIJ5H+RSMoKKGTac9QRx3603cChO3AI646/SlDrt3YZRtAx6ZGeOtIafceMoQinI/iZRn+n1po+YBAVCHjp+FCgH+IDnJIbOcd/bp1pUOPkK4xknJ/Tiq8xbEnGSFzuHcnkf5/nikbzGzllZTwMjp2yajwPMbJJUD3x/np+tSOytMJNiru6gc54HX/AD2pDtbYWMna2Mn0B5449OnX9aGG5/kXORztP3QM+1NjfB5BXjbjHH/16ecqwZQM4/hbr3/z0pPcVlcVvlydqkA5G0nnj68daXhQeu5iD1z34/Sohn75Awp5yfb3p5YrICCdwPQ8A/Tt+H/1qdhPRDgi45PPWilDBwG2xjPPKjNFPTr+f/AHyX1OW1CJrd1dAxVxyB6/5NZsz4Gzd5m3n07V0Uq7lCOAQ3VuoHuK5q+ja3uCrgEEnbkAY/E9f/115uJo295HuZdiOaPJJ6oVbhm2rlMDIxtyB6fzqKaUyfeIIJO3A69O3+FUWmIX5Tk5zxzn3/z6UfaMYBIbPB9QK5eR3uezy2GTJyVAznpxg81Wfgg4z1xWjJGJICWPfJPc+ufSqUnXnhTyCK1izOSurIhdlYZ6k+/60za3IBx/dHrUj8HdgYxjgdKhJySFHGenGa1RzTVnqBKkjJzzz/kU1VBbnjuB/hTgCzbBjOe+BiocFflyevp1q0c7ZKG3E5+bnsf84pyNlM7zzxz6etM35I5JA6E07G1eTgjgZGfypNFRdtSeOYn5SDuPp3Panyy5RwhwCODntj8BVc8DrxnP1FIz4YhyOPaqpy5JKSFUjzRcU9yvCy72LjJIxj3q04JBKEYAxnd/9f8Az/KMRkMZFbgnsck5/wD1Ur7hGwYnJ4OM9P5/j7Cveo1Izp8yPmMRSdOpYih+UEo3PbP86nRtvLbRkcfL6VTj+VgB6D6H/CrCHjB9eCR/WvErR99n0WGqe4jVtZwqjDAnv2/z/n6VtQTB4D5jiRhwQDz+VcuvXcp+ZTxxWhazukmCTg+nIx0+hrla1PQTTVy/c2m4PKu0c42Ecjpkf/XNUfLJTlWIBUZJwefw9zXS2NlPqkiyRFCcY8vs3bPt6VnalprWkjRKAJAxDpjPNRKLWoozWxP4f0Xzkn1CZVEUakqpOOcfT3qG0MN1etBIh+ZiFIOOufWup8tbDwhKV+Vnhz1xkkdPfrXEWE229jYjByCfr36VyRk58z7HfGlHkSaOntIZbK/FrNIfKI3xk9WB6CrOuSCW2YL83y9z0qLxiS2nWN5GCrROAcHPXH/16pS37XFvFGqkdCWwP89v1r6TAY+nDBvnep8BnGSV8RmidJe7+RiWGnt5nnyqAygsuAevr7VojexGW4YYGOpAPI/KpAsYdhvIXuoHJYdvbrUMrLu3JgK3Pvzx2rw69aVV3Z9rgsHDDwUYoUfdIKklQBjGP179uKl65JcYAHVj09gajjAc4w65XIXOf8/jTZWG5CWOMYwD+v15/nXK9WenGKbLdk371QzDYCcKeT6D/Pt71sxlfs7pE6xzBcEk4JB/CsFH2uNqcg9cceme/wCVWFnyxlZvmBwo7f56frVQmyZ077F6aQqQkzEEc4GOmegH+eta8M8ItyUVlyMD256Ae9cws8qTiQyMXPRnPTn/APUa1Fv5Awjk24XkHaFJ46/T/CrjUVtTGrR00LV89nbhWCgIF+Q92Pesdm88swU7cEkgk98n+dJczS3coaaTfgbVPGEAOaI08sEyYyw6Zxg8dv8AP86yqT5i4QsrsmGcKu9hLjOR3qLzv3oJDEDO4YprMoO5wS68fKMYx+VQSSqrNnlyOcgDA4/z9KzbuUloV72baXEargZAAboO3Xjt71nM3QAZI5yST9fpip3k5YkjaOrFuevBxTdOXzrwPJ90fOVIwG68D866qVNvQzr1FSpub2Rt6fb+XZEhAvz/AMRwccYHNXVkZCcALkn0ye3+fxqBX2swzwTkfT+nTpQkhDEfM2SSBnpz6fSvZhHljynxFao6s3NlktlwS2QepJ649fyqTO4KGY4yTx1J6/59zVbeB0I+bIwTzge/50uQeSMtjkgjjP8A+vOK0Wm5mWFK7gcMR1B4wuO/PAp5TjbkkH8uCfy61EJA5G/JJG4YOOPp+X508bRISRgMcnHPb1H+elDegnqPKnaNwDNgsyoMc/5H9Kad4Kj+HOcFv8P89aQMOdqvkNgjb29P50owxHIIC/56U2NbakiOwUjcT0I/nQMZx8xYemPfj9aasm5gVU5PY8jn6fjTtxYt13Lwx7bu9GwDuXYtgMcH5dudvbJFNVyAAAu3r07/AEpUZiAQVyyjOB2/xo35K5G3p0XHWltuGgYYKq5G0Y4B9M09Zdu0hTzyCp6/5/8A1VEuNxO0k4wR0/I/l/nipQwkUbOF5zg/T/P+eG2KWwB90TZyMn5gzcZo8xmkADkn35Oe5/z60133KPukk5x2Jpxk+YqM5bowxjp07e5oWvQNnYXb8oBKrhtqlgf6UgLOVO7IxtG4fn7+tCsHIVDk9ieg6f8A1qUD5/LwVYjJ6cj6076i7iF8HBEORxzwaKA5AA2k8dd3+Aopa9v6+8u3kUGcJuKnvngZ/wA/SqGq20dxaOGKBk5XC9OlWJ51UiNeuR0Xt07fT/PevcxSbx5hLA/MTjsexHftUNc0bF0pOM1JHIuu1BsBUD73Q4qNwdwHBB6E961ruLDCRGbaeWH9zn8u1ZrhWOVyUPc8CvNlFwlZn01Cv7SFySOfKqvLgfn+Xr/9aoJGJZsoAfc8j/P+elKjbZBhQ3fkUEFnyNxwM9OntS2ZvoVjx8uOO4Hc+tNKlsfN9SBxVjad68AgnAHbNRvnaBtDAdOematPUxqQaKxDHJAYjGPamt8mSDhQcdeff+dSMcDqRg8HvimupyFU9+CD0rZM4pRd7iHGflwT0PH60DgDgBuzUKN3IIGeSc8005HXlx94de/NAk+pMMliv4DA6/lSZYsMj5RwOeaakRkYKjfN6jv0/wAf0q5a6RPcnc37tDyCQcnJ9KVuwc1irvYY2ng9QP8A69MY87UJIK+uOOa37XQA3zMXZCOmePQn9evFb2n6PBAoYJEueCDznntXXh5ShtsceKjCpG3U4S10u8nYCCFnXsVBre07wZqt5KFUKiHuT7evr/n0ruPO0/SwTcusjbcrGgHGc9T+PpWDrfi271AmK3WO1tRnZHEeWHbLflUVpQbbQ8NGpy2sZF/ollpxaP7YZ58ZITgDH41mhAGbbnAAyCcnqOaczvJjIyVxhvQemfxNNk8xGifeCpPBH51yJto9Gzjq2aWm3txY3cciZ3KQRkYz/nNde91B4kiicCNJlbLHr+HWvPiCrAqSctgDHJx/k1s6JLM97GScopBJJ4x1PFZ1HyxeppCPPNW3Oy8RBk8PzjBGBjP8/wCledxOySrtUsRyDjP+e1dLrurfbI/sUH7xnO4kEHArNs7HYQ8hztGcjkDH61x0Fywd+p6t+qNa41Fruzjt3VTDH6r1POOnSqkW5XJdiu0Z6HAPP+A/z1TcrAHIGD0AHB/yTT8b9zhSFYZAx19z2pxXLotibczuRsY4wjbuD06A9u9SFS7g5I2gEMTwaEgDRoCT04DHoO/+f/rU5gBKCcDodwHH+e1S0axT7CRKgQqCVUfNyM/pnj9KdJCGK5YnHy5AwQMZ+opYUD/eAJGckrg47dalUqrK0Xb0xt659f8APNPTqWnZWIJLdUGFkPXjr/n+lSRLsyAmMYHH8X1qOZgzAYDkDBAx16fnkioxL867VZ3OMAkcZH/1j+VQUrvUkkKsQzNjn6nrxn/P1p6SsXJAAKPleM9MdqjgwdoJA75z149selTqhBJIUDAIIOcHPH4VDRMn0EADhiwHznuw/P8ApQxZnVmOASVHPUduKGKLgupPOPQkVXluV3RswYEc/e9OvT60rN7Bq3sOZlBJ8wEHBztDZ7fSsya4YOVX72M8fTkdOtLdXvykRN8jE5zgnmqLvuYZbGRyTxXRTpiXu9R6tJOpAQvxxyeT/nmt2ythaxgKACB82ep9vpjvVHTrcwsJnXMjcIrDtV/DYYM5POFKgDA+v4/5xXqUKfKuZ9T5jM8Z7SXs4PRE4ODu29TgBeB+X05p3nHe23G0LyfQf/qzUQ3NjcuQRgcdaAdnAYlG9+P19fWupO542vUtLIq7VOcA9D1A64z+dPBc7s9uAQc/TPNUkfJJb7nQjHI/H61Z3gKjbFHqMY/z0oe2gWJ42Cg5ZQOyk8j29/y9aVHRmBTnK8buDn0/pUG/AAZhkDPzMCT6/wA6eqEOGALbhxxkDp/j/nFFl1Ja6EykEKu7DEdwBxUqyAu5zuyOBjp6/jVYOUAQsvIzj24z/n3qRhlDuySBt6cZPuP88U32AmdwzEAFMYPI6H/Ip7D5wTtwQQQF4/H86iYhSx3gLu5J6Eex/wA9aeCS/wA55Lc7sf5x/hQD1EG3fnaxxw3rjvz9P6U9WIQkbdwyxZT93n6eppo4yCpx7kkZ64oDHcdxA2kD1BPp796a8gfmOUtnzFGY+hxzj047U5m2nL8Y5JBIzn9M/Smmdt275RyPcfmKN5KfO3I4yDk+xPf0ofcB5kYhumQRjuBSIrfKWBJBwcJkAntmkjEh2qMrxwueP/r0uEbJ4YngEc5GAc/kT/k0baIm4rDc33g0nQkAdjz/AFp5B3fcb5hgEHr+Hv1/P1qMN8wAICj0JAGOgNPDMc/MGHTa3Tp0/nRrsNbuw8PkcRAjtk0VExfP/LIexxmijkRHMuy/Ao6PFpT6x52pXDDHIQ5Kgf1rX8Sz6MyQLpjGTLneFzwPTj6j+dYLwpInP3gBn1Pqc9+35CqLs0EhTYr546Yye2f/AK/9aTk9jblje9xuozwzqBBFgHKlTy3v9OtYUkDwO3mjbkZwARnP4fTiuh3xOdiYX6jk8DtjjpVXULc3FuJEUb4+pzyR6YHoe/tXNWpqSuj0MNXcJ2b0ZggFSMbFOACDxzURGxsbcE5H1qdwc8gZPQ+uOfxqJ4zv+fklc8dsVx7bntxldXQ0lipU53A4+b6d6YVO0HaR9Rz/APWqQMxiYnaQO5FNc/JyvOMkZ6/54przKZA52/w8jnr6f5FRkFUPH6VMckng4HfGajxggjK+uM4PvWsWjnnHUZ5ZDfKM7gce9bGmaBPqGHkYRIOpPXp7d8/5FVdKVGvOQC2Opxxxg12MGyxPn5JZiCB1xj689QaU5PoZqmurMuRLHSomS3gkZlOHldMde44/zxVCLWrgTOIbZZGIONwPPuf51euZJLi2ucKWwB0BDEevsOK56OeS3nS8iAJHykE9fyraLfYwnCK6k82uX95NseZkVvl2LwB9PTtVjzYpNHuUmWWW7OGjk8wnaM4Ix06foabqNsskceoRRgBwNwXGFP8ATpmqi7tqByFHnbTgZIU88Z6cdq9BRvS8zyXO1dtbC28klwwWViykfK7HPPTv+FaM2mSi3juNisnQ7Vyc/Qf5/KlsbcWkgSIpLGcMrn+Icf4c/wCcehaf4fsb+0ivROqyKf30Zf7vQ9P8/jXnuLu0z1Y1YpXOBh01/LG+L/b5HUdP8/j6VcuNIkl05vIiPyJknaTuI7fpXqMeg2jQIqRo0ZUMu1s46dP88fWk07T7e2mltvlKbcDcM4z6/wAqqNIieJTPEfLbdkckqCV6H8R6e9dZ4Tsl3zRbctJGQWbt+vTrVjWvDotdSmMZHlxsUTqAueck+vX1q34Vt/KuGJXnn7oxkfl/nNeVj6vLeCPZy+HNT52ZekaWsU98rYMsbbVVlxj8aqu20lHPC87Sdp5rq9TjFl4jilC7Uuhg7iSN3+TXOeILPyLthGoC9cg9u/BrCM+dps9CEbkMfMLBnPT7ucg4Of61HvLOkYDIcZ3D0z+dQxSSRiMNKDu6c9/y+lSKrbgR90D72e+M/wAs1q0HLylkSgKzKoZhkjcc5/8Ar/40Fg4GzBK/3f5fpTTl03jO3AGcZP8A+qgMfLycrjhRjOc/T3NR5FRRZaMhAzgA8tnsckUP+8yMoBg5xxgf0piy71VM4CjHIxn3pBsjiLFvMO3go3A9M/lT8irEUsjR78Yftn/GqincflJOPu4bsPbuadKHMx6Y4wxbpxxVhYmVicg/hnp2P6Urdi1LlW5NajOSxPmD7yqM/ifyqR5BkKmAcEDkDiqgYlDtZeeSSMn6H8h+dQyzAjHDAEhSDzxkn+lHkQ43ehJLOy5JOOxOe3/66pS3p3kcFc5wTwfwqOWYthQx2dCGHGO1VXdvm6Zznp0z2rSFMUpJK6JHO4kgYOc4PvT7SDc29xmNVPHY/wCNQLE7kDOR1JPp/n+VXkcRr5QPQfdPODn/AOtW8dGcOKm3HlXU0lZlTaH74ODwfSkDR+UW2lnOSD6f5xWebplB4Oe+5vlFPjuAUOY9wP3ff6V1wrxfxaHzNbBTjqtTQL8qBhgO4PX/APVS5DLhc5BBPQkcevaqKSBtxj+8eSo9qcZX2nYoyeFx1HHt7V0Ra6HI4tOzRe2b2BHBwAef84/KpFChEUgHuO+ev5d6zRJKqYSPO7qcd/rSM8mWfY4YZ2gKPp0/Amq5rdTOzNXzcISx4xjd9MetPE0cakB2HGMZ/XArEkmlJwVA2jkgHGD29x1oM8oCb2wTksSTzyf1+vpQ5Ow7Nm158QcncB27E56YpReRjLZBY/xDAPA45rnzcTBsbl29jkcDPXHrTssxLZ6DjA7flRzC5eh0P2uOWTAYE5yQG44/rViKZeF3gHB6Hr/n/wCvXMKzBVcnAxk4/hz2/l3qeK+dQQxYnkAHv07fiaObQbR0mcMNoJX2PHv354/zinKpaQFSVPYZx/kVnW1/5oGSST/tf5x0/Sr6SLjgA9yyjp7Y/wD11V7bE6okcEcgNkAg46Fs4/X/AApVZhuOWOBnGOv0pisnkqdyknHfGP8AOacvDn5Sec8jnn3/ABxT1FdWHofMyOCoB6fl9f8A9YpFaRCTuYbueemMc/hmmJKzAAkHrkjHH4ZoVQrH5duCMZ6ij1HpcezvyQoyB65BP0NOYFpGGcAD5hnOBg/h0pqyMjspJxxgnt+X+FAAKjbtYYAOQecf0ofcT1H/ADt8wgVge+7/AOtRTPIMnzbnGfVR/gaKdl3KuzOuZFit98QJJPQDn6//AFqwhmZ3LM24ckEEdun6dq6CSQqBHg4JH8WOP8+3aqNxYplpIgPl6rnOR6frUJNDg7LUoKwBKocFeCoXBPXJqRZ8grnMePusen4+2KR4VhUqY3BOcDk9+n+f61XWV1YI3QHOSenXGOP8+1S7vc0uitqNqVlUoCYnXMZwSRn1/wA/41nS4BbJU56AflmtGcGSPdjKLzgcD2I/T1qhKuBjILHjAPPJPWuKpBxfkezhK6lGxFuIHzZbA4B4p5JZPLDbuAeRjHvTWAwvI5Oc9M01SV+ZRu9eCeuajRncu4MhKDJJAznj86YyqSOODwcCpjnb5mSccn2Pb+dRkYK4PUd/XFCCWxNZ3CQAAD5nOMjqP/rV1sJXYWZ9wK4O/kA/5H61xLAbgSM9MFjjIHv+Vd9oKQ6ho0bK2GH+sCnGAfXP8vzrS3MrHJOSg+ZleONW84RvgFTkEYAwKwoNAu5pNkaM6ZZQSfl/z1rpLu0kgvf3XmbGXqRnJ6du3P8AnFb9hCphRSwyB5gkHUtjv3/z9K2hGyucdWfvabHH/wBj6jHEYfLATb8wGAF78f5/lVRdIlijSC4XL8njPy/1r0vy4nUKTwOCARg/kP1HrUDWSSygRIPMIwVUcnjsPxFbqq9mYOkpXZyljomTFAw+VQOh54HPX3/zzWr9jfTkKKWKEYG7ocjBBPrV/TrdYJVVtyyDIYHk4z3H+Bq/cXNpbqpmlSFT68nB4rNu7uaWaViLT57iCJTGSyYwADjaM9q2VkElm0pCxuzna3UH6/r1965ka1aQkDzZWReM7c7j169+1Nl8QWN3ZSW7NNDISDG7DGSO+R9apSV7mM4Il1XUUfUo7OUMscyYVivfHXrxmo9DjUX0gReMEZ65xis7Xb1m0bTTA6XMscm6RlOSuRjB/D/PFXNN1O3huPPnVtroPlVe5/8A1V5maYdzanDqevlmKUYShUdrGl4jtTNYeeoUvC24fTv/AC/Sudvj/amjxXaL8wyNueQMV0DeIIp+DakR/dLPINwUf5NYmnKI7i7sPvqpJQnjIPIrgp05wVpKx6+HqwqLTocbNFgqWB9QT/n/ADirvmhSoB5YY7jj/wCuPT1p+q2n2acgjIBxjvUFu6pDIJGOccKMknrx/KulO6O1pNXReSPzVVhlgP72fmOP8imuzs+47sr2PT2qA3Hq+4njr1HanNOVIUSHk889P69/Wol5kpPYcc7NzAnJOAQBtqWIu4Y7jsx1BwoH9TVYTyNltilMgZ54HelRfNURsMHG4DPOD3/nSaFJk444J3AHnPJH4UuR5ZcvuLZByBknnB5p0YaNVeQ88gKeT0xk596ikbahBOSEBAH+I9eap6IhS10K91P855BbIxjoP85zVAu5bOSeOMcUskheVmA3FvbHH+RUJdgV43MDnBHWqjGxo2kgZzjAPb1/pTRksS2Ad3QjvSZZskgsF6ds09ZAWDMu8cAEdOeMVvGF9Dz8Ti1RjdifaFVSRkM306/5GKUXY2/uyABwPcf16Uy5jzkpu9SDwQP8/wD6qpsSGwcjk4OOKv2aRxxrxqlxrkhV+YMnJAx09fx/xpqXRUcqSmOcn2GPpVRcZHI+UdV44FAYlfvAkdgMmj2aC6LwvPl2qccYAU4FaNlejkOMsOmxc85rn93GejHrzT0kIwSVIJ6U0nH4TGpSp1FqdXHfwgEFB5Y+uMHt+dSf2hbuRsQA4zhfzP8An61zK3jYGB8vfJP86mNxHIoPAYfdOTx9f1rWNZrc4Z4J7xOnjvrSSNAUIYAgbh1xV9TprKoZI/mJwMA8/T8q4zGxgEwRycnrx0oLMJAxJDKOTn+X6VsqiezOKdKcd0dsNP0yYoFIIOSD39e/86hufDcRKmFtu3HBPp3rl0uH8tJDK+31zxjuP0q1FrF3Eu8uuTzyOvGBVqV2ZO9i3caNLCpeMh++e5J7ZrOltzHuBTaUJy4PTP8A+utSHXmYAuFZTgduB24qws1vcJhwA7DJ/wA5oVhu3QwomePYwk+VuSQe/Ixj/Gti0vQy4PXOMZqK8sBJGpjXOASQD0Hfj05qgyy2z4QlCvQjgY9vX/69C0J6nTB1bYcYII+8ef8APJpfnWLDKTjk5PXmse11Bz+7YgfLzg4z0/XNakcpZMjYNx5GRg9v8/StVIlxtsWRyQ29cgbcKSM9sZpAWPzEllAwMkj8vzqMSblAVsY5CqMZ+lOXIfDEYJ25AzjOe3frQRtsPjc8oPmJ5YK3Q4o2gNgHIIyRj+fHpn86ZITGA2wbycHP1HrjFP3Yxhjkc8r+f/6qFfcq/UeuCo+aTpjr/wDXoqOLzRGAs20ZOAy5PX6UVLkr7i5kVEJSUtgMM9QB/nOKkYHGTkrk8AZBIqib634z90YHJ/kM/hTJNST+Bdykc/L9MUnqOzuaiWaTQuc5lK7vu7T9fzxWJd6U/wB+INvHb8j+v51s2d5EYcZ2biAEz16cVbaTCNkDjG4Ht06/z/GpvfY0TscitoY4XncjKNsMecH8O4qpqEKnEiBBng8ZwTxn/Pp7111zZQyyDJUNkbX2nBJ4P9azLvTJlz5bsRnBweoHHrUzjzqxtRq+zlc451AIBHB9Rgfh+tR7XRip28cYB6Vbv7WS2mKyo3JIGR/n0qkN2ATyME4xkiuS1tGe7CaauTAnAxkDH6ev+cUoAypYdR0HH0/GocjOcLg8c9RTw4JXcc4GAc9qXK9jTm0EcfOS3PHHP3fXFdn4HuVe2ubckCRCJPmHGM8cfSuOwRkFgpB59j3rY8I3Kwa8ELjEi7T6ZzWtNpO7OTExvE9Huo9unidXRij9GGc/5P8AntUlkTJsPyov8W09f09ahMLS2D/vGWLGCOu3nP49vyqtY3CoPlkPUDJ6Y6fga6bdEea5e6rG5HAcqcHBH/jvr/n0qVIizpgBtpznkHd9ev5elVoLiOUbAWUgEbwTn6f545q0915cJmmYRYBO4nn2/PP6VE9L3HTXN7pzutNMGAt8iHDM8inBLe+Og5/MVz62zDa6KysvXGOe55P1710UoE6DBDoSPcHjr/nPeoJYxEm4c5PPXIyeK56NRyjdnbXoxhLTyMWZTsZ+ADw3PBPIqGS3Zo127Dtwd2SD1z7+n/662/3Rwk4EkTgKRxyM9qbqWlRWzRC3ut0UqfM/3hz0WtbnLOPLsYURlify2VipbKleoPQY7fWrrrIYipVg+PnU9u+fam+WyDbMu5c4YhsDvx7f/roeYtb+TKRCM7VkZck49T/n8Ka31IauWLeIRW6MOJc7eR90H/8AXTHnayvbad3OF/dluh25459R/WlYMREVcOAONrcZ/wAnp7VBehbi2ZJABnJ4bPPbHvz+tZ1aSnGx1YSu6NRSewniadH8qSNlJkODxyB3z+lc8z52ljwOwOav73lthbTN88YG3I5xyRjv/wDqrODAEryOc/SuCK6M+thNNaE6EuvB+YYPsOv8qlZwzHp6YB5/zzSJGXwg2sepLHpkf5/Sp1iw2GHzeqn/AD6VLjqJzsIEfA4DDGM4x/KrqoFVZfLxtboc9Pf2piKjbWwFwQQOST278dafKxi3qoAbAIC8/wCev8qT0epi5t7DZmQJlOcnnaQPr+HX6VQu5xuPlqVwuBjHQ9f8PxoubjdgFgGboR6fh71nNIzEYPPYnrVRTerHH3UEjHBO5cnrUWVzkKo+vpTCcEKcAHr3I96eGCqC3XPHHp29/pW8V0MK1ZJOUhxCLEztwrY6D+n+NKsSNHuJyeOBxn0/z704Kwbtsxnj361GXYF3OFCseQSPX/69dkI2R81XxEq0+ZlgR/KQxA7rjr0z3/GoZ18987TgDIAGT7D+tQmXcqkOMqpOQe/J/wAPyqGSRgpRt3OQSBj/ADya0UbnOqji9CGRVVyODg46f59KQHnqOB1qSVkaIbQoIOM5zj+f+RUHCtgMDg4B5PfrWLWp6FKrzRuLuLN1xxwfWn544OR2BOKhyS3YnrwKfuO4HhQRjPTFTYvnfQl3ZOXzjoBnp9aeDzjBIGOBUQLAEjIIGQR3H/6uKVVBHA+uKk3i7lpZWxsIO4g5Hc/r+tWIm3qUdVO043HqPT/PtVAfOB8uF56d6njJBJcnIOcZ6VD8jVU1JWNGONJRuWTDZIUDnP61G0Tq+5k+XkqMYx/gM5psG4IR1Oeef5c1qRowcM4AUDluOnr/ADqFiJQepjVy6EleJmibB2/f7Y3cn/Of895mnJyEYYXpzkc/56VqjT4Zo08yHyy/Oehx7fh/M1BJoDhAYpFlAGdpyDj047c10RxVOVk9GebUy6rDbUjivZDHv2nCk7gTt/T/AD0qQzmdSu8B+uc461lXcVxYyNHOjIVB3HGR/h/+qoTdlEUo2AOQD+ldKlfVPQ43FrRqxpyxstw5jYNk4yO9aVpfbWOTh/Qk5H1/WsOC93RujNuccHsAM9fy/p61KAPk2t75Kg4P1702yJLTU6dZ8Rhgw46Dt04zUsEuV6lcjoD1P/6sflWNaXp5jLMEOMYGMj6j39avebk/MxPHUdM/j9P0rVNNWM3G+haZg+5EyFGeg9f8n0pTMRkZ5J59v8/0/GqqyDzMljnI/P8Az/SkM+0Dfzg4OP8AP+cUr9gsXsxDghMjiiqwu5lGEVMD0fjPfrRTTfYV5GA08COQik84Ocjr2zTGvFVmG1geSMe/tVFS2/n5QRjIIBI4pWySAAyqvTJJz+FYpdjTXZHQ2MKXkO9Mrhc8Efp+Yq6ZLmBRuQTRAY287hz/APqrN0KXbbiGTIIfABb+ncfT0FbUTkEM2VOOBwew4/xoTGtNB0Fwk6lk69x/P+tTrtkYIfnYjk5H+cnGaoyqJGChdrkccng/h/nmkS5eBv3qb8ZPB554ofYnyJrrR7W7CCZCwHJIwCB+PFc7qXhNkRnsmYckmN8kjp37/SukS5WT7pwCRuyen49eatRSFgEdQqn7wY5we348H86Tjd6m0K04HlU9vNbMPNidHPy/OM5P/wCqo0kAyOx/nXrVxpttf222WJHXryo6c9T+X+evI6v4Lmh8yaxXdGMfK7dBisnTO+njFuzliWTPTae5+nWpbWZra7gk2DKMuR144qB7WW1kCXMUiN6MvOPx7U1WBU7W5yCOOn5VFrM6edTXqeuWFzJLGrjZ5cgynOc5HPPSsO4v5v7YS0RQmxdshzlc45/D2pnhSY6hZYLbtvyEdT7f59hT7ayNvq995rYcqHj39SSeT716GHtO7e542KTg0l3Ljat9kl3tGkgU8Ip4P/1+etWLvVpNU05RFbKsRVWZmY4PpwKp6fa2lzcT/a5s3BBWKFeSOAe/Yg1Bp0xM0loI2yuVbLAmMccfhn6VjXatbqb0NXzPboaukvI1o3mnYRyFUYwvsP8AH0qWMgeYcZDKU+ZcgnOcgH2z/wDXpbWMRWxUkHPQgZLY5z/n1qREdXBGGYuSCOAf6Z61zWtHQ7ebmeoySFZItyuNpyQO/PXn86oTJsZsbgP4cEgjj/P4GtNZZNgLAKFJGDx34JFUrhAxbe7qi88Y449/wpp3CUbbmWERn3N5qFzwB047/WmXNu0iOEfzFXJBOTgcUgbCuAzFQoIw+Tn1/n+daWi6oum3WYpBtYbDu53KTjGP89Ku/Q5nFXdiGGJmQoAFDdM+vOP8+9QjCtt+UnbxtH+f8itbUIVkuXeMr9mYAqwHUf5PSq1law5VXO3dnnH6Y6dcVbsRqtzIuLNltvPG5Xi5JzwR756msSdShyigbhnHWu+ZC4wvlurIV3ZHzHofr/8Arrj9XsjA7IuWRXLA44ANctanrznt5binb2cn6FKKbZwAMYOcd/8AOc4q3HMXO0cADjLZyOTzWYW2nkAjtn0q7DIAF3ABCOh7n9e+K5Wup60rs0WbeOEAXoCAOPz47j8qqSXPlgkS8DjaOgGfU/hUM12rMOuM8YOe/wD9bpVOa5DcAnB56557VCg3uRsgeRZ5DkZ9MVBI5JG09+nfNNk46j35FMwztgAnjqf6mt0jGdRLcl37OWB27hz6+lMklJJ4UngDcP0zTJCxG0owxxkc1Zt7WZo2JXZu9cHnP65rppxjFczPExuKdSXKtirM8jbNg3MBhhnoM98/hURkcqzFsE8Abt24j/P6VqJYoQA5bf7dRz/+ura28cS/KqnvluDVuquhxRhJ7mJDbTTyElSVx15HT0/z3qaOylRSZpcj0xnFa4zy47dfcH26+n6VBcOpRlRg3AwcnB465/CodWT0L9hG92c7OcSAcALjCikDc5IBYnOSePz/AM9aWeQvOxXkA8YzzUS/L8p6n+Ed/wDOKvfVmil0JMNxkdenGM8f5/OnqvyjuT+OP88VFjjjI7HipFR943Lk9Oc1LNo2Y9R82SPmHQVMp3cnBYdB2981GoBIYqTnnk8VKqjBHOR61nI66Ubh82AcZH9PerKRMzkKp6e/Pv8A54piA4CjJPUn+tXoYpdu5VztB9DWMpWR306Y+GJGBX/lpj72MYwf89q1rKOFbcu4BPQN0xz3rPjti4BAz8oIDc+x/D/Cta3iPlIjDALYJY55I/TpXLN3Ot00kaEJtSfLZhtA5YrjB/8A1UriQ4JCrjpyD1z2/D6flUMUeTnAOOCc9+xz/np+NTxAeY65IbHrxjrWLTREqKYG0R1O+NnUnHI4rOvfD9nOhWMvE4ycRjO7/PFbAlEchR9pbBXcAP5fp+NSy5RNpiXa3HOeOn/161jVnC1mctTCQmrSVzgLvRbyykOEZ9w6p0H1H1qKC72/u5Wfd3U8c/5/Ou+8lJItzoQ68HnIrPudGtbtcTRjcCeQeff866qWN1tJHmVsqtdwdjmw5GGBVQOAFPfj+YPrV+C9KlVZlGATnoepPfpSTeHbmNgbaUSIVwQwIzkcDNUZY5bdwrLIsvPDcc57fhn867oVYy2Z49bDVKb96JtG5+U5YDIw3NNMhCk52f3VYDJ9/wCX51mxXA/hyXyDgjv+P0qw0/KjCk5wwJ/p2rdO+xhZ3sXUmwvKqxyTuLYJ/Cis4TLjjA9ipP8AWiq17onlRnnhg3l4xyB37+9N3Pu+QEgDGDzu5FPHz5ygyPRv8/5FIchi4baGzt6c+pyaxNVZI0dIOJ2VSGIbk5Gf89OtdIg3EHdwMdOc8dM1yOnSoLkcYTgdPX/9ddSkm6E7htOQQecfl+dVbsZ3a0JZcNghj2AA+g7ntTEDMBgLjHbqef8APanjdjcCxXA65IJ9KdFuLEN5Z2jkkds8g/nQ0y1a2pVNuGmwpKAkbcd/TH1qVHlh3AsZF/hcgZqa4MZQA5Vx1J6nHc/560xmUMUbjng+n+eaBX6IuW13FIp28kYz65z157VoeaBGQwZupO7GAf8AP8qxRaIw8wNsYjqrdc/r6VL51xbSqJA0qYC5HUfh6UtNxLValy70mxvQY5lQ7yAAR1+hHIP+e9cZqPgm5jLPaOzKTjY/p2w3+f6V2Vvex3Eg8tguOmcgVcT5yyAYC9pOmaOS+hpGtOnrc8cZ9R0262xmWGcHoMjPvVnUb2/kSPzb13lxksx4wePrXqV/ptneQbSqByOuMD0/PFcbf+DUSRprUytxlUkPA+h/OurD1YUotNamVdzrTT2DwnYT2tgdVRXaeUgIGBIZc8/Q11VzbWoZLpFHmSEeZnv+Hr7/AEqPSF2W1vE67HSMbU2hQCDz/Wr1+zfu0DKFIxkgY/H868yc3KrzM9qEEqKiuhHEpO7ccHrwen1/WnXaZiC8hmYYHofXHvmltZA53uAM8+mOv40twrcfMcjlccHOew6elaNaamEZe9dmfJK6mQKpdcZMZXaePbqc1FNnPnBi8mRndlePerE+4zee5ywP3go47447HP8AKo2YSyFchPMyykHjd2FYJtM65+9G5Rj8sS+aXO/0Axn1H41AJUDAxgh93ykc8fj7VaZggLFPnxgAdvb+f5VWYSCXC8tkMeMj16f5/wANr6nPKKUTZ05I9QiniT99PAocxAclBkHg9ccdPeiBsKhaNiVHAJPzE4/HtWRDDcrcwTWAeO6RiwdCQQR6E9B0rpb02s0sVxJgXUiL9pEQwhOOoHr0P5+tWncwekrFCcqqK2Cpxntjtn8qhkto5I3WRA2ehI/lz9auCJJW4ZliXlcryOT/AD/pTDB52yBeCvQg85J/yf8A9dJ2cbSKleD916nAX1p9iuWjZio7ck8fWoDKfKwBgDrjjr/9etXWZ1uNQkjihyq/JnHf6n6VTTSyEEtxPDCM8gMCRz0rlcLuyR76xUFTTk1cptLwQGHOO/51H805IRMjHzBRkD/OK1R/ZNvLjZJdsOoZcCnPq82xkhhS3UDG1QMgZ7flVRpo5KuYxvpqUV0q+3B3REU5OZHC05bDyWLSTRn2iG7I9yf5UxpXlOXkdgBkFum7/DipdwKExqeQcn19f6/nVOCRwVMZUloiTy4fvAJk8njbn8PxqcBWGPlyQCFOTntiqoyy425AGTnscjAqXogUD6BQMD8D/jTbOaN2TKhOQCFAOcYpnmASE/Lk9O+Tj0poilZBlj0xtxx9PxoaJFcgLg5z349//wBdRozZMQyPsLptck4LZ5P1/X8qz7yQeS5+ZdvAx0Yf5/rWjIQEdQQ2Oef8KydVfbFsXJyBz/n1pwV3qU3ZMxifmO48nipF5XggnGQfaogWYbs8gcVIgG4HOBnGQO2OTXQzKLu7j1wMdFPIznOak4I68EZJx27VEhyMkqMZ4B5FWI4w3Cgse+KzkdVOw9ARjpuA7VchGUGRx6ZPSoYAMLjPUZ7/AKd60be3D7XKsQePl4/pj/JrnnK256lGNtWPhh+baFx1HB5/KrdvEwZgJAFYYbceOvHapIICqqyMAEO3cAMkf/WrUhtQgWRF+Y/e5yB39K5ZSO+GisMhtANnGCFwcY4HerJjAiTL5U4I7YP/AOr/AD6zJsUiMoRzncDwOP8A9VEufKDqvCjgdfp+vpXO2za/VBHG8Ue+LgMdu72659ae6+QBIzYbJO5sAs3f/PtTogG05TtXJOOfbPX/AD/SqV1cIFxIgJIztAzz7/r/AJFN7E3uywrmNZWjdGKHjcOenJ4/zxVhbhbiFchkmA6ENj1qjZSEw+cFTA4H8u/tzVqUGGNBHtOctnGeg9uv+etJ2sDWuo4S+VFlOoIBDdex/wDr/jU6n7SqyFvlxj5hjPuT+H+eaqRlyVbaoIHy54ycdf8APpVmLAi5c5XLNjnHPr2qNkDp9B62ql1DAkZAVW//AF1HNp9ve2wS6iBIyAy9Rx1H6mp0l/cjEZHfp1P+RUgdig+QZJOR1yfr2/z0q41XHU5alFSVmjl73wrdWxSSxkMwJBEQ+8MdvesZ3ZC6PEySdNpXaRjt+X416MsD+YuHY7Bgg9OvT/P6VJcaHa6tH5M8e92OVZfvA+x/E16NHG3dpHi4nLYr3o6M86R1VArOAw4IKqf50V2rfDTz2MsV98jdAwbI/Kiu5V4d/wAP+AeM8PK+qR5ySQCduVAznHUemaMuURhnJOB/+qnRqNwBVyOuc8fT/P51Gzb027fmPIUdf/r/AP1vrV3uBJbSg3Cfw4I6Aj9Px/Wuut33w4LfRicMT2I4964tJHAJ+XcTkE5G38e3+R711mnyFgrHcFIGT2x6frj86a8ybNFlThz8pKj+LscY/nV6EfLj5854IHXP4daqxsBiRcFSuCRjAHvzUkTCWI92XOCB+uMc/wCfpVbi9B0qDdvwSdu0nOG649OabHkkBlVgei+p/wA/zpyyDDIN/wAwxjqM4AqVvLReSQ2CDj056cfSk1Z3BbEkDLAuGHVjt5HPtj/P4U5l2lpA7spORxyB+P8An86gtyHGCW3Nz9B/n+dWsGQ4kUA9OR36Dv1OCfwpSVkPYpSrFI6tkAA/ezj/AD06e9Sia9tFE7bri3P8Q6jHr/nrU06gJllICsAQx+Xn6+9NuoEaGNo5nVdwYgA4LfSp2Qnq9S7a30c6Dyn3kgMEI6D0/U/lV3CSI6su8/dznI+npzgVhRwRSkOQY5kI+bPDH/CpY5ry0MolUSQrxlSPwOKGkwZpy2sDBfKAyDkgZ5PsagljuHiCMrEqOsh5J9ux4qxaXMNxGxRwGXKsp5x9fTof8mrOCyZcZYjnPv8A/WP+e8+zVtjWFacNEzGWQ4AxgZwEIyUH0/Pmh5mUFFVl6ZzznnBzmtO8sUkJ8iQLtU/Iykr+B7VUexRZm+0JcxJ6xrvx1JI6H1qXHQ3hWj9ox5ZnMmGX5Rnkdee/8xULb4Wbby+3apx2I9O/Wtq/jsArMt2iMEKNFLCVY5PBHbNYzXdrAq5mDRqQuFPUe/41Di0dUa8Or0HNbrGqgxjfyQCD7Y5/OqMwPmN5isARzsGQT9fxpZtZs8Py+wceuTnt2xz/AJ7Z0mufvCLeNM8jcw5zgHsP500uphOrF6o2tMtZTKrETNkYOTjaMjnIPT/Pep7/AFOzsZRHNPGSvBVfmbH0rjri9uXDiWcqpyflPGOeKg27egOM53dPzqm7aozc7s6658W2axssVtPKSRneQuffv/kViXXie/ujiMRwLnOE5IGcdetY4VGf5RjaMgDgA9ufy/yKJZV3MARtbHTpjFJybJbfUaHnDNJvO4nls5Jye/8ALpT2dnyWDuT/AHuMH2FV5ZkXA5TuB6/iKcDJIzbcIemNxzj+nWhLqS5PcUOykc4UDOD3PSnFhgDPOD8oH6Hj3P51EIyjjJ+bkjHQ5/lU6xxxsDjIyeSemRUuyEmSQwyl9x4Y8kd/w/D/ADxVtEjRDnB9SRj/AOt2/WqYmd1AIIBx16n8KmX7oYAkvgEE5xnnp+dS731KLcbRO2xYyy9Tx/n+tSSOAnyou0pnjp7j9aht9qh1DEMP7w7cVJInJJ5+Yk/N19ql2TNIt7sjdi8Wc8hfm3HGeec1GFLSjIzu42gZx3/Dp2q01uinlSSvPPGP8/41GqKFJU/e/hKjn1/D/wCvS8jeOvUik3AYJYOeSMcE+/8AhWDrEwbG0HrgjPI4x/QVuzIMtk7mI4GOPSsDVWD3HXLBeSSCPy7dauCXMKa9yxQVlJAxxx0/nmpS+McjBHOOwpnJDYyO3Wj3XkbfXNbMzi7aEirlhhD/ADzVtMghRu5HYdP8iq8KmV8DJx/OtG3s2QqS4ZVBGV/x/Osqkktzsw+rsizbx5g5BMZGOMnBrVhMSyIpwcnj5ccf5zVe2OxE3IQev4Z9Knsz5k3zAvGo+8Rz2/n9K4ZyPZpq2iLzAGWHAwxflumOP/1f5xWlaSFGYkZyCQmM449Kxo1aaVMsEcngcgHP8jW3C4h8zzAM4OOcjHIBx/np+NczZ1JK1hTNlWO07zuK4I+o/pTGm2qQTvUgk56D6U2EBoJc5BZeMNjPPY1FPGzIiDJz90kd/wDIpSteyLukmzXtZIZLNFxlWCqff3x2qjdRJLK4jUOAcnscd/f/AD+FRQTt80SElAcEnue9TzIQHgLkMybcqwJzxyTQ4uybObnbi5RKunOqwyrCUPzZO7k//X4zU80byW7IE3bcbSv8vz4GaSyshbuyviQkZcDjPXpx15PpVhlUFPLVtrdcd/8A6/el00N8PzW97cZDHvQb0xiPaoJwMf5FWI5grbzggAjaBwTn1pwXCOSeWBByPzAFMjGHU8lhngHpx/Ooex0JdGWoXfMa7SoZixYAZGOce9TFd0hKIwC5Jyccnn8/8KhTKsu4bWxyOAM9Bx69BV23iKvlWJ3nLAf5/wA/jWe+xEo21ZcsIQcN1PTHPTvXWaRoyBC0nzKezdgeP6VmaNYtIVdexyqjt6849a7WygMaLxgAFSM9Bn0rvwtJP3mfPZjiLe7FjU0yEIAMqP7ucY/SirRVM/MCG74OP60V3ckuiPn3Wd/+GPkU7mjD7OR7bsZ/X0/P83NuZd3O5SFwfqD/AIU0srHILYZcAEgY+v40juEGeNo6jpk/1Ndl2HoIyqXVSDnqc85/P69a6DTZAYV3lgRxwevQ45rnW27+DgEjJx19619IOY3UHAOOCMH1p3sLY3yQMEY5OeADnuP61Im4KNjBcD6d/wCVV02lNjEMACvHOOn6f59KtRl43ADbl5yATjGPr6fzq7q1idx0YJuEZCNoPDcAd+34frVkDMe1gq5GcdMe9MVcTJLu4YHIP+Pf/wCtVmAqAFbOCRgk5x0+tLcbdlqVmDWzsyyKdrZYHnBz+GKnN3FviJ27mGAAc4Pp+ePzovo1MTMrbSwORnrz/jWakrLc4OSQeNuM/wD16T2C2ljVnVvIJyu5RwGPf/IpC6vCgcbhtBBXIJI6/wAv0pn2iSSJvMOQAOuemamtYVZY1DDjJPHr/wDrqNkJ7kMRIySDsPOMdf8AP+c1ehSR4txZSCMEds9KovEYpJQdi47HIrQ0545VAZyH2gr82M/5/pVdR7EDWSE744zHLxuYDqfcU9b6eOVRPCzRE5EiZP0yPSptmySTcoJcEbQBx9ajdjGchzjHPGAR60N2YIvQXazR74Z1OVyMAfT+VWGBLAjYMcruGODj1/zxWIYgrBkZkbGcZ+Xr6fTFL9vubeMh7cTKfl2qef06Z/yKT3BKzNW6WFlJEa8ABX9enHPfqOB71i3NpCowYQG2/eIGBjnP+fWnPrscSndDKhbgMADjpnrj0rKufEMQIcwsqYwpDDnpzjv3qJLsUr9DN1GGFZG2IO3TBP8A9fA/rWJIM5VQRgddv9f896u32oCWdlEROV+YHH9Pc1lSSM7MVbLZOQAPbrjp06fWpZSdmOmyybmb5dpUN+vb6VE0wZSoQsp5Gfz6/jTHVvOB3E8/w859P6UhVFABO6QkjjkZ9Mev+NJWK6kTSS+Yo2/LtyOTnp1x/nrTmhAO9s45wM44HXA/CjkkpvO3nOM4H8qRxuZicnHQ46du34035BdCqUG0KN3O7kcilMm4MucdPlz0Pf8ADp3/AKUwx+ZIFY7sk9AcGnBQH5DIOBtxnjPv29qVujDqIAzlTGRx1+XHFSpG0gXIQLnJHc0keWIJc5AxjHfoO3vipUXK5bHJ+XPvgfXvmh+Y7roLEmQCg5KnAxUu5SDGucE9vp2qIbifmIXjvjjp6c96kyGCoCdoXDc5zzx/Xj8anyKTZZhfbKA2D6YP3vcfnViPAtwSrK2T1JxUcMaNllOOmML1wcmrixKgO4jAOdmOv/68Vm3fQorLGrR5UDaAeRxilUMmDtB2ZB5Hf1/lTpI/LUocAk8bTx/9fpQU3HamMnjLHipt3N4sqSttJAU4P3sY9a5i/fzLub5h8rYOBjFdNP8AIhJIC4OMt0GOnH1rlJSZLh2YYyckAeuK0p6tjq6JEYyxPQg8+nepIUIIYADn6ZGKEIB7emM1YjXIyep5x3+tat2QU6fM7hDz24zyfQcV0EcX+jx5Ukg53eo+n+FU7C0VpA7ooyeOcYP+NdBHHwQwVx0GOAPbpzXJWnc9TD0OTV7i/YiIvNdF3S9ARkAH1P1/zxTEjTDITyynqec9akO8vHaIighuGA5I5H4dvyq6lrJGSQm5ip5A5P4fSuKUjrpU2pNsrWljJNfpIB8gwR2yK1J4oiNi5VmGCxPUZz6e1Jp9uVG9xwf4QPX/APXWoLZWQsFQA8ncSMY9f8+lRudfMZMiSqFSOIgAcnHXHX6f/rprwtJNjptOFUHGPoK10UIAOgzg4bggfyqzFbIJGZ0UgAZAyFP6f40uhTelmjPay+xxxxjLM/XAyQKlS186YmQ8Yz69B/KrUoMsgVX+UfLz2/T3/SnRssOdrYXIyCP6/wA6mUiYR0Gvbpb24KKCX+Vueehx/T8qpMMyDfIpZeMqTwP8nrV2TY8RDENu9Rz+dUHcm5+YFivBkYZBNTfXQ3hFEmS3IAIVcNjqx9cYpiRhtkig5+8QO/8AhVlihwyHEjr9PbP06fjT1TAy+MpjIz0Oeazm+xd1FEce2MsRg/NtwCccD1/z61t6faK8g3bidoO5ec8//WqlawFiXB/dZ5GOnHUV2Gk2KgEsg3kcE84/Af54zWlKk5s4sZiFTia+mWoWBVUKpxuACnpj9K29u2L5TkDnPTH/ANeoYY1Qr1C5PfJ/Ko724S3gMkkqRpGvOeNvX/GvVjanC58fXqe0lqOluWWVlDnAPYHH86K8e1TxrcPqdw0DZi34UgZBA4ork+sef9fcY80DyZyGUgMCcHGRgntzSZIB2jknI7gnpnNVTcF1kKkhehFN3mQBiWxnPPH/AOuvbuluZp9C08ok3cjcPQ8/h/L8a0tNkAm2bs5B+7zn/PqPSsNZWOEZRt5xg49fyq1pj7b1D0Un8T1/wP60bj3O1C5XaRzjGeDz1/wqaBpcuT1ySMHqM1XiHBGNxxyvXg5z0/z+dTJnzvnAA64/h+tUxF8SAxKc/MD8ueh6kf1/yKdE7LcMFwvG7sQ2en9KqrvO8fox6+1SGRdg4c5IGSQB/n/69Lm0HexeUeaoUDIZfunsOTn06VRubY2nzgfeJBJOPYU+2ufMQJKuAzH5hyOR0BH4VeRHkQJnKk8sSf8APencRUiuE+zqGH7zZjj/AAq1p7JIEBfcdvIVvypHscFlZg+Rw3p04Of88CorN47ab58gfw56A/175oTvqBcu4Wdd2Axxyo/nUNpII5w6jjdgnP8A9fFWZLhslYoizH3BPrn+VKqh0U8lwMngDdxx/n3p7CvpoWpU8xhIiKWY5IbPI6/4Ux0jcnGQOCRgjPA/z6UCRliIKgqF7dun69Ke42jKhuAAAB09/WlZdBkTRqWBLD7oGWHOT6nv0FRmNNoQMAGIPzdc59KsHDquECnO1sdO/UfjT0ASJlk+ZRz04UnoRSs7ArozZrcLHuTkbc84I/z0rBvYo2RuAGHLD1xz/jXR3MTYO3aVBxwNufyrDvgZBwwPUqOPz/nS0sEXqc5cxRrErMpyRngjkZ65H8qzZE+ZWZF2gc44P4itS6cCTOVOzoecfkD/AJ/Csu4ADAY2oTgYGf8AI5qGmWlpcFAmHP056n1P+f8A69RHhGCYGPlOOQP88f5FJGQXkLPgEbfQfT2pJFVwrHIUjcOMZA/z/Opsy2NkVXZm75yRnsP/ANYpHAkRVBO4ckHv05olZQwfjcT0PH5j6GmiUPJIqgbcY5/l7UJPdiFUEyB2wuchgV4z1/z+NK7YQABPmzj0/wA9eKcI8I7ZPyYG0nJ9M+/XnrQiKjAgZABwrZ9ufb/61NsF6gDjIVuV+8QMnp2P4jvT1+Zc/e3dMc/5zxTNvG+MDYOp7H2/U1IpCyMpwMjCk9f1oe2g0ChVzuk5bryfpwanSNXAz8uc/UH8fxpImUsdhyCQMDjp/KrSlQvOMBhjIHp6fl+dR0Lih9s8ac9sHLqc++Mf571fWRdo2gHHbb0/yf51UR1LqAwKdxkf57mnqwWPkfKwxuJzn/PT8KzaRe2g0lnxhMdupXP0P9KWTJicj768gZ6Z9cdqTO/ORxx26j1/OldP3G1SrMDgbRhu/wCvP9Oak0hqZ12zLC5VhgKehHTn/wCvXMhiTlhkH73TP54rob9wLJy7EHONqdgffpnjFc2Np79f/r4/CtKVrMuq9kyaPJK+o9KsRja2AMnqCO1RKpKZ2nk9f6Vct498i8HIwSMelEnZHTQhex0+ixRiEDbjIA/XOT6f5/HoLG2TBJZfm4Y/e4/yP84rn9PWRNrHjeMBmUkcn2/E/jXSQORGxIZlHQ4wT/kCvNqS1PWjT6kosViU5jyCvLYyB/nIotYncEkEBTjJH+fc/jUM94giaOQgl+m3kL7D9fzqBLuVImLKcZPIBx2A/wA/Ss2jpUHHQ0kAjbjaFXG7DcYz1Pb8Pf8ACrbSIh+ZtmRwc4I7/QfT3rHEm9C24qSc5IA/D/63+NSiW4Mhc/MwwFXOT/8AW4z+eKzbLUSYlRIxXOQOp4HPr+dWYrkLIQxJ42kZz6/pz3qr9omdmD4DZPDduO/6Ui/vHQuQoJ4Pc+/t2pO5pa5ZkkjU5UFRj5iRjnOcVE1023AQndzuzwB6/wAqrsivMBNjafvYPJ56n8qQr5cjAHfyMAZycHsam3UqMUTxzs8zMvG35VwP5VGqyM7KVPJ43cbuKmgLznJ4KZO05A49qRhhiuAwK9+o69BioutjSKQeXKEi8zLOTj5TwvqP1BqzFbuUBUhxgnIPWnW0fmucK20A/wAPHpn8x/8Arre07R3cb4xgHgEc8URUptJGNatCmtSXRtO3yRsIgNnQhQB15x0rt7OJIYUIVsLyQCPm7f5x7VV07S0jgX5QD3Pf0rYTaEDKoClc/wD669OhS5VdnymOxXtZNdBshVGYcjA/Lt0+teY/EbxZ5KHTbdzu/wCWpDYKj0PXnn/Oa6rxX4jj0PTnleTfMeEXA6187ahqNxd3m+Vy7sNxxzuyaKsnUfItjy7iSTq0hKhWU9CG/wDrUVWIgY5aQKe4PP8ASihU1/SYud+X4mV5WEYbQQT97kdqd5XzJ12dgOSRWsbeMkMzHBG4Arnv/wDqpUijAd42GPrgD0zXrXYraGQYDIcCP5lGGxk456c1btV23XmCI+ZnjjuOK0BBEUKlMY6N3H+I6/4UYi3Lt3EDgnJx/nvRe+gzftXMiZVQSOT3H4/n+hqcH5dqknI6g8fl+lZto6xoUBfYR1I56/8A1q1I5IlZR95hjAAzuwOoP+etNeZGnQlmlG8cHGRjOMjt/n/9dMbG3kNggszDI6GiRlKkYIBb7x45x/8AWpEGWDbQ2e+RjPb8KbWgWutAziTDE5HB+Tnj09OavWsqo4+QkYxhSPrzVNomYMwXdgY3df8AP41Na2Epcuu8c5BJ4A/pST6DadjUnmUJmEkkgh8Aj/8AUOKrxShpSjJv3jgg859eamhspkIyAVIOR6j8eCOlOktjAjSMSFToydeOvT/PFCdnboGliJo3hnf5+P4cnA7c49etWxP+72ybmGzBZj1yefX3qZYrWeFFcBm24JJ5B6/QVnoANsIkMm3nLDp7j8z3p+ordCykhYfO+fY9xjqPyzWjbFhGQQQOfofb8gKx7Yq7yxHPynu3DcnH41tRkLEMK30B6Yz/AJxTs2roPJjWSQxpIoy4OQNvB/HHTrTpB5kW5gBjqcden/16lPyB1+ZeNofpz6f5/rRJDIkKgN8wOCRjjjv+dC1F6mXOGThd+3Izgg5565+hrAugBIGO5ixzn8c4/CugvDsXy8Hk9FGQM1gXcbbzgfKVI3Hpx/8AWoeo+lzn7s4DOXAxjjPQ989/SsW7AViwG3A+UD1PtW1chTGSFAAxgkkZI45/KsuUsQ2VGMZG3n69PasZGq7lMk/KflJJwex9jipMtt+VS20k88YPvmmgZdsjI/2unXp/+qkLKrEKWXcCAMj8+v8AnNTYNWxrqQxKv82MgjGPrTkdfL2jBIHpkn3wP880SOzOPmbPIHGP/wBfQUkRLBtpOScDjPX2/n9aL3De2o7AkYEHDZ5+uP8APFN2rtOXQEAnr0HTv9P1p7sBjjHzAYwDg/8A16Y+FlCkjnt2J9f5ev8ASqWo1YcQQBhiBngdj6Y79KmRlVlyPn9AevPtz0qFSpdflAGTnPQ9eM+lTE53EMEXG3O76Yzz+X6Ur6WDfYeuSpKbgoIUEev8s81YbcrhSpYNwR178/l/ntUK/KDnJDfxYwFGKc75w5fGDzxz3xx6VMtS0WlbczGPPqSRjv8A4fzpvDMSCAoXncPf9KYjhGyXcheDxzj344z2/rUiFduORgdhkdPaoehUW09CSLPmsEVt3c46d+p7VJKpAYZyuOQCOBjFLAhDlieM5z0K+2aJFY7jIAEIJzxz6n68/rWZadzD1r93akkMrO5OGOKwsDnp8vuOlbOvOSUUkEcHjofw/OslArYXpnr7VtDSOprytyJolCsSRkZ/KtbTVEtwFA3dzxzxWZFFlhtC8kY49f5V0+m2TBSckE/Nkkc/41hWnY9TDQsrnQWtukkKLj5M4IVTz7fy4q69oYcnaWUe/Qf1/nVOzDW3lqrLnn5s9+3pn1+tT287zoWf5j78ZOe3+NebN3bZ6cI6aDXtIiwlYnJYks3Qf554qXNu8jIDlQQxDNilaImCORzuYY3HAyDn/wCuaZ9lBbJAzwe/XHQ57dqXMlubJaC7raAEqG3Yy2c+vt/k0638szRkMQgOcnP+P+cUnkMUOEBDcDjnHf8AOnLC65jJOCOp5K/n1xxSclY0UdC+THExZyTsAA9R9e/eopke4gLBgpBI+XA49KRYHZ1MzbsqTgd8d81bOY22oiDBB+9j689zzU8yWwnAzIrdvlUYKYORj6DBz9BVvyVdjuTGRwQ3sakjQM7Mqded3UZ7nNKPNMgUkHAwccf57VlKepafVEckcmeQCR/COv8A9fmp47WSZ12twW6lcn2qWHT5G+VVVmXI+7z+JrodM0dgN2OW68YOMdhTpwctEYVsRGmr32INK0cOwjZOB149q7Sxs0gUjaTnjBBy2f8A9XSn2lnHbhQy5Cjnj+v+elXwgBBAx6DA/H/PtXq0cMo6yPl8bjpVXpsIobcysOo4A6daz9V1K302xknmlVUjBOTjH/1s1auJ1t0MjuBtPG4Y5+teGePfGf8AaN3Jp1u/7pGOSD9/qMnv/kVVWatyx3PLeph+LvFEviHUnbzG2Idsaddp+v5VzM0ioONod+5+vT9ailn3E7iq54Ayc/hz/n+cabpW3PyS2VJP1/z+FEKaS1GgMc0hLlocnk5T/wCyopwhkwNqIFxxnP8AhRWl7E+0itNS0JljzlwRyBgdR7fmaa05DfKBjHXI/H+fbuarthWBCZUDnkkdPUfhUm4BY96kzA4GcDGDXZs9Rp9Ry3A3ErgoCMY7D1yD9KeZiZBlcndgKc/5/CoSWAwR0545/A0u5RGQrAqD97qQf602kLzN7T3V413N83cYxz61sMcYG7BI+6T1Hv8A59a53S5Rt2P+RwOuP8+tb8L7RtI4245PU/yppEt20Q9V2qzKzD+HJA5Ppgfj0p6n5ycZI6qPy/LrximZ+XAZjxuG4dOTznv1pBI+TlWJBGM9f89aprqCvcsHekaIrBwzYbH0rR0dmuJWQvhFGCW6c++P0qpDam4lSST5UAxhOvXI69e9b1sFhhIA+QHOe5JwccUrhdFmOIBNp6L8mQvBPp+Rqu1qpExQDIPA9u4/rU6soX5SqnI656+lMIwihZCGyCcp19aY0UJ1FvbvIQxMhGFXoM8fhXPvP5TcuUzkenX6/h+tb2vS8RqJCGx0B54GSeK5KaVGuQWHzBiSQc5yOPwpNW1DW5csrqayuk37dgPOckEe/vXaQXKvCr5LJ/vY25/HnrXnbSMojKYLdd2eR/n/AD2rrdIuQ8A7HAyTwSc9c9qUHrZg11OilEeBuU8tkfz/AMKWTiOQ5ckdSQT9Mc1EshMcZQgbDjDEfqfpU82FTB3EDrtAJGOn04/rVtdybL5mNdIWlY8ADgqDz+fr1NYl982doAXk5b7wPv39/wDCt7UNyy8HcnuByPTp61zmozSbGNum7GM5bGP65H+eKm1hrUxbtMxdSGHX+EgVgzHLMADx/e7Vv3eHgLY4YDHPTFYs6ktgKhODux1PY/UVnJlx9SEEITluhO3aM9uvPTio5SB8pAUH36DPr+f5VIGUMqjg8/dHT2/z60kgw+HXaM4yPbvUrYu9kRMu87t20ADOcYPNHMQwuAOzAce/6VOGZsfeUZHI6gH/AD2pkmI1Lchenpzz/wDX/wAmgWuwwNjBCknr7ZPU4/CkZELtnJfqFPX8M0jsyKCh+bOQxXI+v501enAGB938h1oSHfS5IhDMGAK8cjj8O3H/ANanbg33dzAHBPY+gHv9aWLDHcBgY6jH+f8AJp+dnAfqRggn8/0/zilsw9RUPJ3FiuMk9fyxU2CCCUyigHjoMegx6d6jLgkFQpHHK9Of/wBf86exYL8n3mPzHs1LWw0x6gI23rk7R0I4xjPt1qZTgtk9uAx5NV48bDjoQehJ/Kp1cErgLgYU7STgjtz71LVy0+hct5AsRVlYEnJBbpzjOf8AP9KUnriNmzkH5u/sKjU4jUBgBnH3s9BxU8KrvIAwARgY4OKxlpqXTet0cnrUmdQxgMEGDnjjuDVKPkKuDjJ/OrWqhpNSlwO55Hb602CNiyn5dx5rduyVzqpR5paGvpNoZLgrgc4+9Xaw2qRplnTIzt4/x6isXRdOmQGQg8ngDufX19K6uGFogcKMfK2Mdh/XvXlVqjcj26KSskIIU8os0e09DjAySR0/LtioJ4WiPyN8u4kYJ5Pv/ntWqIC0TKMFlwcg88VAI2XBZMYI6VztrZaHXAqRSPcBs+5Ofr/KrKxwquMbmzhenPXt/npUqwgAMgXYOnA5ODSiAnq3oSV56VLeuprddCEs0jqRkYwMnjH5/wCcVN5YeNnxyB6fn+Gakhs2aMqyE4OMkdqux6bLvL4J46DoV/x/xqVcn2kI9TOfIYowZSykemOxoWLDgY5UbiSev4f561rLpRcH7/LBee/p/wDrrTtdDZ2ZZB83UEL0/lVKnJmU8VTitTAt7BWOAr/OeCB0Ofatm30JpTtfao67Rk/j/n3rfttLSELvC4HQKRwf8/yrXtrOOMqcHJ64AI6/5/zmuqnhddTy8RmbXwGRZaGkJVdgb1yeT+P5fhW7bWvkBSq7sfd47dv51MkaYYlAARz1Hfnn86UhvLCnIJ6bT0/zj1rup0Yx0PErYqVR6seeEG8qCew5+tQyzDcVZh0zg+lMnnRFZi/zbfvFxjj/AD+teVeOPiItuHsdPfc7ZDyf3fp29qVWo4e6tzlD4i+OoraF9NsXzKy4kIbp1yM/j+leLTTGeUs3G7tz+P1/+tUlzeGeUyM4fnJJPzEe/wCv61VGZGAHPHAxyBSpw5dXuNu+g1YizY+UcEEdxz7mtJEYIU7EYyR35/x/nTIgIoGkJXdj2/z2prSIFMzttGMhS2D9f8+laPXQSbLawxyKGKKxPc0Vmvral2xAWGeu4UVPLUI5n3HsCHUByIl4IPb/ACD+tSZwEyuBn5j2zj/GmDO0E854yOmO3+fyqQk4xnBJJ27unWu40bEKlScksoXcWP8An68U3JUhlIP+6c4z/wDrNSY8sjJCrg5xyST/APqpeUYr5bFgRxgAe306H8qNthXRZsC0c7LjgjAwM4549/yrfgEiwq+SOc4U9vp+n/665mJlWTLAfnxxW/ZymZF2yDAzkYyTgU0+gmtS/CGJHmq/+0OnpSBmdzGrBuhJyM//AFuPWmNlQFQMy464HXt/n/CnqCzeYrbT2HYf1/z+V31JXc3tOkP2SF9pBJO0YyCeM8/pV+2kRpBHuKYClUK5H0/z61FpBt49NDPEWdjhFRgFHPU/59KsL5FrqMv2cRNFKOVc/dPXg/pS3WhVmnoKfM8tVdVX0OOB/kGp4ImSbzZCMbeMjnGe3pVhdhDkNlgxG05/z9aRpP3YZkwjHhgO/wDn1prsHQ5LX5TJfxQAlyBuJ78cVzrokQKvlmLcgHqfWtjU2QeJCyITEuRkHg/X/PFZcrN9qLnbtB78d+tS2BGEDScsMlgPr161sabK0Uu5idq8YzwPTr1//XWTH+9mBOGA78ev/wBb+VXYt6ryHG3B7ZxnOM0vQLOx2kcq3GGycnPBbPP51ejOUQP94nsR19D+VYWmT7IwpXC5GBu5HHQVsxEFeZcx9iADkj3/ABq7XE9rGfdMWkIlJVx3PAAHX+lYV0SpkUlVwf7vU/5z/kV0Fwiyuyoh3A9DgY49K52dnExJBIbGSMnH1/z3pD32Mi+UYbA4wOgxj61jTMo5JLFs7u2fTB+grWu9rKxyvDDB6gD2rIvCyQlAAT1C+2fTH8vSs5diktrFTG2UMWGOuccf56f5xSyEk8FsEcZ+uP8AP0NIFbeN2Gj3YyR7cZ9qbKwMqhX743MBg/Tv+H+FQkyrj2ClgpyEIGMEfl/Ko3/eRk7wBjntj/61PVgQQCOMcE4B5/wpGKlgSQw6t1JHoRmlYCFl2yHcNpPy8+npntSrkNt3EKACPTP+FJuAOV3KvP3j+P8ASlUgEsXUrt+Uen+etO3QLdBRgIFz17j/AD/n+Uvyyc9j2yOMD0/z+tQoxOSN24ZzzgA+uKliwu75RhQPmAH+f8mhpD8h6/IoG0Ec59Bz/n9anChgWyRgcjBHc1EC2MqQwyM56nj6f5xQjfefYCQCST2P0pNDvoSbChVs4wTgj8eP8/8A16mVcNgKOcAEjJznnkce1QoQSXBKgnk4x168HrxUvmFtvyZC9VHTj/Dr+FJp3sxq/QsxMwYLu5C7geox+nvVyICO2dgMsoyQfXBH4f8A16yg79DnII53D+eas/a1itJTkZA4OM5H+T+tZyVhxdmYTxM92zttILEDj7x/rgYroND0U3M6bQTJkfw59+cf56VgW5d5RhdpJ5P9Me9eqeDLCOTD7MYAOMZB9/8A69YVW9jWFZx1Rs6foA+ykFSJBgncvB781fOlRkBgHbrz17/5+tdHaQKY8KgZQM9Tzx6VdW3iyqBQitwMnk/hUezTOmONlHqcfcaW3lfInHYKCBjp/jVf+w5ZJCpjxkZ4BPv/AI967tbKMHHynjnIzxj/AOufypfJGQUjKgEKRj6c1Lw6expHMpLRHGwaEzHAUgADAUHAP0+laEGg7GCbW80nsoxXUrCpIAQEA8ccGljQqjL1P8WB9447j8accNHqQ8ymzAg0VYwSyLjOCB2z+HWrw0lNoBQ/L6dz+VauC0fzAM2SevH8+KkUZG7aFX16ccVqqMUc8sbVfUzV05VwAqgHBwy5578VZhtAQdx54wMVYwSp6dfl5yPzpEkQgEZ2+/AHpVqmlsYSrzkLsXYrSLkHIPqf84p5KEYLZDHGFNQ+eA+Tyw4xz2/r0qtd6jBAFdm2IMcscAetU5Rg9TFSuy0x2sTyFBzyOQffpWfqOsWunIZbmZY41yCc/wCe1cL4k+KVjpreRYYnmX5SwYhV/Edenb/61eR694q1HWbkzXM7YY/Ig6A+mKxc5T+EXOdj4s+I1zfM9rYyvHHghnXkt1+lecTXDzE/M2XHBfOQf8/zqPh3O9lxgEg8nvx7dqlV8JIxHlxnA25Gccd/enCmkxIj+zhjtVgfU9uvIqWVorGLAQAnsf5/5zVWW8dxtiDYXAxnn3z+FVJWZuHLJuGeSeK6IU77jHTXxMocoGI5yDx/Wq7Tyzbt5z7g8Djj6VGQEDbhgsMjA7fjSKMLsO4nkADnB/P61sopC2BSgUBt+R12sAKKQqxOQyD6j/61FPluNqV/6/yN9QCxUKo4GQARnv79qahwSSwIHOQBkd/607ywSuE2k/3QcEfTp/8AqpY1y+8ncTkDPzccf/X4oY7oVcEMFPypgAk8A+5PpzSrgDIyxPBwP896VA2DtZiuTj298Hr9PanIrIRy2e5z170dAfkMlynzEsoYjIJyBn2p8NxJZyDYGCk5A75HP+PShQXJO3KgccYwcfn61VMPzEg+Yu7scf5//V9Ka3FY6e01BLnq4PTcCRz+ZrS3E5cDOG4OB6HpXCxCcSfuCxfPygLk89Pb/wDXXWWX2qO1zcjDgYVQeSeeo/KqTV9ROJ09od9lE4dABIc5br+da8MNstuGaaN3dvMwxwqjP/oX09qyNLUS2pJZznkg5Gfr/kVagcBHX5ckkAduf65/nTTvoHXU3LcbYgVfliPunj3HH41BCSZbgEBcBduck4/yfzptlJmPcu0p904OQff+fPvUU13FBecouSMNheR6En8P1p9BLU53UhGuuSyMo2k44A4+maxblSs7xMpR1bILHkfQVu6k/wBp1Atnbvx8xHHTn+XeqGs2Usdta3LJh50O5T2ZTj+X1qb9QdnuZUCkzlDgE8cHr75/z+FbTwkwo/KKF4PTHt71hWgfzTuHPGc8nGBn8P8A63Wujjd/sqgMHUglcgg9eg4qXqx7ktmWiYxsCm3DAnjn/P8AWuksnPlnjqcAAcnp7e345rkY3j8xCrsM9iePpya6TTZiycEDPB3dB/nNWn0F0FvFwsqeXyTgvjjHr/KuduoJZfMUMQoJG4fxH+eceldNcbHUFCyMBgdx+tc9foyF9rEuCMc5xmjUTMK+kMaDAUPj0yAP896xLkOjeWXwCMAY5+ta98obBC4AOM+g44z/AJ/xx7hfLVWQkDB2+gB5GR7k1m1ctWIzuXap439AeN2B/wDW/wA5pjsG2Osm5uhDHHenXDNMoUgHYBjHBHGD/KoG+WMBckAEjPP4c/55qbK5e6JACQpbdn+J8baaY23KOOcd/bP50bw3JO1cccDjv/X9KZuwyYA3Hn+vTgjtQritoIW8sru65yCcbRx+XpTPNDAlzgZzg9PyzScwoSfXBx39DikUZZmJRieSBjHGfyqtLBfTUfDsYxnnHU/4/wA6lYDcCXC46hv8+tNjCwwgPgEn1p6yr5gbaQMDA6D9Pc1Nwu2ORfN3IOSeAevOfTP4VOHj3KVIGOilevt/OqqgowZdzY5wW/I9/U/nTpCG7gDBwMZzjnP+fek1dg4kyOXCggEYzwO36f5FPRhvZieR79Dx/wDXqA7sIyjPPLDv7gfj+tOWRQpfbhRknJBpOzK7iyvhjlAMcZPOBnv+X61U1W7McLJyGY9T257d+w/Opp9pg+6VyD07kf5FY+pyCRsFgduSMZ/xp72JnK2iEsb9oJtzk4zu9ea9h8E+JNNS2ULcJuzghzzj0Iz/AJ9q8QzleQPz/wA+1OR2iG5WYcnkHB+v61FXDxnr1I5nsfW9lqMDx+Ykm4eoHbjt+A6Vp293HsyCHBGeSCR+f0FfJ9j4s1jTZ/MiuXIH8JOQf8k12Ol/GC9gYC8haTrkq/6/Wud0q8NtUUmfRan58BlHfOfT/wDX2p0citITnOG+Y9e3FeN2PxjspF3SK6FhjkZx71u2/wAU9Cl2gXKqQMgNzu/ClGc9pRJ5tbHpCy7GwWPGeduCOP6cULMudoXbjGDngdu34cVw8fxH0RkCm+QADIBIzgf/AFqryfE/QLZf+Pt5HRcAKpI9+3+eabqO+wJo9CWUAsM9sYA/z+uKa0uZCBhXA6nvgjsPrXlF58ZtLA220MrKONwHGMetc9qHxemmLi2hCIw43njjtjrQ5T6Id7HuZvY4UBd9u4449Pb2rC1Txdpelw7p7qLcDkjnJHfA/Cvn/UPiFq99uAuSgYglUbG32/z61hT6rNdHM1xI6kjhew/+v9KXs60nqTvsew6v8YIYwV0+IzN90M3yg15/rXjfV9XdzPKoQ/dji4A/zwa5hr2BSGXLkjq3GD/kVCL3apARc547/wD160WHT1YraF9riV1ZTkckjAwPX0+lQKiAMZ3VM9QPX3qk93K56lGB6/pioywUdcN69McVrGkWX2u4YECQIDkdT3/MfT8qge6klUMWCjrjJIPr/wDrquo2kANnnOR/nnpS7ycjLn0x3/zmtFBIFZksbhjxgA55zyTU5bem/ggnAJ/l+lUwXRgobb1HTr6f57VLHGxxtO4/d2quc/5xVNoGI6AHsCO2OnvUPluOuO+Ocf19jWhHp9xN8xhdVwMY46dv5U8aReMvyQMSW6Ecjt9aVxpMzFkYKB5wUenPH6UVrDw7e45hTP4n9aKLN9A5n2Li5ZwpA3dSf8KAUMJK7trH6d8dj7UUULYUddfMk2r5McuOGwB6jB5/l/8Aqo2YdscB1GR/wIiiiiLvG45K0WxVjZgOhBI7kD05Hfg10GleFBep51xOAu1Wwg56+/1ooobs0S97Gw+hW9nEPIVVbBCPjn3zWfcR+WrM3A27mC9OvOPzooqo66F8qaL+jTL5Iiwcpzu9R/n61t3dmbbZM7HYw3KEbkj0Of8APJooq4bv+u5je7aIILp4mK9BtOzb+PWm3ReSWTcRwpBAHB6/5zRRTW9h3fLczb/zRHDMjg84bd1JOc1sR2MWo2MsdzLKRboZIlUALyBkH1oooik3bzB9jn59JiEbSxNgrubDDjge1alswk0lFKDJxgnk/wCelFFZvqOWjsZiDEmVwMNzwOcVt6WXEKlTwcY5/L+Qoopx3YLXVmpMqJuBBJBx+WB/WsfUYsE/O3HDHuRRRTfxJErc5e+dl3RrjYHIw3POTn8KwrmVWBwG4IByepJx/hRRUy6/11NbaJ9ynG29yT06Yx6n/wCtQ74BBJPHA9KKKhK8mhydtRkjmGJQxZt44wcdf8mnTTLCVjx0GGwPvZ55ooq0k7JmrirpDG3GMMOOpPP+fah49+1ckZJPH+ff9KKKzbM7J2H7COD1LbMgnrn/AOvSkscq3ODj6H2/HPeiinfWxCd7jomPzMmVwQPX3/yaUNtkCnPB5574BoopqKcrFOTSuTiHJd2CkEA59vp+FRMMQswPyYzj8CcUUVmnuQ3Zv5FWSc+XLIjEMmGJIz2rFm+d/oM+nGKKK02ZVRWGIxKlQeCRn3oRd+4g4QfnRRWlv6+ZDXQVgdgcnjGQAP8APtSqpPp3ye9FFT/wSojzHiTaTncev1Gf607ySvzBiCDjjuOlFFOWxKeohGGzluDg89fSkViiHB2rxnAz/OiiptohpXdhrPtZs/MF657099yqX44AB9cEdB+VFFLqglvYiGzryOgGKcybJCAB0zzzxRRVS0diUxpIUBtv3uBT4g0kiKm1SehxiiiixctLmlHolxMUIljGemc98e1W18Nnyy8tz8oGcKM5/Oiis4tt2NYpMuL4eskAYy3MgK/3wuRkj0PqatJo+nAArYKSVLbnncnOD+HaiirasKXwXLcel2gYbbaEBuPuDPTuT1q99lSBfM2qqBeFQY6e/pRRSiDVpW8iYWmMhz0Gcj3/ACqzHZRu6rjrzj1wOKKKlPRky0krFiHRoZ4UlYJuYZOUz+tFFFNzdzjlVkm0f//Z;" vertex="1" parent="1">
          <mxGeometry x="140" y="240" width="160" height="100" as="geometry" />
        </mxCell>
        <mxCell id="45X9PmNRLV-VkTAyh2oA-40" value="" style="shape=image;verticalLabelPosition=bottom;labelBackgroundColor=default;verticalAlign=top;imageAspect=0;image=data:image/jpeg,/9j/4AAQSkZJRgABAQAAAQABAAD/2wBDAAgGBgcGBQgHBwcJCQgKDBQNDAsLDBkSEw8UHRofHh0aHBwgJC4nICIsIxwcKDcpLDAxNDQ0Hyc5PTgyPC4zNDL/2wBDAQkJCQwLDBgNDRgyIRwhMjIyMjIyMjIyMjIyMjIyMjIyMjIyMjIyMjIyMjIyMjIyMjIyMjIyMjIyMjIyMjIyMjL/wAARCAE0Ac4DASIAAhEBAxEB/8QAHwAAAQUBAQEBAQEAAAAAAAAAAAECAwQFBgcICQoL/8QAtRAAAgEDAwIEAwUFBAQAAAF9AQIDAAQRBRIhMUEGE1FhByJxFDKBkaEII0KxwRVS0fAkM2JyggkKFhcYGRolJicoKSo0NTY3ODk6Q0RFRkdISUpTVFVWV1hZWmNkZWZnaGlqc3R1dnd4eXqDhIWGh4iJipKTlJWWl5iZmqKjpKWmp6ipqrKztLW2t7i5usLDxMXGx8jJytLT1NXW19jZ2uHi4+Tl5ufo6erx8vP09fb3+Pn6/8QAHwEAAwEBAQEBAQEBAQAAAAAAAAECAwQFBgcICQoL/8QAtREAAgECBAQDBAcFBAQAAQJ3AAECAxEEBSExBhJBUQdhcRMiMoEIFEKRobHBCSMzUvAVYnLRChYkNOEl8RcYGRomJygpKjU2Nzg5OkNERUZHSElKU1RVVldYWVpjZGVmZ2hpanN0dXZ3eHl6goOEhYaHiImKkpOUlZaXmJmaoqOkpaanqKmqsrO0tba3uLm6wsPExcbHyMnK0tPU1dbX2Nna4uPk5ebn6Onq8vP09fb3+Pn6/9oADAMBAAIRAxEAPwCw9u5JdVC9ue+QKFh3KeVCNx1yvbr3q555AADH/Z9cf15x+VNd1OVznJ5xk8ZrXkVrXJ5u5V+yliF5AxwD0P1P601rXCAISwBJJB7/AKf5zVozsTuyTxhhkdPw600yKAQyrjnIGOT+Xek6b6jTuVjasQTGMhgccDPrUZskZmPJB77fcf4D/Jq7JNtXJGATt6+tReaMsiknnPHOD/L2qVGyAqG0yu0BQ27oTxj39ulMeybdhNp3HP0P1/z+lWjJl/lbL5xn/PU015lBBw3PQDoAcc0uTsPmsVhb5bCkAHrjt+P+elI1q5YYY8YHB69e341MblSGynz88YP8vSgz8DODg8ZJIB46+/WpcRuT6FZbQ5wCf9oA4U9vpT/sRU5ztA988cfl0FSrcxjaQCFHv1GaDKVJOd5JOMjk/wCNHLqO76EKWr7w6lcdyM+nXpThbnHDNsBIyRx+P5VMbhty52soOflH6UqXirgKcIFz04HH880uQXNqQC1LIDggj36Hk0wWJAG0tk9TwSfXp05qyZ0Lgk985DEZH+c0PcrjI4GOf8/j+lNQvoPmZE9iUIJY4K5wAfw+n+fSgWp8s7juGDlRjBBH19qmF1z3BDZJbnr098f4U77UoZpMIBycdj/jzStpqF21Yg8gMnzMMAY4GQaT7G785+c9gcj/ADmpRcxqzABsDqACfXnFPNxtBTqOACnOe3ahRFcrG2YJnJ87duwF9qeLIgFuThhtwev6Y96klk2hSr4fHToPTp+dDzIecgsoIB/Ln/69PkTHdkbWcmMhVGMjHTv/ACo+zyDJYDd2Hv8A5NTLMygbSQeDjOMce/8A9ak+0rFErEFjz1zjHbvS5EK9yH7MQNpBCAjkf5+tH2Q9SPlUfMM5wevbv0qYXRf5WL4IPIHf6UvncYDHrliR2pqCE20RNESSAG2jJ55zk9/yzTfshjZTszzzjjH+eO3Y1d+0kneoBJAAUN+nP+famecFZflIIzgkf/qpWQ1dlVLV+hbaxwSDx/nrSx2xJzuAU9iDgVObsMC24EZ+6SQMdjQ1woCgqpUnPQcDjt3PNPlB33K62ztkFV46BR933FH2LK4KDcOjYz27n2qdroHIdgcA5ye1OE6MVVsEEdfT/OaHDyDm7FUWvDKTggDgDA7/AI9f6UfZGLsSfmGTnjIH/wBbNWY5t+7jKgA4ye/tQJRyhCZI4GM5z2H+fSjlsF9ysLUtiPbxjIPBHrn+lKLU5O5SOnA4H4/pVkTE8kEY4/DPvTjLucAkFuuR0Pv+tDiLm01Kq27dxyGO4kZyaatsVOwMxJ4Kn2HarLXIAJGQoPPGPpjPfgUqSAnIcjA2574NDjoO76lYwS78Ed85Ixzjtj/PFBtiqgMDu7ZPLfTH41bMm4AAENyWGAcd+etRiZc4GTnCD8qfIFyE2zxnaxPBPXoBjGfenGF0Y5B2YwM8j2FTb843KSCP8/56UB8SLg544zxjOO9HIF+5WFuzKhCgZAGdx46+/P8A9elNsRJxkeuehPp7/hVlZlHCg8Entz6H17ihplDZ3AheeB06cn0OKSggumVmttyEgbeCQAe/0o+yk7Y8gxjng5GPy9f5VdMqHKkgHqD7cZP5fypwlXP+sXI5B7Lxx19f607aBdlAxMJABgMvcDIPp/n1+lRFcFRvLbScHODjn/D/APVWkcZzuUFjweB19+n+c1XkRUhcbWwOvOB09e3/ANapkgT7FMqWYZBHPQjjOM9PXpSCJ/Myu3J6KTjt7VJtIGDlnJ6kH889+uaSNjncNh6ZbGOcf4f0qVtoNXABl+QjOCScDjtz+VNRv4sjjOM8jHFOErfOyY3McY/oKTjdtY/MScE9P89qew1vqP2bc8r3GQOB60sbhmClflxyMdB2pC25GO7aSRnpz3P+fakVcFM5J3DIx075pW7hsh4G0oM/MR83qc9/8/8A16ajsrZ2kN0YkcL0/oaUZwEKja3sOn+R0P8AjQqnG1HXgkncf8+35U0+4twfJckr86jnHf8AH/PXiliY5+9tbB69Rz0/z7UmEQqxc/d24Y9B/h0pSGSPb9188lOv8/enpYemlzY+zgKdxXPXIOT9aje3KhsY2Fc89Pb8e1WhPtIyy8dOM1HvTllOVzxjnsa7DBJ2ImgbzTyuX4KhccU1owFZgvBPUd/z/wAipFdVUl+W6fd9ulKJN6sQVJ3Z3eh/D8al6ISbTIDatgqVODxjjpz/AIVFLb9WVvlPUE5BP+RVgPhTt5IGM+/HJx/n+jN6oASCM859TS13KTIPsgZANxJ7A9vwzUT2rFWZyA+SMY4x/nvVgSZXO1G6/Nk5OP8A6/v+VNMq7s7gFYjkc56df8ipd0MrvaDJDE785Bzz9R+FM+zN5m0MHzznnBP17d/xqZpRGrggZZRkcYzjJ96Q3EZQEEMByW6Y5OP61DKbfQZ9nAAXcNob7vYeuCP88ULbmMjDdF+9/Ecf/Wp3mKY8EBecAgdD9D+FOaQLJkFMY7Dv1/Dg0tEJXI1tiDvZht6dsenX8qR7XbkqPlOclTk/UZqUSKgBChfbAJ9+v0oE2WPBJzjcfT3prXUNERC1bIxggDqf89eTTvswBG5xtXqCeTz9PftTzOhQYIYN0yc47HoM9qSS5y248ZOSRknOPT06dKaV9B3behGbcKgB3ccdsU4WfzYZQRxtwOPcH8+v0p4lTzAkhGQeQfbqaPNTBY7SvcgZP1/lSe9g22IzZ7yjsvA+Uk9wcdM0Lasx3cFUGGyT0x3/ADqVZViTG/IA69ce/wDL/wCvTfMDOCeM9R+dF+w1qNMLNHkk5DZ2gf5NKIGH8S4PByR1NPkmK4IAI7bU5PpxTklUIFwAvXJ5z29eOlGlrsTK4ti8q43cAH7uO9ONsytvT7/cZI5IH50/zdzkqMAHsOv1/wD1UolVOoAGe2cn1/pT03E0kMFvkElg2e7DoPY/56UjwOrCMsWU4wOnH5c//Wp/ngxAqCp5VuTjBHT1/wAmlaUMq7shv9sDP+f880khpPYjNrjDBtq92J/z7flSrZMQuSNvJHI/zj/61SmWPaxVQVOcsRk5/wA/57UF0DOFz0yxOf8AOaL9AunoMayU5yODkYHPH+NJ9mXdkMAAMkAdR6fz49qlEiAgPgbx0yeCfb8aTz48Lt+93GM80b7koi+ybBz0AJIIHftj8RTnhD7hvbcTyQPl/wA/4VIs0ZwTtbZznjOPT/PrTTMuPLO7rnpkYPIwMUX1KsMa3ZUYNkeuB3/yKGtSBt3KD0AA6/gf88fWniVVj3YyDyFz0PPf/PalWUEkFQTjHA4xmnbQTsR/Z3DSISS2MAryc8dfagW+GVgVAHdR/wDX61KHjYuHXAHGVPNRxzAuQojK9+vB7/zosHQPszEEB2XacAYznr3/ACpnkcs3QZzyOp56/hViQqB8oI7nBJApHm5JLKCQSMH05pbib7ESQHav3iE5LYNHlSDn5WbOQQMkfUU8yo0hJK+7YOBSiQlh8w64+Y56/h9Kr1H5jGttxTaoOPTnim+UCNvVwME4OSP88VN5oYLtwxJy2B178fXGP84p3mtLlBwVJHAPb/PrSu2wRG0fRjgN15GMHOOtDwYcqcovVR6H1/D/AD1qUSjATd0PoB69vz/OlDu6kBtw54PfPHfrRawIgER28YIHBDEZJ/8ArUvls4xFtY56EkZqXzWAzwF2/KOf84pFKjaTtzt64/xqgGxRsGJba3B5xx9aJHJGM4/z0749aepIUYUHH8I9P8n9ac+CpO8snZegzj/61Zv3h67MzZIj5m5iGGc56U0AbR8zAErhs8f5/KrEy7ZmKg7ieCV4x356DHFV97EKBuzySMf17cGoQ1pZCgt5pXaSc7gAMfp/nrQpAYcBTjAJb270wMAu4jK4xgYyCemRQwJO84+Xtgevc4pjaJB8/wApI3dcHkNz3/SlDqXx97PHB6fpSZ3M2ZDnk4Pb8PTrR8wHOCwGCMf/AKv84qbXBApyQGXIJ6en+fyoRmRMnngkAN16/wCfypQAAwYZA6n1P1/Omht7DLNkDk4wPoKNmCvckzhgvzEcAgZOaRRJKB5cjKR1ymfT3pu3cwRyc9CP/rHnof1pHUdFHI4OB/n2oTsgTW7NkvlgApKg45yfT/PWozIMY6Nx1x0/z/Kp2BAON2wHHoOn+fzpghYIxDfKScbu5x79+a7dtjH1I3YuclSM9h2H+RTSxwAPuDAHbPHHepdrEM3zFVOTwAD9P0/CmGOQhtrYGTglcZX3/wA9qnfQFZ6ELSkOcg5I7E49B2/zjvTGZlbOSqsMEgcfSppIydzL14J5wB/nj9KjWJly2CNmT0Pt09BSew0n1IhKxLDCng4+Yt/n/wCvUJ2gZQM2eASOM/j06n61M0TbDkbmH3emTgev5Ux4t2QOnT1Oeam5S8iGTaXySM4xnpgZHX9OKb5isvIHQEYGfy56cVL5CqQNqkEdieD/AJ/nTPIc7cKBz1I+vNZ3HIZuZEwzHCsCu3nv2+nNN83aoLKCxOBnH6frUwTcflUqFwSAOc//AK/50GIhixTC5B+U+/Yd6NhrfUjyWA3bgnYg57Y/p3+tOaXLIqncWOAwAHfvx1o8h9mHUE5zznAzzQYmjjICqQeMjpnvn25qmLoAnUH+AHrwOfYZz9RURm3ZBOd3Tgf5/wA+1T/ZnJTKKCRnA5yMfrTI7d8grjJP3jn5u/X8+KSYJIRn+T+LvjjOR+vfPWjziwbHGBjJPT2x/SnRxEbBnJyMnHP+f8KeYt2ARxjg4zxRYFJjFcMcIwUEkk9Rn0/UUeaHGcckDAPY/Tt1/wA8U/ymxuQAc4GB/Lr600wkBBHuUrzt9e39RRbUGhvmb0UPGEx0O3IA60rSqwGwFSDgEjOT6fXpTvs7NgFO3pRJEq7TI2cnaOmSOufX1/KmrdQeogl3jbjA4yckY98fhSiSN923aCed3cfjj3oUCYFkUsg5LDn/ACaf5ByQFZV4IOTn6+1To9hsj805ycANnjJ9OlKJlLZJZc5yM43fj+VOWLphDnGOvXr1H5UqwO6s0aqo7ccE/wCOKejE20RtLlQ4IY8bsdMfypWuAWLAkk8gntj/APVijyWA6nKqOV6A+w9zn9KcsD7UeQYVug5x1+7/ACo0uDtcZucK2SBkcnH+P40DcY9+1mI5LY+9+H6U6SLGGkVRhcsx6cD/AOualV7a8sopbZHRiMSK/YdsZ/z+tRKok0u40m1ciEhQEEDA6Ek9f85pqy7ySDuwuFHsP8/p708wiJiASBgjGR3zgUCN8EZPJ4A6ke2foapoTWlxC+3odwyMnGQMeuKUzMAoDKqnIOSelIyMU2nexB5OOPp/L/JpzQMMEjcAMnJyR2/qPyovYNRglIRmPBPUY+Yn/I/LFOVtxZsDK8ZPrkUPbEOQAwJYgZPH+eP5UeQApXOW/wBnr6/h9KrQH3GiQfeUbwxCjGT6/wBc04OpXHPABOeDx3z/AJ60xbZmbllUluAoFOWMrKpUfvCPl5Pr64/zigGgE2Ap5JwMYOQffr7GlabDjk4IypxkE/16Uwx7ThhuGN2CefXFP8g78gbW+7uyMg8UegDhJuB3DJZuBnoOOOnX/ChpFMqkAEAH5hzz9aYIsklVUA5Pv04/CppIyi44yBzjgHHelfXQAjkABGHDHpjGTTQ52M4JAIwAD9cn8qTyn5OByuPlGck+47U1EzvC4VQMbj2/yMU7iStqTK+8swZjxncSOlSKUO4Njgcnrk5PP6VEVZVyAFB5A6A57ig5B7Fj8uwD8P6fyp69ASuS7M/KuVYDbg9CPXv78ZqQnbGVbczYGCR1/H8KgUgAliApKkEY4/D06/l+c/EfykA9l5zx2/z7VO9gGzj98WB2nupJIPtx16VnSKEfEgGSBnPtWtwI+e/Gc59Onf8A/VVC4j2gKSQcdAPTj+tRLQqOpAVZTkZJA5PbGcGkbAcLtXHHf+tKWCt6bQMgMCe3JpisX4A/drnaAf5fn+tKzHqnqSfLksuCARyeOf8AOfzoXglgwyCMAfl/hTEUBOWJycbWPf1xTsZUBjgjJ2kAZ44Ofx/z3PILPoL5hy3RVwBtC4PIGaBJnKlTgj5jjk/hRvIDDOWHJcDBzz/ntSBgo2KR02rjHI/z+fNL5Ba4+VgCA/zHAwFGM89f5UxZTHggsuVx1/qeP8ml3MhX5gMYwoOBz29ulLHtYHPJ7A54/r3p9Av2OhDFZCWiJGAemenJ4/Oo5WGN4jZFXAJz96teMRhyVAy2Nx7g+v6f5xSLArSIXVQ3UZGODXTzMxS6mL5sZHGAeTgeg4/z+FILiOT5WZQQAcA56nnn0/Gt02kEi7SikMdwJxyMd8d/8O9V59BtZAxQMsm7qAcj3/8Are9JyH6mY0yljgYK45PAHr1piyRAFlywyB82OK5/WobrQ5SGLSRggKw+YA/yrJ/trIzkgqRge+D/AI1Lmupai+h2jSIFIBwvcev+fXn1qBpFfapclj0BGSTjkH04rkm1tnGTLt5JAOOM/wCelMOtF2DbiVxkE8Y/P/PFLmXUEnY7IzojEZAB7e4z+NJ50ZO3BYMxA7Z9R69a45dUPDBww5GV65x/+qkOrgtxIdy8gD8cVm5Jsbjrc61WjZshgASSBj/P+e1KZkPUDPX7vHQ4HHuB/kVxyavJtJaQMcZx1/nSf2mzLwzfKvbn146+9HMOzudi0sQOOOOhb/6w9qb5sbMuB16huhzXHjV3V2Uu2QPmznn3pDq7NhlkwV5CnIJPt+FPmCz3R2jXEQUkfKM5Izkj1/rTPOQ5Ug5XjHH49v8APvXO6XHdamS/meXb/d3+/oP8966G00WFrfe24jGN27Bx64I+n86iVVR3HGm2SGdQyru+UvgkEA9R6UgkBwRyc9c9R1H0ppS2QMsE6l0xmLGDz05H1q697ZQ6fswgfaOT3b/P+eax+spbF+ydrMp+dEhUSYO49ASfy/z1qyGt0ie4dm2ArtToZB/k5rFinluJmjtIN7FS2xFDNgev+fzqnPdTvKPNj2lG2/MOV/Dtxj9PSlLEN6RNY4e+5qXms6baokeJNzrwQo5PfOSMd6oX+pGaKOVEL/vMja4wv1xnp9Ky7vTor91ZoH+QnO1cfX9atBoItPaxFtvyCqjKq6k85yeh7/8A6qzc+ZWbNlSUfeSuzp9MeO/bzFDRRDrxwP8AgX5/n+FR3Uj26OCqOVOCwPA/D9a56H+1rCzgjkuBuJ2hUdWJzwMYz1P8639LjWRrg6rAfMTGFJI9ck4OO3+eKftZp77GDpRtcYs0qQrKIg0Y4VjyPz4q7HaSySJA8sKHbvBYEj8cHk5FUJNbto7yWztwWwnDKpIGD0/P8qrCXUo7hpLhzGoABLAYHpxn2oeIk72GqS6lpZpYjuke3ZQSDtJDd8nnt/geKfJqskoIZELpkEbiOw/PH+elZbiJ5vPYQIzegK+/I9f85rU0aTTxesXIJUZG5WG4/wCf5CqdX7TG6TtZIqX96sttLuiXygmGVSME56fpjn8qpaLfeXbMpRhHkYJJLL+PoRitHVdOD6qximmWIfN5bKHVvY5zj/PSq5txaGRYbMISd+Qdwwccn14/nTU1OSknsChaLjbc07e6ScuscMjsi7zleQBz+FQDV7QFIwXLEnDFeo9f8+lVV1WWCMbbby5sgBw+M8+mPwxVxtJjjsXnn1V/NI5UJxnHoD/n8abryWjIdBdS1amK5hEinZGpP7yRTzwelVhdwsGcByqgjceOvWsJpyCqLIroP4QMfnj/ADzS/bLpdrWts/GS+0ZUL33+319e1Cryu29SvYR9DoPtUMhAU9AG49Mfnn86leOSK1S5dQVkPB3Z546/lWJbSwzOsAZUckgeY4zj8Ovc8etbfm3MFoY5LZWhTIXa55HUdMn8/Sq+sbGTo22I/OicE/IDngD0NSCZV+Uv0bKkD+lY8rRWpYyq29xuXDYBBwOeOen61WTURFJHKLcTHPIeTgjr29P8mr9tB6iVCTub6zopywXavTOc/U+1JG8TqVAHB5A5/n/npXP3FzvYNGzxMD8q+noB3/Q/rVR764tleQbjt5JQnAHbPT6fjVRqRlbUUqUoq514ZQwU4Tt1PIqMPFuzwFBxyP8APHFcgNcyhTco6HcSf0p0WuFxtWQMxG4EHp2/z6Vd1Yz5bM7AlC4TjcM8HimxyqWOGUEKB8vTI69vTNcmdbC/vFkwM84P/wCr1FI2rE7Qq8nnII5/yKLrqDR1onjCKTjJ4IHGOvT9KUIhA5yOd/uPQ8fjXIDWy4QNkqBxxgkkc9fXn/8AVXQabfGfYA3PXOcYHIz7/T3p3uIukBMkEA9CVP4d/pTo5eCRJ8/UgjAplwcISOhGc/3T/X/69QJMxk2hkJ7n88Y96BvUvDjPzD5jkYHA7/06VHOqMu7cu5iTg9uOvuKFcq/yg5IIBB6njipgFAXduODzzx7c/wCFDSDUymVoXyec/wB44JH9ah3biwCMSRg44wf/ANf+ea0Ly3XfggAE44OAT/hWaAFkA5GMYIGOvv35rNNsroOLKPlGMqMsBxkf179u1PaUqvPzZGRggn/Oai3oowWBxxkjpnj/AD9KXOQyknB54GMcd6TVxkkOHYDcoPUbuh/z/Shc5JAO0dB+PH4f54po3EOeGOMc9B0OaRFU5JUHqAV4z7+3T+dN9xdx5ddu4lcZw+D+H51JuRcnYHLcgIABjsaiZxuOCBkfLu5/X/P+KNI8SbkkCKTgN1zSknbQIq+h2g+ZflGMDqePXOf1qwoAGCGYgcsP8en/AOuoo8qvHI25bPOOfapADkscDJ6E4xjPWtk7me7sSlxuUE7MA5UjJH14qWMgsp34PuB2/kOvT1pFYxANsJPp07/4U1iS5O1hj5vlwPrjv6fpS3Euxi+J7ZL/AEKZCoZwFZG6HPHH4V5MbWQjBHXOMeg/yPzr2bWVKaTdAEqTGSew+g/z+VeWIfN27gdpHBPQ/pWc3Z3NIWMxdOdgSVX5j8xwASPf1709bOYZfaSrDAxzx7/lWwVTBJCjaMf5HftTw/zbdjMoGFyQTn8OfWs+Zs2SujD+yTkKuwZxzxx+vbrQLCYKOhUAFc5+mc9fWt0A+aWPmbv4wP5f/q9qWOF3ZWVB1+cscLz6/wCFHMxehgJZTglmADfdx6e1TWui3t1KFhhZ1A7L93nueMV0Iis4HXzbkbZDgZbao9gx/wAPxrVa/iso9kMDNsB+YjAz24oc0Uou9zDtPCsVqTJe3QJA+4hwBgdz+H6021jsH1IWMekxMxUsGMm8Ec888Y6VYMhvHffhlBwFxxyew7UkGnRworWlnMxCnM3LAjPJzx6n8qxdR7HQqKtdmndqdNjUyRQopUtjzOFAGfb3qpa6xc72MLwzLkbjuBCHpgnqfX8+afZWbXs6gK0rt1dznHPqeg4+lSau1nYyxW2nhppVA3Nn5Sc/wgd+Ovv2rJzbL9nGK5ZEMTy27PNclpGmkIdcAZI6DPtkfgcd6i1DXZLlPLW0trTYMZAUnPX+oqC4lvMqZ4DGA21WEJUHtwetWptD1C1gS9m8qM53BS2XQ/y9KmTZXuK3NuS6J9stH+0SQnCYOMgF8jpjqf061BqN/Fq10n2a0k80ttZWGHIzjHXH4moG1DUpYhE1yduOijG4evv1FRR2aJGd0mHPyj3Of0qW0tVqXGHV6GnehLG0juUsntTv4EjBg/scnrz2p1jo8niS8e6uX+zxIgVDGBmQjPAz6Z7+1Uby9Sazhsbq0juEhJZTK/P+ccdaqrrV5bR+VbyCJWxhIwAo9hn/AD+dJaq4ck0tPvKTCS3vJQqsJbeXYxX73BxwOv8Ake1WFurj5JZpGkcKN0bMeehI+hxWrazXOp27GRYCYzy235z1yentyaks7e5jU3FrB+9XDBsksvpxSlNJaFqEXuZUzTs6y2tm9u4GCEQKmOhz0raitINTtrG3nuGFzIQ0o3AZHfgduOPWrEtxqd7MEvkhB2+WssluQSeD9M8dMUljFBZGa8vnMbKTtZPvHIz061LqyctHb8BSpR5dd/LUk1fTtM023WRSySAAAMxOT+JPX/PvzUl+UI8rlw/DbsAjFbN7Na+ICI453STrHHLjkDnPuT/LtVTw/wCRLcyee2SrbEYxkoSAOh456j8abvbXZigkt90WYb+48oh4I1kGQxzgBunIHI60tvd3cBeGTyZPNG1WYY69MeneruvT2EAcac/l3rDe7KcKeoCt9Sent9KxtFil1BSb2VVWNyH+z5JbnouRwMeualRmpXg9BuVNwvJWG3l/d2NyYJoFVgcjdkhl9QfT+tRG0TU9NkuoSq4fZ5eSGJxxg+n1NdBrcVre3EOmxTiKKVWeR5H+UbSDwDyT071k3+h2NrprHThcTXSMEkCZZWyM5PHHHb/69dNnJ3ZzKpG1krMzbW2mlcR20TEgAFFHJJ9f8a1IdcvtFgk05GEQByN0eSpOP/rfjWRa31xpsqy2pMcg+9GRkDjoRjkfl1qC3hjuppY5pHaaZifMLkZY9z+J79BTXmPlb6E7xtlH2FfN3FMIAGOe3GDz+VW3j1i0tEuMzCJlzvGSE+vb36/1rdmgs9H8OR29+yTKWJg8mL5kk9c9O3tVJPE4/spotrC6A/1eMqcY5+lRd3DV/CjBN+9y++RnlLDhgBuz7kcevanCb5M78hm4YnGRn9MH9aqSPG8u4RiMuSSrN+nr/kVpaFFp99eSQX80iIV+Ro5ACr5HHII9f0rToVJW1K6yxMAGGH4x3Of8OtTWs0UVwWNuVLH5mXqc+3cVqeLNI0vTprYabcjDxgPFu3MD/eBPQdc/X3rnGk8vAQgMGJLAcE55qW7K44R5tifXdHEUYvrIFrXlZFxgRHqMjHQ8fjWEscqq4ZSq4z8o7f49a9D0uMyaBJd3KeZEco4cZxyMYx9f1NZtzp0cDF4jHLCcFJCpBI6Y/wA45rohVsrdTmq0rNyORVHbaFj4PJ2+mcU7yznaYiDjkkda6SOBVIwASAcYHb09qkW0Ut90E4wSTnn6fr/hWjlqc/KuhyvlMnl4XkqSAQcZPHWt/R7h94HCfyHbr68VYa1i24VVB+7g9fp7c5/yaBAsePLX733SBgmqVR9Q5U9HudIW823DnBOOAPTms7GxtwII6qV6nocfy/yKphpQQuW+boOCc49+vXpUYMgKMWZscnPI7/8A6qPapdBcjSOjt5l8vcMAkEjA6+1TKVYOOcjgseMVyxluFUBJB0/hbv709bi4WMfO7IeQGPU/hx9arnW6JcbHTyiNicAjoFxnJzn+f9KyLqIKwYEg43DGfX1/I1mm6lV8eYx6ZB6cjGP8+lAaXZuMhPyn7x6H+VS5LoUk0WVk+UkZbByArYH17/SnpuAQMBnpkHHJ7fpVJPNYkszDA2qcg8e+Tx/jT/nIOGAHBBHcZ680vIHEtEli+MN2BJ6/T/PenxlXcnBzzjIH5cVnmJyoJx0ztB7ighggU8cbjxwD6n9OetO9x9C+cEABlIfseoHB/wA/5y4bJFCsBxznB5/KqBLrJgZJzn0OetI7yBAXYKc9WOM0k3uTy3Vj0eH5V3lcqAeQuBn/ACKtjdgHbkY4yTyOg/l+oqrZr50YKDC5wAR25/8ArVZQeWoBTBwRx1J6/wCf/rVrGzVzN9h29PL3KSynO0denH8vT0qIlmkwysVPRMckYJ6USkPg53Ic9M9R/X/CpbYCMbywJPHygYIwfr3/AP10LuJOyuZPjCdbPw9dSlBkplcHv/n+VeOpqpUhVjLBhx29x/WvSvH+oqbVLPIJc7tpJzjr9K4KLBUDy0bg7cjPQD/Cok1c1gnYhXWJMKGtmzjGR/I05NWbrsbt1G3/ACen5/jV0PGXxwCSCW6Y49qWIAuipjZzlnIwPUn261m3ZalWbLGiRz6zOyrCYYkGTIWySfQe/Sugm0x42JmkXYucBei81nWWr20SRWlsqq3ALFcAnnnjueOtOkvZyTumYuTkgEYHP51m6sH1OuFGpA0reK0vbaUXMEUsSSFF80cfgM+/X2rHsovsmrKdN1ASxoTvt3/gXuVI7e3J75qZdOur9mxcmCNlHC9x6/0zVOXTBpr+UqRs+dqheWzn8x2HSsHfm02KsnvuaVxexxalI0MMFyRtBXZ0J7bu56fnU9xJqOsWyxwSHTDG4LsG5ZQOmR07Hn9elZukWVzqc8qQMsRRN2WYrz27dT1/AVW1OCa1mEM8XlnjYgzjPr6H60k7sfJ9k0bmWO2zBbahuQkmYsQz8k8ZGOM44/nVKC4l06bzYxGWwduR0OOx7daoxzSBQsW0HGBnp9cgf5xUjpLJD5h2hQMsVP3SDwO/f/Pom1ezNVSlbUu3euXtw22SVQp6Ko6/41QnlluJF82d5vLUBfMcsBxxjPTpxUICjDPv6d++PTGevNLn5sAkOR+PHce1NkqPJsaVuYwcPsDH1X7x9a2rHQoNRt2ZrzyiOB39f6Vxzo/mbMB8Hgdx15qeC4kJL+aME52ocbsY/wDrVm429435uZWT1N2+8OiCNpopYLmMHlojhhz3FM01dItZi18gkyoXkbsVjNcSqHIdlDAE++ePz5qEbkkAfcxI+6Dg/X/P6Vm1Ju97G0Ypqz1OwvZ4bi4tLeyk3RgYCEYAYnpnGPT86sraSxWa6hbMFmQNu4xu9Miub00XDXcC7XCAbcAYxkDj2z6fWuxuJ1+xzRnGF+X5e+RnPH+ea5qdPmk5N/10JxE+RRiv69SJtRsr7TZFm2+fKwbcSRsIxzk8k9a53yYbyaRxcbYlcjDDHb+XSrc1hLHYJcRZyw5JPPJP4duntXMJM8bMjgOoGcFemcf49qSUp+690XTikm4vR/gbk8trGQtnGoznfJu5b/61Z8eoSQJtiSJHBwTs+7x6Hj9PrTYohcruLEEcAKffjH61IsKoSJAuRzyeh6jr+FbRUVqi3Gy1KVzNLekGZmLEA8p1PQcDjpTY0mgVDHK6kc/KcEj6d/rV03zxs/kw24AyRJgEkH2zjvV7StEudXgF5G8fzNsJlY5bpnkDOB/Q+lbx5jnqThFO+xzdzZLcK0krStITwSSG69+/tit/RfEQ00hPKlUYwVByrgjGefX86o67pV9pcBtrq2tpmkG+KQHOGGc8kAnjHX1+tTWNlp93Fb2xykqLt543seeCOMjtW9rK5yNqW60K9+Re31zdD91HI+cqMYGBz357/jW0t9axaYsF3o6qcD7PLCgVyw6HPXPr1/HmotN0yKWK6muZl/0clAA4ABA6nP8AnioNWu1mv2micFQqlcqMAgYwB7VhKTjubxpxlp2N3Vr2C40SC2kdTLcbTtHJ6gn8OK5S50sQMVRg/wAoyxG75j2/P+lSyXkQ2AxhfL/ixnLE4P0/pWoZLSXRm+eMzNhflxkMP/1dqUZzvcq0YLuc/JCi8Et15zjmoVjwokjGGB9xnFXJ3VvKO7AzjjOR/nFWEh0p9MIa5mivD3aPKg9cYHPp+Vba21M5dL7FvweLO71jzr5UaSNR5cbnjdnGQP8AHvim+J7B7TUjMIsW9w5ICdAw5wR2yOeKpRaXJJaQtCTHJJLtznBGBknHX/PvWlfpcKjWtxf+cIvmUsuCTj1xnGD+tTUdrJhTi+e6ZuaHeW11HbbNi+YojaHorYOeAe45yfpW/e+GrfUo0mEojcElwo4kUjv6YHfrXH2uhTxQxS218u4gMSwOwe+4H2611ujav54McjJII/kl9VYDB7dOK1hy3tI5qzafNBnFa5pL6DcxI8yywzFijMMEAEZzxjuORWdHKAcmVd4+6MdD/P0NdT4teLUbyC0lcqwlyknGRkc/p2rkpdOaylkt5SFeFyCXHcYrWFSMm0ntuYTpSjFN9SZZgeDw+eq89v8A9dN80RjLcso4B6H6frURgiPJLBlPJJ569uw9KV7KLOdzk9clgBzWjsnqTtuTtIMKV2jGOS/pz+HApvnKQzZ+U888ew/CmfZRt3fNuHQ98/5BoNohJ3NgEenOCfWi6J2HeYWTIUbSACw61JFMwcK6DpyWbI9v59arvaZjDI7Kcds5zn/69Bs0U/ebacnBY5NF9A1ZI1yjhgCCOoyCeh5/nT/MQoO64xn17j/PvVcWm7Dl+AcDBIAH9e3HtUhtQrbkfAUemOp6/wAqTfYpadB3nIclRkjjg55z0OPbHSlkuUy24uVBPP8Ah75x3qBraLdj5iduBgnIoW3D7TuJZf7w4PP5+lUBaEytGFDbQe+CD0/XqOvrTvM3bR0wOobIA68/pVMW2TneQw6r2H4f560LbqpzJMXO0cdxxjpU3Ymi2CoU/wAI46H+X6VFvG1ck7uhPQ8f5FQrZ7gC7kgjtn68+vX9D70q245XdkLwApAHvx/n9aanqJs9VGIYc4AGOcdfx/WovNMr4Jx22Afj9aFO5iXIWNQO/wDhUy5DMy5Cnv8A/rrfYx3Q6KFRjJTsMY5/OmXV4kFu1zM2E2c8gDI6/r/OlbaI/MdlAUZbLEDj+fb8K828Y+KBfTtY2cj+Uv3mU8nrz9KblbUej3MnWtZk1XVXmR+AdkY559KqRYUcgHnIzx/j2x+Qqlb72HL7TnIHr9TV6M5ynylsHGQD19MVztG2xPvBDuc7eRyM8+mPX/Ct/wAHaLHq+rSC4hLW0Cl5FHQ84UH9fyrnC0mxn7Z6EcAn/HgfjXdeGdRtfDfhk30/z3V/KzJEvUhOOfbIY/TGKmSVtSouTfu7ljUfDtsuqx21gkUBijMsrHpgk4wPXrj6fSuZvoFsbyRGlOE5UYA3D1/PP5Crlr4jlmu7m4klG+Zizu2Aq+mPbGAB1rFupJLzWGk8x5o9pwcjaD/WuR236M74xmnaQ8aheNEU+0PsUjKj5cD04GfSo45dRiYtE6CNgBkAllz39xxjPvV23iQXCGYAQh/mDDAIzyPpV7WL+y1IwrbAbkXa7DIC/Qj8KHJPRFSSjsitYaomnW3yK5bdukcYJbt0z/nNMvdRl1OcNIqoijggDI9OT078CowUTMSuxC8r3Y+vTn2quZSrBBhSvzElcH/Oalp3vctRhe5aso4ftCpK7eW2FJXgn/8AWa6TV4NOtIopYJELSDBiRtwHHf0rkEl2ybIxlyenpU8Tlp1MhIGRkE8Z6nP8qzlFNNPqW1eSdySSC0JcxsAoGfXJ6DH4n9aptA/yknzG/POTn8f/AK9dVp99pWHcQwR7DjPfPtn+lYlw5k1KaeJR5T8qOBz0zg9OaHKUFdsaSqNxtYyPlUnAcYXqxzn/AOvzj86QOmSFw5H3dx4PsK6q2fT9QjMF1bYkzgyr/kVl6lodzpapgLslGV8vncPfj+Xr+FNVY8t0SoWlZqz/ADM+3kjb5F+dlHRfX/GrenadLqF15ZGSTklvm/P9OKggtbiNwzx4AYFgOMj0x/h612Wn/ZbaA3KEiNh8wxjp6/kP51zuanK0djSpL2cLrcbYabHbW4TC7kBw2cE+tR3bkMsmTgcfLkgDpkj6Cmz65aPA7I6GRuu3kjNYd74gk01YpAoIcnajjGRwSf1963jFJWjr5nB705Ns9DENutgPNUOoTO1jgc+teZ6/5H9sBLBCVbI2Z4yPX1PNMu/GGoSWqhk2L1VSCMY6scde3+RWTE85kNyx8wF8MoHB75+nb8a0nHmV0rW+8qg+SWrvfodba6dJ9gjMmPMCZ3cYY+n17Z+lMm04NpkzAMtzGckZyNvPGO9XNN1OG5sUxkOoHAHQdOR9SOtGr215Zsqw7Hgc4DAFvw/UfrXBBck2+h1SqTn7m36nKoW2ZBC5JCsOn5/hXV6FHdHT22I0cYctHIVwrAnoO3XP5VjQwC1ddvzMuMBeMc5zkdSCPbnFSPdyXBjV5R5a/dQHCjnoPx/WupVNeZFVaXMuVk+pT31xOqXcloRDuUb2HBOR3OCR69axry9lUbI2t58nPmJbrGUPH90Afnn9afsjB3rGwLEDcO3HeoywikG1mX+6c4I5xjr0rXmIjTUFbcsWd7c6eHBiU+avGVOH9SOPx9Kry3CsjmQsSQOAOPpj/PSuhsLW58SWTbtQKRp91EjBbIHX/wCt7VXtfCyywyzXNyA8MpR4FGAyhsHJ6jP+FK3VmXtLNnN/aQMAqFxkZ9/X/PvUsfmJDwd3IBU8fh/PNd3rtrpmneF44pIIlckeSoADBsdfy6+v5GuCQYeKZo9yqd5VuN3qPyq9nYdOfPG6Q9JNxywfAXPQ4LVNGhRI3WPzHeMlQfmGOmcdzWtM/hu4tHBhuI7gqFUox+Uk4Oc8D8PXpUEWrw2luI44kkK/cZk+6OhFNxTWgRl3Qtp9otbtrmXJbYViY8ge4qrcyz3ku0fMd33D1PA4pzai2AdxyCW25DZ9x6H/AOvmqa3cttIxgjJZwQN3O3djn68/5xxhKMm7s6IqK6GhPpurQ2sbL55AOfMySuevbipdK1yXQmBMUZd1+Ydx6HP4frV9vFCNpxt2hAcptYZBBGOeP85rljGk8jNC7MuRw2M9c1qnBb6NWOdxnU0ex18ep2mu6vDLcKYEBV2bk8jnr2B5H/6qq+J7e4ttWa4miCPcos+1MHBIwRnHOCB/hVLTLm6051lSwDQSNsywJ3HsM/j2GKvavfW2s2oMSnzYQTsOchT1wM9OPw+hropuFm09epzV6M7JJaIyd29iWOBnG3oe/wDnpUuSSpYM3P8Ahjjr/wDWqvGMuMpwcE5Pfp+XNSlTswemB+A9cHp/ntWjscyXRDt4YnbkgkY247UoARQNwJzjJ5wPp+VMjyzfKRjqVb6cj/6/bmlKEgtjgc/Mwwe34dO9K6bsLqBKZ2bQCvykbsg4PXn6/WhpUUnlfbPb3/X9O9RyWvmBVVskjog5JB/Xv+XeoRbSNIE34AGOB6Zp7BFItCbB8xQfcYx/nH+FPVSSq7skg7tp754quNy4Jz8uc8Y/A/r27U5d6MBsAJ5I7NS01KZYCkS4ZCBt5JB4/Ooi3lFgSzEAEZGcn0NOaMMQeVA/Pp+Xp1qpJbyryrgBskDp+Wf88VWj1JSLROWUYXPGAeecD/GhgS+3cdo6EjHHv+lUoEZDySF6gg8469vxq4GIL7lz3JK9B19enPShMGhY12qDjHOTxgEe360rSFcrJHkjHfBJ70gUn5gTtPHXJ9P8/So3iZW5znGBtznH50kB6WXIlU7cq/fHTvmnhkRTPI4EQO47c8df8aoQyiCB5rj90i5O5z/L9P59q898W+OXvi1jYEiPOGK+nIre+hlyk/jHxvLMsllp27yujyD+f1rgRc3bDd5JKkdM5ycfrTyqAFwxOQec5z749zmrce4SbcKM5zwO/wDLipv1HYYJ7oOENs2SN2c4yBVgXc6FF+zZfuM/pQrCQklxnPB6EDGcc81OjKzdic9+Aef0pPzHr0Bb67EW42mArDKjp61pLdTXEEfmgoqRBMDqo5Yj06sf89YbeOV3RI0dnzj5V3Z6Z/XH+ek5idHuLebMLRgFkPDE/T6Vx4tvkVjvwCi6juXA0boFgYAdSRwR6cd6bNCttEV2E5OMLzxzzkf5/rViuI4IVKR+ZOcN8yZWM9vrV7T7bUdZu9nnlUbgbhtwfQY9v88Vy30s9z0ZJ77ItQys0SyHCnJ4Awev4/5FQyTh95BAzznnPSjULe6tGNtcMHlQjIUfrk9Ov+etVEbcpVj1yxHvnnIrZPSxjyX1ZLGvyrsJBI/iB5HH596hfJY+YGYk4weT/P0q1ZadPehxbJv2YMm5wu38Se/p7Vr2XhcApLezwEBcmMHJye54/wA5qrLuYzqRi7MxbCzN9d+QsgQrzuIyO3v6nt+ta154ebTVR57nzrbq7InO70A9M/59c6/itrfWt9jJiOPD7d56/wB39Ce1R3+u6jfbbeR1hhUjcUX73pn8/wDPFJoSlNv3S9HqGkWska29qXiGQ7Sk+vX/AD+Nb0drp2pQiWEGIt154U98DH+ccVweWyQpJPU4xx1zmrVncS282zzMp7NgZz/hmsqkYpNy1Ojkk/hdmjrYfDzo5eMidNw9/wBD9a6GHTUlsWikTIC5Ct1wORj2/OmaTtOnpku245bIyff+vbr+VXJA2XwWPGM/5/Lmqo4aC99dThrYicnZvY5nVrZdPtzJgqh4bCcEdvr1riZ/EL5eJWBgPDDJOfp+ea9E15opdMnSYgrtIJPTtz/n1ry+2smupZAzERJkBgevp+VJ0IwmpG1CpzwfMWtMitop0mnmZUHzqqJuJxg/l159jWjqlx/aSxxuqJ5J3KCO5GOv4/rUDW8dlbEowJyCx7EdDz71n6utxHCJ1cqpYnBPTI7fj16da05uhLfM7lC6aMsyudo3ZLZwfofxPbin6VvtPME7N5W7H3s4X1/lx/8AqrJVPtTtNIymPoSw4J9vp/SungNsYoy0RdEx8hXoTnjHatZe6rGPK5M1b2we1eK4tiM/dYDG045/rW7petw32lmG6lOS2FOMjJ7dPr+VZyXSwywJcO3TLEHcBweefbFOvo0sFd2iZY7htuU5Ayc9B64FcdSMbtxOmD91RnuMvLe4srdZwjBCSSH647YzWY8m9SBwNvPOSvt/P9K7pI7bUrBGiVfKYcE8c9MfofpXIz6VM9/hG5aUgqQRgcnLH2/HtURpSpvRaHTTxEJfFuZ86lX+UEEEAkDHOKSxtZtVufIt4w0m1iwzgKB1J/P9asanpn9nSoPOR2ZTkqpAHt78f5FQWV3Ppt0txCMSA7cEY4JGc961grbilO6vDU3NO8P6naJNNBei0nA/hOVdG+nI+v8AjWba67cWou1Ez3Cz5XdM+SD2PP8AnpTpNcv7qQqXVHk6lVIYDGOD/Ws6eIRIrlAu45IAyODj09h/jWnLdXRlCErtVEOuZri6l86SbzGCnDMB/nHJp8VtuVRK5QZwe+T9BTIWhRWd5lDD1GSDnP8AKneeVAYHOPc9qz13OpJWsOu0VR5SIPMB+/zjHOf51UkjQWqnqMheDnP1H1p5ZpXZsjJJIO7HX+X/AOqkZCzfKysQed2eTj3/AMRWivbUyYkUIdxzyMfnn9OP8809gZGViSiJjO3+LP19fb0qKTaQAXABHUjt1/Dvx9angRJrmON9wCDpuAb8fTt/kU23FXYkmzSstOOq3EomBhjVRhRgkqD6/wCfwrRGl2YeKzs15yEBI4JPcfzqOxsp5mW2so3MbkjAzxjuT/nvXZ2Ghy6RNHJGDK4XEmR0J9OOBXK5Sru0U7X1f+RMpqi7t69F/mSXOlIugLp8QRp413A5A2uMHIPUH0PvXJ6hohsUln8uWYRkF5c5IyOcnnr0/wAa7aOyFxORdMdh42Z6Z7+/tWD46n/szw6kFo7qZ5+5wxAz7567fxrecJVFzbJffpsc1Cq+flvds87hu4d/llvm5465I78VILyJmOJgB0xnp19elVTbwSOG+Ug+j4xke3Wp/skDH5VJ5JAPJ/P8O9d9o9Tis7jzdwk7fMXYf7xxgd+AenSpUvLcEL5g5HUZPX+VRC2tmIVYkYjJyQfm9P5UJZ2wACxqWUAscY9uc0tH0C9lccbuHHEi42cY6AD1pfPiUYRwc5GM5xx3/wD1UNa2uTugVCQcEt0pFt4AFUxj6dfQ8fn+lLQNeoi3EDImJA4weSM/zqTz45IwpdSRhW5A7dP5j0pn2SFct5fyEZ+X24pfstuOfLAIPAYdPb+dUuXoDuxVu7cgoWyw5PTnjr0pPPik4WQ4Y9SM4/nR9jtyQqx7hwp55J/LnqKaLaEA4UKd2DnndT0voLUctxC3yb9o5IAGc59qct1H5mCQGI4569e9IbOBgrInOPy46fypDYwAHKDLc4ZCc0rxFYlNxCAcSEsAOABgVGblBGrtMFyAQSM8Uq6fAqqAOQMMPSmm0hQAtuC9AM4/pTjJJ7DuzC8ReL77XGaGLdHaqAFQZ+b2/wA+9c/EW2kYz25HBpqbVODkEndz0zx2xU0cTSKDnOOuF5z2z3zWj13I2JE3uAWAK9DgdPb/AD71P5ZXjht3Jwhxn/OTXS+H/AOp6uonlH2SzOf3svJI65C/416ZongjStH2MkAubgZzLMAcfQdB/wDWos2DaWh5donhLWNaQGK0eOJzgyzDbj19z+Fd7pnw3tbfbNqdzJcSEEeWvyoPUeveu1DfKAqkfwgryP1pygBFOckdFJ5A45/Sq5Ypiu9iLT9OtNPixawRxYHRVHB/H8K8l8YoY/G+oMuzDBX5652gc+h4z+NewZOckbsdeQCef/r15Z4mLW3xBE+EODDIEbofx+o/CubFpOHzOnBytVfozrtP8MWE9hbTSafHESoBVhhl4yc+prRuLCztIXuI7eOGSIMdyRhcY+mf8mrZvokjXy5BLu43pg9OO3vVbUrlG0+UBTl8jaGIxx+n/wBak4RSvoQqk5y1f5nlGqX/ANs1SaRiNzMSfQd/yx/Ko/3bPkuFJ69yO3f60XkDrcsVOSB+GT/kVs+CrOOfXJLl1jfyoi6qzdSeOnqP8K5YRvZHsVJKnBvsZqyNCgntXePcNpdehB9jn+VUWuBISqzSux4Jd8gH6ele0SaVp95Gz3VrGvygHC9civNb3wlf2t3K0qb7bkIVUFgnOMjjPvzWsoOO+pyU61Ob10ZhIxYDauQM5I7+v1/z+LipeMBV3AjoOdv9P6fpU82nGEiNZPMZT0ZWA6fiOlR20MkkhBQhU7g4z7VhUqKKep2U6aERXyECrx+I/M/UH8K29E0SWaTzj0AweMZBHP07Vs6PoYEUckxVt53Kp9OMfpxXQw28cKqqKAvXBHf/ADmsoU51dZaIxr4lQTjAoG7Sws1jUs3HOSPbpz6c1LcagsdqJfMLYwQwxyfQY7Vg68mJDvBZQSNv3cDBAI4/WqUC3d3CiIGEAOQW6kAe/wCf412OpyK1jkVJT97zJNQv5dUuHiVpFiUAnnt/j2qvAkMMaxoMscH07Zqaa1nRsQsUAHK4HzHofqPzrNv/ADLBFmlcM7PzjGM4/nxXPF8zd9zWoklaOwy+cbV3bQB8zEEnJzx/Ks6SaO8ia3crtUkFuTk47Dj8Oain1JrpPlSRDIx3bXwcVJBpyHBffsUjcAPu8d+fpzVeoWsrMpTWUdtabYgSqjbufAw3Yj8f88UmjzLdXJM8QcABMYzuHB6Z6/5xUt4rGEqoA3cqcY4B9vwqaxe3VRFHEsZjcHcx4d/XP4itopNO+5jOT5kzoLiFJ4/LcIJFUjb3HQ+5rXu7OO/8NNBMWjZYkKvjdhlH4Z6da5u9iWKJj5h80DaHY9B6D26cdK2LHVrm1MC3gQKTtHIY7cY9+np+dYxUYt+ZcudqLXQ3NGnEWnWhWIJDEoj28kgjr1/Oql7plwb3+0LSdiwThB/Fk8jP0pkkbW6ySW4EytlfJLDGDnpjofw6VraTdQXtnhQypzlWU5Xn24656f0pyV1yE81pe0Rw+oG4luZpLlCCT8oHOBjAHv3ql9nKsV9fug8H6V6HqWhRz75UB/djjbwCT7f571iNp0MKebKWDfxIep/T2/SuJ1J03ySPSp1ac46fgczGMFTu25bI+noOf85pJ8ySHdGPk+8F7/lV28ePzAVTgg4KD2/+tis4OuQXRuAeSc56H8f/AK9b05tq5pKK6EckW4q27nqTnoR/9erclqEVWEoXc3zE88deP8DUAZfNUIqr2C/56d6txW0sqM6PgwAPuxnGPXH9a1uomMtdblqXTra8AayfZJkfK7/eOT37VlFmRypXDr8pz6/StQ+IrwrxFDkA8AbcZHpn61jRlxMcBmfdww7H1oQR5vtEy/IoU5Iz34P9P8mr+kWYvr0QJkyf3sYOM8nntjis1xtZmAUZyATj/Pfiuh8ESY8QxAqPniYcZHHX+lTJKbSY23GEpLod/o+jxaZE0UQ3swAdwSMgdvYf41pvLP5qIgX5iTgHvz/jTYg7gRoFK46qecex/Gp3+UFQBnncSTn2FdsKaUVGOiPElOUpNvdjijxFGYKHIyAAOmf6Y+tcL8QH+26hpFm6kM8oU9yMsq5x06V3DZOCJMg8sTxiuF8V4k8eaGnzFR5bkY4BDn/A/pTqq0LJdV+Zph/jv5P8jMvvA13bASWUnnrnhWOGx/I1zksNxbMY7mNkbpyp5/H869hHzEjDKBk56c/yqG6s7W9hZbm3SRCPTjpz245raUFe5zqWljyMzgZkLEMV/MD1p+/59ob7w6ZPp1/zzXV6h4HVsy6bLtPaNj3PHDf/AF/SuUurO40+VluozCwOCCOMfXp0qJRsWr7grncoVSMcZUAbcZ9OhpY5SvAOQSOegz6+v40xH8syE5DDjAwQfT9f5UqhQOARsOMHP4j9aWg9SXcHA5duBnH50Ryeo9OAenI/+vTVZQgJVR0J45PH6f59Kc25pmB3EgH5gO/8u386aS2Yeg1WJQkb8H5f/wBVSuGG5xwAP7xz6f0psitlQx5YcEDj+X04pwbepDkAZK8N2/zj8fwpMV+rGqQSG25B79OP8/0p0ZDCRiSdmSOOc/WmLv8ALZiRk8H6YI6D/OacAUUM2OeAMg/r+NFtw6WHIy/6zbgDpz9Oh/8Ar0jsytlGIY5yBjj25PvRjHAUg54Pp7e/Q0q5UZIAz/s07Bt0Oa8OeF9V8RShbSBhEAQ88hwi/wCPXpXrPh7wRpOiESzxi4uz83nyDoevAz+vvXSQ26QWwhtYlitx8oVFwBxjipFOUA2Evwc9D645/EVtZGb1FRtuFDjjnAGAQKRTtID8hm7dM9+frSEYBXbn5eMHoPb/AOvTmTcc5I9Tgnv/AIVV10FsrMQPhSQc9R8vb9PehDkqrZ38DBHB4J69v/101jh1UAdMDnH+elSDOFDPgA43AZ47cfl+VA1ZCb2AR8DfnHbpj/PWvKvHiKviOMkMu+AeZ6/fb2/zivUwOOGGcZG7nPPY8+1eW+Ndp8Qq27IaBPouGbH6f1rlxb/dnVg1+90Ot8KAnw3b71UBSeQvJyfXFS64qnRLnaxjZIyyr0yRzjj2/rTvDgMWg2qJli6biMd8np9O1XNStzdaZcW5Ad2jZQMd8HArKME6Sj3QpytWb8/1PIn1A+XLFKiMOSsh4KkEfn/9ernh63ubeaG7hkeME7FbfgseOMfX+dZEiBZGQgKSTuUqMqRyR+p49jXfeF9Jh1C3icgqkDeY+4H5888/TH8q4LydoLfoexWcYxb6HZ2UxaAKHJA+bIJPPX+taBTeAGXewH3WGMc1UgV4SJETcvC5AwCfTPbvV6GRGUN9zklvXPbvXrJHgPTVIxdS8PWNykkyoI2I6jkdMY4rlo/Dcsfmu0QDKMrlchiD/ng16E0LBQck4I25HHPH59aqT7CrAjrx0BOO/tXJWwkajT2/U66WKnBWvczbGNUs15wUGP8A9efwqeQIYyynGR8xz3/zx+NULm7NoreYdvPAJ7+39eKyp9RaOdWhO7PICN1Nax92HvdCFBzndGZqDz313KWwIIWKiPnPbHOee9aMDJ5Yk27Ttxtxyf8AP+NTSxvJO0hXcJCAQBx/nNUdQvktJI4cM4cZDZzz/TtXKtG5SN21K0IoZfy4hLylF2nlzzt9z/8AqriLy7ub67dp8n5dqANgYx1+uP8ACtbV76S7nMKs4iTG+Mdyfbvg+noaox2rRgF92zGNoXkkew/H9KcrXsuppCNldkFtZkhWZAEBxuXnP59zmryyB0+TAHOFc7iO+f8AP9KnhgEatvdSCCGI5wM/p2qteLEBFGz+XGgJ3YGGxx9PU0JSUrsJNPRFLVbiOJR9naOQLlWYYAzkDA9en15qKzeK6tnSRcyNydxwGI6DHX1/WquofZ7uKY24WMxgbOeXPU9vrTI7mKBcblJZduG49unb61so2Whk43e50kVw0iBezfkCM4x/L8av2iktFMQzxZGcHjIzzisSw/49e52EBeeMnP5fWtGxljinSGSIvub5WGc/546j3rnndM2jZLyN3QvLtkntJQuElLrnJzuOcde3Ix7VfjD6XJtX5oWbJbbzyxPNc99qnikDxoCC4wBwOnP+etdBpktxd2+LiKSP5gyFhwRjr9OM/wBKIyc9OpM48vvPY6iGRZoypGQfUE5x/P8Az+PEeI0njuSZkYJITgk42n6D/PSty0vDBcRwzDCs+cjjnP6jkVLrthJfsIo+W2kgDGfXP86zxL9pFOO6exWH/dVPe2Z5rLuXOQpI6OPp6Y5x60ipt4Kljjj3NdjNocDWka3cpSWMfNtBBb2z+Nc7c2kMWRG0knrIXHPGMfz4pe1jGx2JqexkhwjNlST7sfpW/p2v6fY2X2Z4JGaU5fbjLnoeTWfYaXc6lOyxBhI3UHP16f54rq7TwF5qJ59wocjLIEB6jgZ/z1rpipS96KMKs6cdJs5K8vIpnAgTYATsLY3EdSCKrqpXaoOCvJyDn3z+f/6q7W88CXUdtJJb3Dlkzt+Xnr161zsvh6/tbeeS9t3h2qMbsHJz35H8jUcso7ouFalL4WUQoZVKuU4PIHryTWloYeDVrWRWYl5VTOABzx6e59+KxzIPOUDdhXABwevoec12vhAXOuayL66ZpFtVHloqhVViDzgemKin77UVuXXk4QcntY9BTcAAGKqckjcD/wDqqRh5bFOoyCM5H06e9RqAiZDcsTjnn0z6VKAZM5w3GOmQvQcHt19a9Rnz+i0EYkhTvUDuvrz6/h+tcLrhEnxK0yJWBxDkE4HPzn+WO1d5tCSLy/XO3JwPz/z0rz7Ust8UrZQrFhHgErx9xuP51lUtaPqjfDauTXZnVt0LyFpeCAcAdf1//XTg7MNq5kxyG2nOTQu5GOepzgDjGM0irlhlsEHGDyD/AJ/z79RzeoGQtgg5UAjg529Oo/Ko721tb6zEV3EJUGRkjhc+h9uOfalGc8MyvnII6DHY1KWVn+Y9V+bHuaOoXSOE1nwXJbb5tMMjxhdzREEOo9uOT0rmsyREhyykAghgSemM+1ewRkBlHy78HqMjHfBrC1/wza66jMHaG9AA8+PgFv8AaHfv+dTKnroXzW0ZwETJ5hBwFY9OQVqTIkDbmJ3cEe/TP8qqaloeoaZdmC7unjGd2RypHsfw/T2qBba7O4G8IYYwSowf/wBdZpDNTIPzITGSvzY5wc9SakWMOFO7krgseT06elZJtbmSLi8bOcYzwePWl+wzEkNeO2RkdgD/AJ5/GnYpmjvWNWIHyr/Cf0PNSHbngcYzn7xHSs5bCfYV+1OMkkgAf57im/ZboEhbvGM5YDqev0oViXr0NQxnYcEKo/h3f57fzpCm35hnnGWJ6ms9bO5U7BeNjd09TSS2dw6qGvflPODjGfxNUtbD8j2sSfIGIBB9x3//AFfyqM/ePUtjkkZBx+vfFORSG8tTuB5L9z/kLSlNjKOXCtwe46jA/wA96103MdnYCxZcAkncSQeP8/8A16a0m1lYrjJwMjqMenb/APVQXIBcEc8Bff8ACnb2SbcxJyeCB/n0pD8hvX7zY+8uDz79/wDP60bAIw44PcKfXH50hVoyQWw3Thvu+1PdRvJwDuB+8OmB0xn/AD0p7MfQr30y2+mXVwVO2OJm+ox/n8vxry7xc7jxCkZdeLSJCe2cHn69a73xVdNF4eud7/NKVgUHg7mIHHboa4rxhGG1+X51V4okwCPvDH19q48XK8Gjuwa99M7LQADoFkvTbFkgnH48flWpKg2kJkDIAIPPf/P/AOuqeg7F0qz9PKU53cYA6n/P5Vo5X5QAQMdRwSc5/pRB+6k+xzVLe0lbuzynxnph03XGZR8t1+93KeA2fmH54/OtfwZqbRzCNmJDjsMg49Pf/PpV3x9AJdNgmA5SQjOM8FT1P1xWD4Y8qHVYDM67WYbT0xnj8K5KnuVtP6uenF+0wvvf1Y9VhkEmdrY7BTyB9P8AP/1nRYVlwilRg7W7fl36VnGJUDMRzgYIOP5f/WqZZ8L5eWJHyncMZ7HJ7dBXbszybGgrbyVTg/3uoqo7YHIzkc5HAPpnvUkSEKTwyq3oeOaJlZtwVhvJxgcZ6frzTbuCepxniy2eTTNkRAZcFSODkYx+lYHh/T5JG+0F2VG6jcMuf7pHb9f0re8X4NjIsq8EjAXgkZ/z+dZuhTlLINvVYokOB2Htnuf8a5KrUpxizvouUaTaNqclFxuACrhipxj/ADzXKanL52qbsCREIXbxx6fTv+VSX2pXFx5sMUA8qNgGctxyOBUNuqyYnlRmkxznnPPrWVWavyl0YSS5uoyOwHlPIwKxqCZAyHO7HTA79PzrFutZDrIRatEfMA74H6Ht+XNdlfOsNrLgrHuUjn+E4x+PauRjnVvNkaIFHZjtwOgOTn/PNVHltewJuTsynca7NCZIREyuoBwT0HXv/n3qk8krOzgySNnhf7x56Adv8KtXjC4vsJzn5uDkdR/nntV5beNYj5fBGCuDjH0/z+lac6VtA5bGVaWO9HlkIJJIOOe/X6dPxpsNoDqHk8McbmcqAOv88fzrchEEeUYhQFJDeo68eh71kpcNFqFvNAqurbiNwztHQZPPGPT1rWLckYT0NONFtrZljhPmAZLkkDHT1681e8P6lbhYopRHHKj7SQD3PGPbrUsMCTW8xhZizEkr1/z1PFYkenv9pQo5DIcEhfvnv/nmudPlfvHQrTWj0OtvoBFdxGBf3asHbBPBPb+f51oW+tZu4p5HdIHJjcFuI2xxiq+iGO6tHhuSGmj6ZxuVTjH9Rntii40p7SZ5YVLkYZQxwAcfr9ahc0byjt+RPNCa5J7m8Y4lumkDCVcgtgZ2t3/r6Vo6deG7uA+V8pUJz79MHNclpVxKPtSzMptyCdm4BwSMcev6f0qromqXEV/NYO2Cx/dcYyPr9P5UJxi+ZPzFOlKScWdHrUbTXivn5JPl28+n/wCqsJG8uUeZaIQMbnx1/E13WlWxmi825ZDKOvT5v8+1XZLS2aJkaNcHIJHQdOv6VlDBTqJ1E7X+ZccbGlHkkr+hj6BcWAVI4kQSuCcZBYbTzn8T39K3fP5IAC8bvrj/AD+lYOmWkKahcmGMCMttGFwAcc/0reRcExkqrE/MPXnH4/59K9DCuXsrTscWJ5XP3RGzg722nJB5we39KoapaLc2csAXgkgMBwD/AI1olAGbDcN1D9D1xUN2GSJ5GGEUYIxnGPrW7lfR7GEdGpI8Puoil3tPykEg+menWvUPA1m1t4bgfO3z2Z2K8e3PbtXm2sxsNVuV2ZXzWKkjt6jtXqvhAb/DVhJt2gR89OOoz09v1rgw0f3jv0PXx037BW6/5G4MkqoIJPOPT9OnH+cVIAeCRtxkDgDPSouFfAXBA+bpk9+PSpQoUkqrBQfXvjnp1616Fjx/IMMigqeByCcHj+deeazFj4l2eCS+3pnaM+W3HvXojHa3yAMq/LtI/HGccdK88u1EnxPDIWCxqA2eh/d9vbkf4d6yqtvl9UdWFXxPyZ1vzGPL7y+M7gemR2prNskCHhsZ3Jz0+o4zRKCQpDA8DBznP1/+tSESAbWOcYOcYA9D/L866EzlSFzvzGzEttznd/n3pASiiMhigOQu7GD2/wD1U4MV2hflI/jI5p43MdrEs2c4A6c9f1ovdAIJCrjDEsCCp9frx7/pTl+XIADDn6H39c8GmZKYP8JAwSep/r+lOIaOVQE27TkZOMn6VXqS7FfUNMs9YtzaXMZbcSVfHMbY7ehrzTWdDutGvB5z+ZFIWMcmOHUdee55zXqpDKMlTvHXIHQc/wBKgvNPtdWsWs7j5oCCN4/h9CM88YolG6LT1PIzK5jJO1QPmIHfvVlEYI2WzjqQMHH+fftTNU0+40i9azm5c/MpwQrDnGPw7etQK5G3IHbkj9c/4e1Ya7WKWpaTHIJVUHRgM/rin7iRuydpAXOP1z7Y/wD1VDgbgI0Jx1XHT3qTnnOG4yCowAPTr/nFGhT0DZj92GXPAK+nX/OKZK7xEbckEDHy5/Tt2qR9mMqTjuCeg/z/ACpUIHUPt9j/APXoV0gR64GjAQEfe+ZyR3zjn8RSHdlVYkN0ySc9env/APWpXVQp+bnPJI+n61GAGmUFPlPVgQD+lb7GOlh/AwTyWwQcYx9f0pEOCJAmVB44AHqM5NRyrlkRQuVfkE8j/wCtyKV1XzFXaWAOchjxgdh+FFh2Q8ycgMxfJzwM9z7HHWqGq6pZ6XbCa4bERbaFC5LN3A9auNI0cbkYLjnHJx/n1/yOS8d6ZcXWnQXC7mFoWZlBOSD3A5qZtxi2ty6cYydmZd54lbxFrmnWKW0aW0V5G5Lth2wf8M8CqXjNEHimVVky8caBVB/M+3f8hVXwhAkfiyyIRnyH4lGNuFOGI6H/AD0qz4vCTeK51VcMIUyDyeVH+ePWuDEScqbbPQoxSrJR7Hc+HZF/sSzwVIEY5A79j+grUPUlSDGCM46jrn+dZPhqMLo1rvJQhM5AB68jp3HPIrX2KPlIwRwcHHP0z71tT+BehxVbOb9TlvHIRtBOc8yLn5t3OP8A63+ea5zwlB5t1E7kbACyjIJNbnj+V106yiDbWlmPTqcA8fmwqp4ciWXxFcIh/dwxhBtX04B/Ec/5Nc1SPNWXyO+m+XCv5ndqxKjLDb909fU/4momVAByqpwM9ef88VJsLMGIAOc7ttSOhKKOVPQEDOOP0712NX1PLVirEkgbYrAKpzkEfy68/wBanOADLgqwHG7/ADxTtg3ghVAyM7Sc4xUzjbC7I44XqOuBkc/j/OjpYrW55r451CNpEittySlBvJHRc5P9KwbHWCRJAqlgvBBBPsfx9vpXW+MIYzZZCxKQ5Pz8HpjH6g1xsNl5siuZFiyAVXAGR0P6jvXn1JcsnJ7nqUEpQSa0RdCrLJjKhfM3eXuzzzkc9f8A61bEAiS1a42umzJzu9MHn9OlNuNNFrp4nWQKydieT7n3/wAaxzdyeaGKOBEPlyepzWSd3d6l3vG0WSavdo6iUzEHGPKDjOOmfXNYEcJkOwbgh4AJyWGevtx/ntViS1QyGQTN82MkyZ2jGcfpWrY2hTY+0gkdSP8APOP51pey7kW5ShFYpCxLKpc4I57f5ye9Ou7iK2tXmcn5VJUAZ6Z6f5/+u+9uhHqCwxuN2z5iMcD0x+FYWo6lm8dVAdFAG0nnJ4OTx7VrCnzPUyk7K5Xs0fU7nzLiX5VbhAMg5bp+X/6qju7xI9XdZBtQZj5OAq9uPcEVLaSCyeVpHKg84AwCfT6cisi8lWe781YyhcDgHJJxyfy/lXUld67GDVkdbo2tQQAxyMpK98feGepz/Kuos7ayuGWZF8yNgST0P0/T9K8xgjPmo6/JhhkgnPTvn2zXc+ELmQQ7ZSFCNxhuobJPT8KznFFO61RoOx07VCwRsAZZR1Cnn8sAV1iNDcIABEN6fMAMEnrj3/8A1da5m4nDSu5AAYYUsCR9M+/+fStXQJkmj+zTqN6EY+Xqv5fWuWlU9/lWxrVh7im9xk9qkM4jmfyPMXO4Lw2Ca5ZBJD4kZyqgxybgc8N7+mOf15r0PUYIX8tpQu0KQu45Of5dq88nYNqokjlQuobKAHhQRwTnn8f6VM4cmi7G2Hm5rU7/AEjxFHDBIs+CTjYFbjPt6dq0bPV5LyOeUv8AKvzKqjgqc85/A81xMUOLIXDMHHAbK+vatPS70PAEVthSFYnySSTuY5GPbA/DvWVHETStJ7f1qVXwsGnKO/8Awx1elwo1gjMTiXcxHQNzx/IVpRojoxbbnOMd+fp+FRWUXlWyQ9Rt5yOh/wAPrVnYNoCZdfQ+o9ufT/Ir1aS9nBRX9f1qePUfNJyQgQHIQbm9McZ9P8+lc94rv5Irf7FkKbgEEngLgdc10WwKrK6lgOORz0wP5/pXP3Wnwajq5eZFeG3UELuBGfTH4d//ANcV+Zw5Y7vQ1oOMZ88tkeZ6xb+VeRbtwaaBHIfPUjp+leoeE08nw1YFdxHkjAH5n6GuA8ZeU2tk8sojUDJzzj0H8/8A9deheFwW8N6cy5BNsmRjr7+nWscOuWpNdjuxk3LDwfc1yUfKnDDocnPIH+f0qZQATxnGDwOg/Hp1/Wo8nG5YySAMDnn2HtUqKQ4HdmAABzn1H+eK7G0eYgICqSq5cgEn0ziuDnIT4jvhVGI+XBJzlBzn26flXeCRUUPkLuHzA44P/wCuuF1gGHx/auoJ89dmOQOUYZ9OoH6VnU+z6m1D7S8mdD8wJ+ZVGMnHrTWLSHcBgp15x1/nSxldnmg8+/v6fjyPrTiTuXcu8Y4yQcEjvXQmc1hiIWQpzuUdVFOVdx3ccnBY8fUUj4BxuOz+ElvvfQ1KqlcKEOMYwOAPWmn3HcTG8gH5jnJ3DJ/zx9KdGpKeWy5ORt29h2H8qFVVbaFLDHJLflilIAJZT8ufrz2zVPcT3GqoRIxhTkcdsf59KfuVQ2w9yynJOSP8j8qNuGLkj5wDyOvTj9KcADuy2OBwT1x15zTSsHmY3irRRrOkuIB/pduu6BiOW/2PcGvKYyCp+baeAQehP+f5V7jEdzApneRhh2NeV+NdMXRdeDo4igvf3yDOADxuA/Ejt0IqZpW1Ki+jMmNpRhQMAnsxGB9aslZBuG3Dc4+b+v5VnpdxZx5y7SOdpH5j9Pyqyt7boSTOgYJgncD2/wA+lZNX0sWtC1u2KXx8+cnJ6H69qaUMvDBiABjAxmmG6hjBy6Hn5vmznHQ043ERkyH3IVyAG/8ArdulGwJ2PXnJZmVB8zgt90n9cU1WPnM53fdJ9uuOfyp5IcgspwDjoeTkc9aZDncUVCCF4HQ/Tk/T/Ct2rGbWlwjUeaxJJOeOcY5/xJ/wpzbXkY7Dz8p74Bz/AIfpQhZZmVsgsO/HPTAFKSA7AsASM/dyQcnr6fT3pB6mL4k1xtFsVmity8ruEBbhR9e/Yj/POLovjBtQu/sN/BHG7gMjRZ2nGSRg89P89K6u7t7a8gaO6iWVGzuDY4/x7Vk3HhjR7JlvI1aFoWDL+9wowfc/p/k4yjVUrx2OinKjyNSWvc2NkZlQiEKxOS20Z59e57/nXk+vTC58SanchvlSQqT/ALoA6+mR+tdvea3a6NoZLXPn3bIdhMgZpZdv3gASMA/QdhXntqqxac+Q5uLmRURyRjbnJznnJP8AI1zYl81kdGDi43kepaIgGl2kec/ulZjg9cf5H+RWsCiqQATnAUZ79Pz6/lVS0j/cRABgCuABwfUD+uatFGABOWGcEN3/AKZ61skkkjjnK7b8zz/4gknVdNiUjhS2enUgZ+mFqfwLECb2bOSZADnnBx16eh/DFQ+O2A1iwHlgkR4Bz1+Y9j/nrWh4Hi2WU8idJJSSSeOP/wBX6fSubV17/wBbHe2/qqX9bnaRj5cHdtC5+UY/z2+tJIVkBLHd1AP+f84qPhCfKIZgNpAHpz/jU3BhOCjHGDn6+3fn+ddbPNSZEDlDt2hsn7x6/wD1v5VNISyNlvmUHOOMH+VMZGR1ZAOeScd+46/5/GnzbFt3LMcdMZ7j/J/z0BK76Hn3i5PNFujSj5yPm6Zx/nFZVtaKbeNsoFUck++ePr9Kv+O7porizhRF2vlnYZ5I6D271hWuovdahFZxlEZwvLAuAck4x0z/AExXDWSlP0PTpX9kmbd7PcwafIqgxk9Cy5OPTk+9ZFjZyXRY4O1ecDjcfU5PvU93b3C2EiXs4eXgqUJHbH07H8TWlocXl2W59jGQ8L06cc+p7/hWEIJNpbGs5NRutym8NrHIVWQMyrzk52Ac8471h6/rKQr9lgx5zEMzjqOc5/nSa7cyR6o2WYEJgKp4Iz2HcjpXMyFDIEkUhiMbmHGRj/CumEI7mMk97lm2uHfUDM5ZmxyDzj0GccirCxwGCbzrcSSOdwkIIKHB4/8ArUthYu7PvUAAksDhTn2PpWjYANalRja7HGTkj68dff3pymr6DSaRhz2IniyFw/CEHvzj19h+f5FrYlJE/c+YeMl84x2/Hp+ddCLOJWMwYtuJJxjjt6dz/k1VvPMGVCkE8BOSenb8BVRldWMpPqV4oFjumE0Kr02sMDAwT09xVxNSg06e7+ZwGA2Dr0wePQ/59atR2y3toq7W83bxgHPB6H361j3NuhwLhcTd2LZ4x0z1/wD1UmrvVmkJqR12lSLqcKzMwDE4bj0x+Y9Kkawks5FuVlKfMNxXgt6fU1z+iSx6XeQhkIDL1UdM8/j1H513G3+07Qxh1XAGOcA9/wA/esJQTu47l80o2vsGn67b6oklvOF3cbUzjPsOO31/wrOfSYbXUPNjACHPO4ZLEenOKv22nQRsftEW+U4ZHY42AdQD29x/Oqmo3aJdIyyFR/Fu6nJHbGe1Ko24X6ip2VS0NivfX6C2XZ0yQ4xj6cfj+tWPDsZdYg+fmlxxzkf07dKxrsSSag0SLhm5GB1JOK7FbCTR7GyMduzhSGcquep5Pv35xXJTg9Zv5/16HbWlFQUFu/8AI66JFEgyFLH3yPSpMyArxuVSMYFUYbky7AkTkAFum3B5/wAn0zU/mSeUfMjO4jnHAGfTn1/nXt+1i1fp8zwXCV7MlnmkWMyEjcRwo9fx/wARVazi8qDBkBkcb2DEkn2H4f1qVIHmk8+bAJ6DIPPX/Hr61LjdgZ+Q/wATcADkdvwoS55czXoGiXKeR+LcHxBKrKcEhN2TwMA/4H/OK9K8M4/4RzTo8DAt1HzYPP8Ak9q878YoF11/lGGVNp3dOMf416H4Wb/indPwpKGEYOR09Ofy/GubD/xp/wBdT0cWk8PT/robIBkX7xBJOcj73T/9dPCkpng9OOnA6io2R8feG0N6988fTt+VSYIC/PyDzu55/wAiuu55rQ4y7gPmHByAPT8BXn3jgyRajZyxD99FmdH29RGCXGccjHOP9k+td83IO1NwYZ5/z3xXBfEaznl0qC4jGBbS5dl4IDDBx04ziomrRZth5JVF/W5u2VzDeWsN1bkPHKA4LYznHQn8TU7jdIGGFP3WI455GRxXkOi6/f6M7+Q5eE8tC+QuQR3Hf6V6pp90LyyjnCERyqrAFj19x/npV05qbIq0nTfkXJGG9eASSSQ3B79qdtwnltJhx1GT1xg/0oXYVUncBtOduc5pwTam8hvmI+YHrjPetzJocpOz5lyDjkckj/P9aNoD7gxO4ZJDf59P508AqwILAgZJBJFDkFuSRxwAcnOenPtQkJ7hICdgKAYbgkdT/kUqnfheqjHQ4AH1z/TtRtCDOCCDwG/l/wDXp68MGwfm4/DOfzp7LQXSw1XUjlxlSRjHTjFcf8StLF54ctp2Rs2k/DDrtZcYz25212TEEMD068EHB9qxPGsPmeDNR6sUAIIA+UhgRjFO2juOOjPGI9KhEZO6UIcncrngY681KNLtOCBKQ2Dnfn8P1p8bA7iZOCMAEcf5/wAatgHrtccbevQ/zrnTNd9CE6PbDKDzCMZOGOcY/wDrnNA0qyZs4mI5+71P6f5zVtpBJuDrnAyB6H/OKeqoVBYgHnsGxn2/rTQnHQ9kbHmH5hjuemf8/wBKi+9IrZYqTggDH/6//wBdSbccMRjOQGJwSe39Kjb5T8qnODtx/Ef6VrYzW5HI4SXGMqRzk9Of8BipJQS8RLBFyA2OAAe1OCsyFSwJXcuR9eoxTIgNoDFRL1XHH4+uOO9AKyMbxTq76JpBaIqbtyEiVhwrH+L3x6D+tea6hqVzezM0szvMc8s+c49OOK9F8VaLJrGmPFAWE8LAooYnJH1/L615cba4tpmt7qMwXAOdrnGT/k/SuatzNnfhuXlb6kMqytI0mEYMoAZuQnQ496tReUbyxiHyBJ412/8AAh+P/wCuq0zNFcGKReWbYV9T2qMPEkituKy4BGOMHqMZ/wA8VySsrHZFO3qe3Q7Z4w3AXIIUnA6ew+lW0yVLMh+ZsDBxk/y/D/61YXhrUJb/AEqKS4iaGYY3KxODzwQPQjBreUHytnC456ZPA4554rrvdHkyVnbsee+OZvM160tSADDAZOuMdcAj8BWh4BZpNOdgCUE2Bk9RjJ7e/as7xwIW1a1ZHyWhKMAemCfy60/wFDJ/pRDbVO0Hb268/wAvWuaMrVjvml9VXQ73cvQcj0PTj/JqWMAOFA399oPYe1MRckuS21sHH9TQpfO/YCcYAPJHr3yDXS9Tzupa+Qld7tnvk+n+RSXJAgwSOh6Dd06dPwqGNgNybsDrgkAA/r1qxMoA2ZBAPI9cf5/zinfS6BWvoeWeNrGSfUYpEDLHtUfN91mGf0/z1rAgt5LKVZHwqk/JtIOWz06e1ekazaiaxeXaFaJCcY4A6n8eg6+lcFpt0lxbhCRvBzyOVyen4VyV1bXuenh5pqyWxM80c7RowckYO5jj8Pr/AI+1V57i8RQ0UpQRZLFM8nt/j3/wvXLQWCS+YFaWRck7iGAPqP8A9WKpWqyvKylQAB83HQ/5/HtXLZxfMbtpx0MZrdrqQStl3zyQ3bqf6UfZGMgKJlQce/fpznPTv3rpY7Dy+UjCk9QOoH+feoRaf6Q8zEEsBt6KOnb9a1UmYucXuU4bcKm8oN3UBzn2qYqI1QbcgDgHo3p19vp2q+qPsUsyMp4LMcnd6/yqCSXzpDtUDB5UDAH49RVxTbMHUuik8mwIuyQMzYGCcA4xnH+etSRW5C+ZMwByTz1TPfnv+tXbe1CkmQFyCSM9BntT22k8n5QBglf5dfaumMDGTuMjjckkg5APoFB5rP1PTm89bkIzKfvZHTjr7/lW1sbYSpIA4UkZGP8A9WaseSJIcSn5ScNg4CjpirnC6uhRnyvQ5AWpnH7osmVztx936c/hWnpF/JpMYE029txctyS3+PB7+taiaMDOpkHyHhGPOQeASP8APWs++0nZMxj3lVx97PI9/wA686aa0Z3KpGasdFD5wkLyBZI1wwbt3556VnaqscZkk81FfI43clsYx1zj39at6dOtxELZCWTYdvYgc8dfXH51U1CzEFsJcgsXXn1zkY/XNRDmWq2HHl57PcqeGIJjqsIvJHZjL8pY5OAeOc4xwK9dEKFM4y7DeDt9fw/z69a4jT9IlXW45HZViTGCrdePYdc9a704Ckjg4ycH8vrXXg1K03Lv+RzY1xbjbsQfu48hVJJOMcgVJ5asudwHYcY/X/P600EKu1sFRncQev8AnNODHYyxpwD1HUDv1611yOLvoMUt5KuOhBLEj3PXH0/WgOGzu3EgHGTjj69O/wClJkx4A+YsBxxznP1x1NI67DtGScED0HccUDdkjzDxihk8RYclYiEDNtztBzyPyP8AnNdl4NkdtASCaMrPbu9vIh6qyseCD9f/ANVcv8QYUF2kuRuZNpXH90gjnHPU1r+EJ5TqV9DO24XkcV8u0kcsvz+wwePwNc1OPLUlc9GsufCx8jtNuzKHkkYz0PXn8OKkBzgEgqRnBGcnrknHPX+dRkgHaSvPUHsR36fWo3kSMuoOSBnpnPfr0xXTpc85IUkK5BYgEHn7p7546f57dsfX7P8AtXSZbd2CiUbVdeh9+nYjP4VfLg5XuMbs+3X/AB/+vUGNqtuQYI2qQfr70kuZ2He2xxth4EtrZVE15PMsm0mIuFRyOmQOWxk/SuxtYFh2xLEQirhVA6e35CplIAJThmO4AKMf/XqRI2VMuCHznJwf85zWsYqK7CnUctWyurKz7Dk5zjGewx/n8KkCjdg4bGOqnjPf645qfci8jKlR8uc5Pfr9M/lSKAFAx0x1IOKvYi9thuAxO0hcfp7jIpWRmZlVScDv27f5+tORUIPzDHP3cceuP5f55jjQo248ZHRe468de34flT8hMeyiQqMuSBu2hc4yen1pBgyZkYtycknBJxz+tO8vEeOhzzyOmPpS/MqfMxHZQTnnr09KSYIRFATJbB6Dd0wD9fr+dYHjmQReC9Rd1OX2qpBAzuYcflW+cFM7lHYZXB/WuI+KV9Gml2WnJMA0kvmv82MhR059yPyNN3VxxTujzWHgHO0Ae/XirsUpViyybsAEKTyD2+hqjCq/KVIAP3Rk4Hv6+tXEjwuHHzcfKRzj/Pt3rntc1TsTx4+aNThsdfy7VJHLgkqATgAg4/kaaoaRQyB+GHzE/wCcd6e20v8ANtA+uOfpzRbUbS2Z7K7vuA+8cYBwSfTj/H1pCEYEoSVC5wT06ZP+f/1PTD5yCuTlT0H+eKcrAA5wnBBXGc/iO1dG2hitCKTmRCuf9rB4Yn0+nNJMjbcr67QCOnX8jUjENnBJbBGOOM/5FIFLFl7gdBnB9f8AOaLJDuRq4lwRxJ2LA49uO9VLzTLO9bZcWkU/Jz5kQbHPuPf9K0JCcAKMDOck5P8AKh8BlyrLKQSGJ9v8/nRuCOaHgrR1uPPWwR05yrsSvPTKkkfhitCDQrC2Bms7SJWPGVQZxnP9B1rVdMSEjCSN1VeOuPWo0GFb5uehPBzxk/45qOVdivaTa1bIlhjiZQB83cLzgelSAHhZCwJH97OPp+VSfIxBbBbGAMZ56c/lVPUby2020e8upWREXPHX2AGeSeRj3/GokrK4RuzzrxRYzWmsIHmDs5Z4ypPC57j6nB+lafw/XFtdAgKTL0PsB1/Oub1jWf7W1GW9lWQKF2QRAgYA6ZPPrnHr+u14Jvorc3CNKI1JEgYYwRt5x6Yx/wDrrhpx5ait5nqVbujZ76HpEYLqUODIOc5zg+n6U08oOcIDzg9T9abFIh+TepOBg7eeefy5qVVIwTkLuwd2OeOea6TzNg8rd0Zc55P8un+eKdJEEgKHByN3zAcY68/j+n40iBIoV8sAHAGAMk9f8alfaYnOCzldoyvvT9Qb1MPULH7XDJF5skQC7T9M9K8z1tYdPKTwmONgArLgKWAPDFRxXqd0yBioGTJjsBnnj+f+cV434n8OS2XiGaUu/wBlnJkiZjnaTyV9sGsp8rj7x1YaT5uUntRcas+/GDLlRhT1/wAn9K6+C0eG3ihmRS64y+B82R3x/n8az/DsMZt/NBUkdgAOxx0+vtyK2nk2hjknjPBya56cPtM2rVNeVGdcRuI3Lkn5clmPK/5FZrspD53/AC9uDyc4+gqTU9RitFdsl5D90L8xPXnjvmodME91ATKpj3MVI9vf3rRQvsYq9rkkSTykoQpB4wB8wx257c/pVhLVUUbRmTHtnn61Z8sqQFChcYK5P6/yp3lAICWGFHAGcN/+r/JrojAxcm1crrHtbBIGBkg549+lNeMKoGHyAAqAk4A4zV3YzMMDGTyR1yOv8h+VOMW4FWZQF45U5Hue+fatIom5WeDaGYKevGBknjrj/P4VPbKqkh1+Zum04POPw9fypWQM+VDDqeOD6DtU6hsFtxwTg++fX8qt6Il3JkRcgPyWOPTHrjv+dJdWyjTrrcgb5doxyTnvjv2qeEJsVCpGd3GODyfX61OII2YGQcE56/n+f9K56tPmV4lU5cslfY51LWSw2X0CbVRsSdsc85/CrQtrfXrwxvdbDEN4RU44I654PPFa01qhjmQhSHwMA8d/w9f881ieHbG9i1uS7OGsnDIG3g5YkcY7Yx3xXNClJSUXsdfPzxcuqOn043SXYEsO2P8AhccjI459OTn8a6fcHhRgWwRu4+mc4rn5BcSvbwQgCMlt7ZBwPUe/X8jWrZTibTon2gfw/wBMfmPXvWtNqMnC7OaaulInmQYAHJ25xt6ZH054IqLzQXIA9B83TFP6kbVYFsBc546H8KT5I1DIh6Y3A+3+e1bpu5nfsKApVQWIGDgZ3DjA9+P8KaXXOAoBIJwvOPpiptyxHdtUAnBGcZ684qKUhs7WYDBxn36/4U0gSucV4/gV7eBiin98QGHBOeP5/wA6wPBFy1vrtqpkXM8bRFgBjIII4rr/ABg0EeiS+ZgvxsyOd/GAB3Oa850udLK4t7tQFFrd/vAHw2Gx8uPbDcj1+lc1RJVU0elh7Sw7ie0hhH8q8njr94/5xUbTxRKu3dnABHXPHNUo9RhuI0eD94GBYYHUHkH6GpFjkZgXZgOGIJ4Azya3i+bY83b4hrK7xyyKwJAwFxjt0/8A1Vxl7ceKZr1IkhkjVnwEiQEdccmu+MYZVDgMRwMcY6cVJgADaMnrgLnP+SaJ0efRSa9CqVZU27xT9TP0wai9sBfRxrJ0wG3Ej3x39qvnC52nO3gggY5z+XJpq72cgHJLckHgEHvj60/G4EMPY45P5/56VvCPKrGUnrcjJL5UAfKpALckDH608KSSAucAAgHJ9+1GB94umCTnPXP+fakcH7gPyr94kZz7/wD1qsTYZBYcAk5BHbHJ9KaowQdyjBy2QSBj19ccU5V/eEOxJIz2wffH+e9IgAjzhhgfNnp275/rQmKw9SXIAb5SMAk7fr9RQh3OoAx3xzz9RTRkrswxA4J3EZ/x780IhkYgLuIO1jjr/nFOwW6kgXyo2fhcYPJ/z/n8a8N8Taw+v+Jbm5Vs24xDAM4yoPUeuSSfXBHpmu4+JHiw6VanRbT57q5GZip+ZI/TPYtggfia8piu5GIxZylVyAFA9QePX+VRN20RUUrXZegDOqjjgYBxz171ciLsMq2FA+ZR+eOlZq3h6ixlwAD95enHOPX61ZS9nOGWwnyrZ2kYPr+J71F7s0urmhH12PyD6jOfcZH+cVKfLLElcj/aOPT09qzjczl9y2MuAMYzjPPan/bLpnx9klBIycY65NT5iaT0PcHXbGVYuSPujPp/n/61PJ8xFBG8/wB4nqev401vlK8E5bdgckdec05ghjMigPuB+Xr/AJ/+vW/YzskNLKrKp3fMeATkHP8Ak/5xhQDhQEKkL/Fk9v8A9VG5gxAyVYnAZeg9f8+tKYzuOwFkHVc9KEx3tciYBQhLBQQDuJBx2J9+n/66eJdxx0cZwVGB2Of5fnSEqUHmblYA7iCeD1z/AJ9accndtJ3+in/Ofwo6aiW+oxWYKUGfLHBQtyDn/PWpVCEAfMWHH+fxpsaqNyqQQeqr2PGT6U1kbaWAdG6fOehPYmkrbBp0EZQUyo+6x69/8/Xiud8X6bc6vonlQPvkVxIFIznGeB+v+TXTszSMcL2+9jkHPXrTX2lAI0UqemRkr75/Ck4qWjKjNxakjwe7tJIUKXO6Odm5jdcHGM5Ge3+eav2Gh3uroIrdR5TBT52CFBPHXHXFezS20bxhZIkYqRjeuf8APP8AnpRHCEXy0UKB/CuCM9j6cda5vqsW73Ox42XJojD0nTbmzs44nlVpNnOAVJ9/8+la6Sv5gLEEkH5Tjk+v+fSrZkDHYEzzyVHt1Hv09aY0EbcsoZsFTk8de2a09naOhyc3cVGUsBjknB9vyqUMGjI8xQoAGMds+nb/AOtVcWjRcI+Dwfw79OvWpScxl9gXIKqAc/Xrn6Vm1JPUasZGojhArjczLxnnH0rk/FKyRwCV1IhVScgck9Mfj1rsriNpMM4U4bOdvOP69q5vxbpWo63ppgszCQTkhyQW4457c4rHkvJ3OiEuXTsYPh+5zp8TMCF/hBbnHPf/AD+laJkaVY1Q5BX7wO0sPXjpWfpOh6lbJ5d1aSJs4XIB/l+P/wCrrtwWyp8u0pnr8uMZ6f0/OnTpvls0FV+87FVLUGTew3E8Fm9KmjtI4xna4KnJUd+etXliYkIoc9gOn6mlA+UlQD1wDjBI/wD1966FFbIx5tCr5QUfMMkN/X6jigoRKzAhiow34VbSMkkKM5HK/j60/wAslhv2hFbGRxx/n+VWiSgIfLDAjaxHJC/ofTpThFtlb5fk5yCRjn/GrpRMAgnvg/p9OhpAvGyRjt54J5Pb+v601foF7rUrFGzkrx3AJz6UNCeU3YYY+YnqOe/51dMCuqtgLtPRePcf5+lK8IDH5sY5zjqKVgvbQjiUbSzqCBnqT3Gf8n8quRliYxkpn5SevT36VWDkSMcc5HQ/nUqSHIVcHjAIPXjr1pNCZO8aEMGHynn05x7dqyLWOG0vFticQ3GUkHqx4/PnH5VqqzhQMkqTjIUk/wCT6Vk6lZyXKqIZPLbcrKxbkbSDx37elY1Kb3RdN7pmzPcQ6DBCkisygrGp7r9a19OhVonMbFY5TuAAB5NZEVyl6RHJGGAbay4xnIPbH+c1q6XawWVuYoVVYgAAMdPXn8ahRbmipSSj5/mWJo2Cjkc9zjr6Y/Cjf02jCg/dBGM9x/KmmTDr5ZzgZAIHPH9c9v0qA3CqSQQSTkdwDj9a1b6GKu9y0ZFCDexVUBzg/kKqXVwsQaXPzKMkM2Afp/ntULSSyxYhDDuCcHA9cdaiMAUl3YyYHzbh+XHFNRbeiK0uea+LNYbVdXWATqkEJypc9T65/rWBDCszujuvGTvfPzHHbr7V7W2l2rnbLbxkdDuUHA545/X60i6Vp8D+ZFawxv22xgEe/SoeHcne52QxcYxsonP+DI7tNEXzkZUJLRgnovHHIz1/yK6sFdvOYxnn3/KnjDMqg7MAZ7/1/wA+1EaAgqoIwPunn9eldMIqMbdjiqT5pOTHhDt7BgcFg3+fbjHf82qCUBGGz144Yfz60ikbx1cBzkrkZ45Gfwp5VmwrE8ZQc8ZPTp9Ktq2hFu5HGVVvmBVAOQwH5Y9P8+tPznaWUjdntz+Pp1p+GUIwG4DkAjAGTmozg/O25OOg5PXn+f8A+umG7BkzuJG0EdR1/X8+aRcIxXOcvgN2J6eh/wA/WlbeWUgbOi8dD2HBo24BDHv0Y89P89Pai/cVgZ1WQsN+0ZwMfr+v8qQbhuy20AYBHr7frT2c4HyknB+bv1NOWIMoYP04wM4P0/z6UWD1Gqu9lUhVw3AI9x1/z0FYPjDxXaeF9PIBWfUJAfJibr9SBzt/nn8ar+MPHFj4Zh8iMrNqbjcIVPCAjIZ8dB/OvE72/u9S1Ca+u5GnuJcFnz0A5wPQDjp6/jQ5KOxSjfcdJdT6jcy3ly7zXMzbpGZsFj6cfhgew9KvQqFX5Mt6Bs98/wCH86pRJhvLxnnnJxirsduwdY2IBHp06fhWDsXqWYzHjCjJzgE9qn3HZlQwYH6Ent7d6ijBIDgnIyRt/Pr+AqcIoHG4nOBnt17Ur9yraE0YULgep4zwO9If9Wu9UlbJwNwPH1JppAG/bwOd354/l/I09Iyy8bzk5xszj8iKE2ncSbV7HrGnatp+uWcc1lNHJE2P+AnHTHUfQ+laAjbaANxZTnnHt+FfNOn6ne6PeLcWFzJDLwfqBxgj059/zr1Pw58U7K88m31pBby7vllC/u2P4/drZSUtyHHsehAFihzhckg5/Hn3qMA4wJMlTjPtz3Aye9OikguIlaGVJIySQchgffjNBUJERwSegznPpwfrV2JTEDeYoWVQcHrjHP8AT+VKCGc4YAZ7EA9On0/wpd2MptG0DAZRyfz9qYse7ayBsAYGOuO/9RzUpXGxyHaQTgyKPl9P168U4R75iFYnuSecD6HHrSB2MR8wb84AUDOfehdhJy5Xpt3cfh+dDBjBIAANrA8+pHX+fSpDt2uuTkYOQ2AfwpBna4ZSV56EEfh27UMUdQcts9cH+vOetHUVx2XUkQOzc7SMf59KYJdsuCpjAbkqR7fh2pTEdoC4cnpjtSM00b7edyndk84H49vb/JEg6kpOASMb/Qj6U1uVI2nHqemfc/n+VJG2Y25y2PlxyVx9aam1iv7wgDOAeDjr/jSSAlid1O7cDk5DA9BnGOaaWZjghST/ALOcnjvT90hZhjvwDycfX8aiL7CBggEgAgnnrz+tCsg3I2cY37WDDC9c+vHv2qNIwzbkl5JIG7NTl0XknPfLL1waQRxyEFWDDGc7j6frilyp7oq7RGqhlGGXD4wxPt07e1KsWXyyZC5OA4PYf4Gl8osjR4LYGc5HA9f8/wD6kET5+VGDPljxjj39/amlZCZXaxUuGKAMwxtC5CkD+f8A9eoGs7XzOVJJ4HBGetW1jKruDFPlG3DEZPpTgHjfBmQMx9QMj6U7W3C7ZUFnb7lyoxnnJIwf84pv2WEFcvjnqWJ69s9vxq15koAZS2VIbOR7dPypVklJymOBwPXkc0rdbAr7FQ2MaLtySCvbOCen0pVtIB8itklvlJ4z07n+dW/Md1GWywIGGwT29KckkgUFehPBOBu4x2osDXcqpYwqRkglXAb5iM9vrSCyg3jbJ8mdoypyfr9eKseYQ+9ZBjOCRzz07d6dvKHLSrhgAATu9/pj/CjRaivYiitIxnEe4rgk479DR5HzsBhuOGzxn/CpHVyVBIG0knI5A5z/AJ96RlbAKA4UYXkkkd/p3oQEYtmVR8+W2/NnnGeKDbJIAMrheihR3+oqURHzFYnaT2J24HSnoyrn5tn91R6dufr/ACpON0Ny7kFvYRpdxzlyUQEspB59P5fpV57lSSBFKcDnI25qPfn+LBbIA9efX8asRNlj03qPl7fQHtWapW2Kc2UJIbqZwrExR4xgEgntjP4/rSx2CQjeFG9x09T6E9zV4MylVXG4DnHYcE4/GmBWGzJJOScMOB/jVxglqK8hpjQSheVXPJ9SB6c5+tO+UbmAXK8EtyBk+v5ce30pA4YKSnzg4G3g4J/z/WnhUOGUkbjjAz+tVZCfmBXdld/J4xjpg9uOKjbaMcgoGzlvX88/hUmzGVKnPdQc9sDH6Ux1RVZTwvfPB/WnZJivqOAXAIOR7+3f/PvSmM+ZnaQ3t69fw601ZBGpbHyjrz0H+e1IFGVVVkJ5+8evTken8+Kdgt3HMwSFt4I35UKx56c/5zSbwWKZI4wVOTn8fxoONwIChc8A5Le2KMbfujADeo/H3oWxOthw+5nJEnfHUdfy5FQoMYbCgjlWIA/Tt/n0qU7yyBZA4x8o7Z9++eP0pSHJCk5I46f5zRaw7oYwAZmUjdyPQL/TtQpIcRbec/MWOcEdQCPr0qaNAWQlhjqxwDkfX/IrmfEfj/Q/DJaEOLi7xgW8LhmBz/F2UdOv5U7aai1bsdIDHbxvLM6xomSzOflAH4e1eZeLPimiLLp/hxzvP3rzjC/7gP3j79PqK4PxH411fxPKwup/ItAcraRHCg89Tn5j068fzrCRwsoIRvqD37Y/Ss3Poi+V31Lgd7mRp5pXkmmJLu+SSck8+9WbaAS7jkhM+3GB29P8+tQjAdRgMCcHA/mev/66tQoDsDkAZ/unHX1H4dPas1c0RPHGPJAAJXIxuPp3qysYVAEjPygEb/Ttn9KjZsu3C54GW9M8c9Ks7irfOoZs4HX7vHU0rj7jguEIDfLwCzLkjnr/AC/KrGxFIUHAbnDDkAEf0qtvIj5wPQA9/T+X51ZifEeTngA7lGcH2HXpSY1fqKSwDOWPBHCnkHvUiybfmWPqBn+nHTpUXmKqFA/fAJU85/Cn8M27Hr2pJIHqcjNbbYwSpY9+n+fSoGtC/wAgO1uT1xW0YyNwC8HgZzkYHA+n9e1QMrKrFixBPAx7j/61aO7QtLWG6V4g1rQpE+wXTRxqcGNuUb8M+/avSNA+KtnOqRavF9lkHyiVMshJ9+o/z+Pl7qzkbsEd/Trxj9Pz96hkjUDcC3IGCxJCjn1qlJrQhrVXPpK11Gy1C3ElpLHJGccg7gRz36/pxU/llVY5YoOOQPyFfNVlfX+mSG4tbqW2b7xCZzjHf/6/rXa6V8VdUtmCalaLcxDALINjH+mfp7VpzRejI5T19920NIkgU46gn9KaVUL8uVL8j2/l+Vc9pHj3QNWALXIhcn5knGxvXHPHUV0amKeLfFIGDd+BnIPf/wCtRZArjSWQF8E4JJK469ef8+tDOzSYyWQEHI/nz/np9akEDgn5dvYqo4/z1pu0xyD91g+mOPpzxRtoFxvkjzFIJ5IIkY+w/wDr/pUq+YrKA/cHII/z9c1G6ruILE445PGenfr/APq+lDRocMHBycbSOvXHX6f57nkDY5WOSGjQAD+EdcUjOiHbu+bA6D37H8aaCyHadwOcctnHTFLI6OqMyLu5PQDgfT8KWnUOVgPmUOrBjgAr3wT7mmNGyL15A4PbH9O9OZj0C7STx8w449TjrTQq5KnksMYPH5/4U0gVrj28xmAYEKezL047fhTTtfCOgHoQewH/AOr8zUjIwwDKGUc8nr/nPWjy5HP3CO+M55wPpQ0O5Adrrty+NuVz1PA59+lIqp5ed7D+Lnv7e461IznG1ow0YGFCjp2pSY5pBsTJK9ug/wAD7UnoJrQjIZ/nycA7uAefy4NKQ0hwZVOSSwK9P05pSqhfk3YznnJwPX/D6UrrCFbEhw3Q7c8HHHXjr29aAuRgHb/rVC56AjpnjvSNvOcmJ8EAqVHPHr1708BSGy4LAbfu/p+n4YFCgAY8xRjnj1/yefYU3sJMQ7xg+ZGOg5A+v+NOwx3EmMnHsMdPz/nj6UmI2AyfmXgnaRjj09eKeYkMp3clh02YH50rD+EhYMGUl0ycA9v8+n8qczOgx5iFgeM4+n+P9aeVRQZYyTjBwB396MqAmF4Unbg89PQn0z+VId7kROxgWk2vu7Dt7evanIpdiC7ZUcN04zj6enSnskRZSHLZB+6R06cfh9OlGwR5ZUwMc4Ocjj05o82LYbsQx4Hz7jlcjIA/x4/z1pflZFXjBXjHAGc5GP0pxUuPLRMjGFOe/AGKed4dTt6g8euffNO3ULjxlpGAPy9APbocVEFBUFm356k55P175/wpzMYmCqQpK8qeOvT+dAZ8ls5UZBx0+v8AnPWlZoN9hQwlkwMBPc5x9c9KXh0DHnHO3179uvSmFBggjAwcZHP+e34/jTym5PlMYcENnv8ATHrVadwdhN6sVAQnPQ8EA9+vP+falQkoeBn24x/nFKELGQkksvAORz+n0owCc/KBtG4d+fT3/wAPah6bBZdRqKMcoufQc/5/SlLAqygsQAAGyc49RmmqWjZQdxAYcenrx/Sgr5gyAPM25G7n3H60AtwBwSwB256sM/n2/wDrfjT3LfdLZcAnGe/v78ClUNsUAYHr6f4Dr+dSJbNs2cBMfeIxmny63JbsyEZY/IVYZ6kZKn270giG8rjPP8QOQRn8u9V9R13R9EV3ur6OF2yojBDNyPTr3x+VcLq/xehhDR6Ppk0zMPlmmBjQfQdfTPSiySbYXZ6QI9qMzvu2853d8+9cv4i+Ivh7Q2eNZ0upgMeXAdxB9Cc4HevGtZ8VeIfEHF9dyi2H/LCFSi46cgfXvmscWs8nyhGwT/d6ex4/zmpcuw+Tqzqtd+JOu+II3ghkGn2JO0RwPhtvu3XHPbHeuRC7gcsd7HLFj0+tWUs5MPuhZQuMnbwP04zmporWSMHETknH8JyRx1/z2rN+ZorW0KscKbmJXcqnJOOT19P8/lVqC1TJ+XGTgnOBnjtVqKznJVfJYjouM+/t/n8KuLZzlwfJfaT05B9eKUtQt2KtrbxO3MZAxlRkg+vrVpLZCqq56ktjbwev+fb3qWKJ9obapP0bjj1FWdnyqGjOCoycHnP0FT1LT6DBBGiK0QOSO/fjgA1NHEgXKKVJ9hz/AJ4pRGzZJX5R95QDntzkVKGO3aqFm6YOQDS5RuXQakaIucHOcYx6+/4mkjRAduVKknKtnqKdyr4AYt9Dk556D8KVWAc7lIU8fKCenpT5WrhcTzQS25yFB4OR9Kaxjcl2WJhnucdef89KsFQNpkBDdMkYP+f8aYcKcFSARnJzz174/wA80KKvcSlfY58vclnIjLqeW5Hr0yKEvJS67Ac4PPOD1/xq+4BYgqyt1AHb6e1NMS+UGUMGyeCuef8A9dHMJ66FAXDqcOhR/wCLPTH5Co/PlXkICu3jI4Of8+tTT2x3Dkjkc9B0/wA9KjKNyjSltvUMef8APX/61OLvqFr7ETSSfMSmVBJbjqRz1+lVzcM25sHgcZ5H5f8A6+1XWQoAcLkkKRyMZ9D+Bpvlx7eYyidfy688dqeoWKLXD72+TIUkKNuf89KtWev6rpZDWd1PEOyochvw54/xp7oSOmcEgED0+p/l/wDrgmgG9dzjA4Jxx7+v+FNPsJq519h8WdZtBsurZLheCWX5T/h2rrrL4r6Ld4+1LNaNkfejJH5j+tePOu0fM5wBgZP+R+dQTorqEfI3HkEden+PT2qlJ3IsnbQ+krPWdJ1PDWt7byZ6kMOB9M571ejjidUKYGeBhshex5zXywqTRnh2V88c4Pofp/n0rWs/E+vaeUe31KcngFWfcMjuetUpp7oTTtY+kpoXRQEyrdWAbGfbH4f4U198bhQpweTz+GM/0rxOw+LniG2ANysE4HUkFTn1z+VdLZ/Ge3ZibywkDA4JjYMCf84p3QuVnorZVc7D8w+Ug4DY9f8A9dIVVGKFcEgDHT3x/X8a5az+KXhi7kCPI8RK4w6EAduSf6Vs2/irw5qC/u9TtVJ4AZuv+etO0e4Xa0NApEQzg7WPOcc9qN/llQrKoOGPfHH60q3Gn3CnyrmFh3IkyAfarP2WM7SpDeh3c4NNx7k890U9u0MAdrdAVODz1x/k0pEuCvOSe3I7f4VbktI2lZgwypGMHr6HH9P8ai8gAj5hjbxg5+v+c0mr6F8yRWZpGyFGARwCB0pyABhGVVixAyVPBI+n0qdoJTubAPGOGPGfX/PcU3ypQuPm64HXGPT6f59aEm0F+iIQTKMhcoDlcr16j/P1pFYlwCiDjOMYGB/T6VL9mlOG3kknOc8A8kfj+FS7ZSxG9lOPvAdhxQk0DemhWB2gMIl+YEEgH/PHX86cJCGwIhuK5IwMn9eOaeUbbkfMoHcY+pwaULO0pKZAI5I7Hkdalq4EQyqqu0AkEkAfT3HvQgZAHCLkHPyZ681K0cxIZyxwehGB+dKLctJ8uwLjOCe31p2YrkIRlZ1jUlgR+nPP4fzoCyFiDkl1xkZP0qw0cgdH3E4xnCknsOeOtCQuH2buCMEE9fTNDTaC5GEdsBsZX3JzTGViSWdXOM4B6H15/wA8VILUAg9G5A9P8inNEgzuYsW9en+eKrldxdVcixswASpJ5C9TnHr17U9SYt3z7gCBt7bqWR4UcB5UQHn5sDj8KqXGs6PaBmlvIYyCergAZ/x6f40rBcs5XIHykN0ycc/5/wAml8t933cYwreuB+tc7e/EDwtZjL6gjFRk+WC3OOg9qwbv4yaLE7taWlzOCpwWQKDjnv8AhR6jd/so9CMDb+SWGflJ449SPz/zxQLdOPMfqQMA141d/GTUJBtstNiQN03MSc+o9veuevviH4qvy27UHt9w5EOEB+h65oukgUXex9EPcWVlG7z3EaYAILOF6j8a5jUPiP4X0tXE2pLOf+ecHzY4r59u729vnY3c88rcH95IW5PfBNRBUDDAOMAdRjpx/nip5mtUh8jPV9U+N/lMY9J0o7RyslwR+YA/rXFal8RvEmonbLdyRRE42RHaMH1PWsIQsrnLDjsTkVIkOFYspDA8uOfx9/8A64qXJtDUbKyQx7+5dizbn3EFm65H17VKt5KRzCcrnoO+fzqVIh5a4ORkEHPT8aljt0AwSoKjnIxjH/6qTu9ynexXF/OTgqcA8kAj/PFSJqMhJIhY45Xr/ntWhHFGGPzYJ4X6+/6dalSBPlGQSc5I65HGPrU37juUTqc524RvbAOP8/5+lkaneEAhH3N22nr3q0sSZUqMBB04GPpzTxCmDuyM4PzLwfrn60LyDQrLqN6kJZY5RkHA2ZA9vfmpV1G7UjEMoU8NgZ/p9avbFDkFYyW7jjH0Hf8AH0NKkJ3EYOCeTwcHtSb0GrFIX98XYeQQAw9OOmaf9r1HaAqcZKnAGDnB/EVdEIGD5Zzy2fpyTx1p5ChdxjCngYP6DP8An+lFwSVyj51+Mt5JywySQoPPvn6flSCS+ZtxiOc7jjGD+vTpWgSVZ1zguvHBJPp/n/CnuwDMdpIGDgAjn8Ocf0pJtbA0ZJn1AE4gcKQSFyN3+c1IZr4nBgOMDoRwf84rSBRctksAOCPlOfp2+lOV0UIWQ7T8vPv2xn2p8wbmSz34GFQMDxkuMge/+e5oB1TaALfcCM/MM4+gz0rTD7cFoxgccDGTj3607ILkKqH3zn9KW479ilISbbk5yQPp7/Whl2Jv3Elt3UDjAzxRRWfRfMlNtpEBfETzAAOMHP4//WpnJ2/MciHfkAAk8Dr+NFFaWSXzKT0+/wDISJfOzuJHzKBjtzULIFljIJ6Zx/n60UVm5PmRN2PjhWVQzZ+/jjt0OfrzUBG5FlYklpNuO2KKK27/ANdylvb+tiN1HkGTGGHoPbNV5fmuBH0HT60UU5fGKXxfeUrkCMMFA4Gc474607yVlLhiTheM8/zoopybuRJ+4mQYALqFAwQMjqcdKkeMJuYZ6MTz1wM0UVN9B/bsNMQJ4ZhhV4H1pkiqWOVHXHHHXjtRRQyY6yJFmlhdTFK6blbgMcdqsRa9qtr80OoXK98eax/rRRRHXRmkfjt/XU0bbxr4jjzt1Wc7Tj5iD1znrVq0+KPiraS18jZC5zGKKKFJtO5m0jZsfih4jkRtz23yjtGf8a6aw8catcS7XW34xyEIPOT60UVpKTUW0NxVl6GnZ+K9QuMF1gBAJ4Ujtj1/zmtBtfvVZMeWMx7jweefr70UVo371v66mT+O3mSR63dTTYZYgckZAP8AjT7nWLmB2CLHyvJKnJ/WiiqTd0VbUhk1+9SQf6s4HdT/AI1Q1DxPfWqM0ccGQCQSp4/X2oorJyfMlcdldIxNQ8fazZuDGLU5cKd0XUfnXP3HxM8RFmQSW6hfmyIzzz7miioUnb5Mvkjy3t0/zMSf4m+KZAR9uCkkHKoMjO7p+X61mz+M/EV2G87VZztGRtIX09PrRRTu9WK2lypPqV/c4kmvrmRvl5aVj94c1UwGBZssTjkn2zRRU9A6oMcSeqDKnHIwKkRBtlfJyv65I6/zoopPRMb2RFbfvDGrDIZjx6Yq3FArSqMkc9cD3HpRRTe/9dwbtFNE0cKG4aPoAnXvjOMUcMHwAoDhcL36UUUdGU9P69R6gKjNgZUjHHTPWrMMSvHKTn5VDcetFFFTRaf1sL7Nx+AFkC/LsPGPqam5LquTggk/n/niiis03y3/AK6Dfwp+pLHEgzgcjJz64B/wq1bopgkOACgJGB1570UUk7/15im7JETSMjsRj5WcDI7DirUMSyDBJwVZsDseOlFFaN2SsU9v68h8Z2Biv8PT26f40xJGYqnQMhJx9BRRS7FtaFoDa83fYgIz35HX86ij+aUBuSx69+etFFOCWvqYx1i36BIPLTcCTjIAJPGOKR22ShQOA5QAk8ADiiipjq2avRf15iGZghXAwdo+mT/9YUjtndkAjB4Pt/8ArNFFFtWVJKxOo+VscYG7gdTUUg3KA2SDz6fyooqE27/10FTSb1P/2Q==;" vertex="1" parent="1">
          <mxGeometry x="375" y="240" width="160" height="100" as="geometry" />
        </mxCell>
        <mxCell id="45X9PmNRLV-VkTAyh2oA-44" value="" style="edgeStyle=orthogonalEdgeStyle;rounded=0;orthogonalLoop=1;jettySize=auto;html=1;" edge="1" parent="1" source="45X9PmNRLV-VkTAyh2oA-41" target="45X9PmNRLV-VkTAyh2oA-15">
          <mxGeometry relative="1" as="geometry" />
        </mxCell>
        <mxCell id="45X9PmNRLV-VkTAyh2oA-41" value="" style="shape=image;verticalLabelPosition=bottom;labelBackgroundColor=default;verticalAlign=top;imageAspect=0;image=data:image/jpeg,/9j/4AAQSkZJRgABAQAAAQABAAD/2wBDAAgGBgcGBQgHBwcJCQgKDBQNDAsLDBkSEw8UHRofHh0aHBwgJC4nICIsIxwcKDcpLDAxNDQ0Hyc5PTgyPC4zNDL/2wBDAQkJCQwLDBgNDRgyIRwhMjIyMjIyMjIyMjIyMjIyMjIyMjIyMjIyMjIyMjIyMjIyMjIyMjIyMjIyMjIyMjIyMjL/wAARCAEjAbcDASIAAhEBAxEB/8QAHwAAAQUBAQEBAQEAAAAAAAAAAAECAwQFBgcICQoL/8QAtRAAAgEDAwIEAwUFBAQAAAF9AQIDAAQRBRIhMUEGE1FhByJxFDKBkaEII0KxwRVS0fAkM2JyggkKFhcYGRolJicoKSo0NTY3ODk6Q0RFRkdISUpTVFVWV1hZWmNkZWZnaGlqc3R1dnd4eXqDhIWGh4iJipKTlJWWl5iZmqKjpKWmp6ipqrKztLW2t7i5usLDxMXGx8jJytLT1NXW19jZ2uHi4+Tl5ufo6erx8vP09fb3+Pn6/8QAHwEAAwEBAQEBAQEBAQAAAAAAAAECAwQFBgcICQoL/8QAtREAAgECBAQDBAcFBAQAAQJ3AAECAxEEBSExBhJBUQdhcRMiMoEIFEKRobHBCSMzUvAVYnLRChYkNOEl8RcYGRomJygpKjU2Nzg5OkNERUZHSElKU1RVVldYWVpjZGVmZ2hpanN0dXZ3eHl6goOEhYaHiImKkpOUlZaXmJmaoqOkpaanqKmqsrO0tba3uLm6wsPExcbHyMnK0tPU1dbX2Nna4uPk5ebn6Onq8vP09fb3+Pn6/9oADAMBAAIRAxEAPwDkdDsBq2tWmnxhiJplVznjb978MYNfR9vEsUSQouyONMKnQ9e2PavBvh5tj8aWskkgEYVyBt6k9P517uJo5ULIW3tgcgjp2/rXPgklBno5k3zJD2y7ckE9N2cn+VYGvWRBjvI8AxuN4x1H069vet9QF2jHK5OM5Gf6VFeQearQsmQQORgYOf6V01I8y5UcUdGYFvds7OHjIA7k5JGR2qVoreaXef8AWHtk9fT+dc1r83iCxDRWOmT3CofkdAcev+fwrOgn8W3oxdWU9urjoEwen+J7+leNVc43TjdHXCEZWadjqNR1KKCJ/NYAY5IJG3A4rz7W9Rt7mBjI5ZwMlcHP+elW9Q8N6rfQMwa684HO1k+XuetcleeGtWTczQOQx5yhyfTNYwqym9dPkbKEY+py+oWgZi0bKELFucfkTxWd5Z3DfJlB15zWxPZ3EKkSpIvHRlI/Q9enWqjwP94Aq47gHGPU/wCf616FOo2tWZumuhViRdowuCowSfT/ADzXe+H5oBaRrIQF69funjnnNcKIhF8pkBXrzxjp1z0q5bfaOUiZlZsgqhznjsOvT+f1qMRSdSNjJw5mepx2ltdowUqmRuVjgcHjqPpxWDeaXNBPIGVvvZVuvHOOO1UtFuddjjWNdNv5kzhSlu2enc4xXV2lr4hvDGknh69jB+b96qrke+T715v1OrBuyuZ1KSascr9hbiMIiqOMnngev51pW1t5pSLZuLnqpyfr+Oa6638La40rB9MVA+QCzqeSfr0pLvwhrSKk9np5Msa5wsijcfzqVRxE942OL2dtGc9aX0GgXbXE9uJIkJCIWwF6+v1ri9Z8VSXF3MsK7PMbIXONuR0/z/8Ar0NZ8IePr6YtJot0Iwd2Y5FJ6+zc/wD1qxG8E+KbaUNNomogZySIS35Y7/4V6VDBOEeaZ14enGMkza8NhGLSy7j6ZOc/r16V0ksiTDaxLIwwyk7Rg9selc9pdhqMEJX+zr9ODlTA+f5VeVb8tzZ3ZXAJHkt7dOOOorzq9GcqjaP0jCxoexVpIzdU0m3huIpLWMiKQfMDyA3fH51I3h6Wa3Uxglz26f5//VWpaQ3zjyX066MTsQp8hjt9OntWxb6XrG0bNPumCjg7CCffnHY05SrpKyM5RoRvaS+9Hms2mT28q7kKq3A7c/X9amttIe4GFUEn5MDmvSH8M6vfoUk0l3AHy7iOevHWn2fhzW4SyR6RKispBY7Tgfga6faV3H4TiccIr3kvvR5zdaFdGBkj08AJj5hwTwe3rXJTW8sDmKRGRwSSuOfyr6EvPDV5Y+UY7Wa4GATtTnP+QK838b+Hb6HUVuxptyFbhisLfe9ePwrqo4irzcs4nh4zB4VwdSjI4JGZW2ggMOMkdPyq/bh7rbCmGZjkDPQZ/wDrd6guYfKX5o3iOerKQPfitTwyIhdrJId3Ye5wO+fxx9K6p3SvY8qL5ZWPQvD/AIFsLnT1Zl3XB+7nPfjP+f8A9Ve+8AQQTGNmLOOSdp4+vTvmur0OZkijUDJ6KR34zjH5+1dna2i3MeZ4fLYZ2gEDcOORnr3Fcd23obuXKrnz3qnhCW0y4LYA+Ugd8Hj69K5m6URzbHLYByGPf8+2K+ob7w3bXUSSLAm5SCCB6V514k+GFzeSC4tTHuyfzHc+vat4SlHcxqSU/h3PONH8RXeiM0YbzLRzuaNTwT7c8ED/ADxXUXl/pGraQ81rMLWSFQfs0jcnOc7fX1rD1TwJrOlxSTNCWjiGSe/PpxXKneuPlIIHXPQf5/zxXVGatYzjUlDQ2bwpKxYMGkCgZ9fx9a3PCWnOZzL5Z3c8YzXILJPIywqN5PGFBJz9K9j8DaJJFYQzTqvzMM78ckkUJPYHPmlc7fQLL7NDHtQgnsT04/yK6nTw6zEMf4QRxWVbQBYlRQOpJGQO3H+H4Vp2bFZl+bDYPA4z/nrVpJaoyd+p5J8T4mHjFpeMSW6kZ6bQzf8A1q4xcx9FBOOnfFehfGGAR6vplzGoPmROOAc5BH+NcGFaRFUKRuI9ueteVXS9qezhGnRTL2joDdEnd97JB78f/q/zivRtW3f8IlpqxqPLMoVsgnGM4Ga8400iKZlyQVYDpwPz7/59q9NG1/AeX+Uh8gnnJ/T36ULWMkKTtKLXczLeRXtVRcjgKcj9P/rVYt0D2UmFPyk4OMj1otiGtg5xwu0HJ5Hr/I1JbqNs0QjbcBwccD19v/1VnhtYJnFjP4rRfQDzYZAAzBeMKcH29+gouWDRSkPuKNkY706xwkUIKksePyGKGCLbSSLkq2CUHPv/AIV1q3U4vQkR45AVz99Aw7kevakGPtduM4Eg28HJJxjHXnpTl2faPmTaCg4PRc5H49/yNFx5clvC2eVJ3ADOCf8AJ/yabYaWGWqpsmQgllYFR2HNTbf3UwYEAkE7gBn/ADj/ADmoLI5t3Lch8qSD2q3IP9GJYEOqnoKfUTvcY0p/tODaNoYbeBwfy+lJEirquzAGct8ufXmnvue6VwG+4pX0PH/1qWbI1CKU/dIV/cf59KpWuF+o2MMmsBSGMbt1OBz0qdEaG8uELYXkjnv25HNQXGUvoZxlVJ5z1HPPPfmrc0R+2FkfqPm9Pb9cDml5CtroVk3XFioHzOpyQowcc0Uljua7liyS7ZAYex6e+BRVXQXPCbW6nsp4Zoyd8ZU7iO+enT/PtXqGh+MYtQhj3yeTPwCuOpHcf57V5e6jaueM54C8jPckf4VG5eEjY20rlSTwfzrzqNeUHofT18Kpq0j3Qa1Iu2QylQB29cf59/zph8STlT8+7jA46j/I/nXj1p4i1G2iVGcSqRkEk5HXv3rRPisMxTnHQjByO3rXbHFXPN+pRWx6gfEMgdSpBX0zwe2KT/hJJFVfmYc84Jzn+vU/WvNk1+TCjcuB6dT0/wA80Nrcq+uCO4PJOcGmsQZvDa6Hpg8SsNqkjbjgYyParH/CSjbkcEHPbIBGc49Oa8rGtzKpUupAJYEjr6H+VPTXZo41Kspb+6TjI/n2H60e1vuH1buepPqVlNHia0ilxwxZQeM/Ska40do1VtPtCoxz5a5P6V5uniXBUyIAQFG7OOPT+v8AWpE8Rfu97ICRnHfH1pqsmL6vI9A87Rgoxptpu74ReB+X0FTprNlCo8q3gDN1+UAfoPfvzXnTeIWI5HJBbnn9ahOsyHlvvAfwkD601U02D2Glmz0mXxJhTs2oqj7wGOp71W/4Sh0G7Oe52nqPTP415s2pyuWCErtPTAOPYfnUDagzIpORkc4PB5P680vaNh9Xjax6V/wk7sB+96Hj+6e5zSp4pmLZEvCk7cgEH8fxrzNr1967nyOMZA5+vemi/kYAhmJVc5J49/x/xqfavqL6tFrQ9U/4SaVV3K4yq59M88/5/wDrVKniOT5WWQMSOxAOe9eYR6rKoYIpIOFIOSR3qf8Atl1ycBQ3UsP8in7Vj+rq56SfEe7G9UZj14zx1/GkXxFGoXEQGW56evT26156daeMkkZZ+oPI/wD1fT2pRrBQpuVuucgAY6cVXtm9Rqi7aM9E/wCEjB4XYM5BPA7mkPiVgT++Pl53DPf9a89OqtIjbkyCM7WHfHPsO/6VBLfEkgNjHJJGWPp+HSp9pfRk+wvqz0JvExXHmYIP94ce38qgPiZixd2HPBOc4Pp+lefi/laNiDksTgnsD0ye1I1y6li7ZY8jBzT9o1oUqMUehp4rZmILcAbVz9Dzmp4vEjhtpcN6Nt+727/SvLDeSIQEkfO4HjOKmh1dkDN86jqRyD/n6Ue0YOikkepJrVvPCons7dmPJJjGB7896qyweGpQTPolmCBu3eSoJ469B7ce9cJFrjFyp3q+R8y4H6/41cGrRq2A4VmxjA98Ue1vuZ/V7u6O5SLQYCBHaBFH3cd+cEY54q7FeafGxCj7x6lvy9a8/GrRSrtjOAeh5B+n60JqYKhxJgcfO564AzSU1Ybou1m9D0d9TsfunPlgcnJx1/WoW1Gw53fPknnue9ef/wBooEBUlnAP3F7dff09Kd/aAMnyyOcDsORzVxqpE/VWdzPcaTPCyzWyyQvkEE9V+h/xrnZfCHgWY4bQLZdrE/Jlcfl+NZKanmQh8sBjIwRzUq3xdgylsHnGc4H07UvrC6lfVX1Ltr4C8D283mQWLRSqOP3rcHucn/P510dppenW0fl28kgTsxbqB1xXIm9cEAOBjksDkA/0o/tbaFYOMnqdx+vPPNNYhboTwsjvIltgPnmOeAQMcdsfzq0txax5KspzgHjjj1/M15dc+J4reM/vN/GQFOMZrlNV8W6jcqUinaJMHlTyc9vah4uKY44KUmbvxI1u21TxHHFHIGitF2uQOCxPIyOvQVyMRZBtfCY4+9z+H4f54rPE584gqCG6HBIBPX61ag2CAglg4B6c4Hr09K4akueV2elTp8lO1yzaPGl4oPc4J/8Ar5969W0t45fCk8LLuVQGPP0ryqwXfOWPODyPevVtCQN4XugQoaOMZ3dQcnnj1rSDV3cwm7R+Zk6ZIslrcDCkAjAC4GPp+X+cVdstk1ycDkoDknt2z6HmqulbVt5gDy+QRxhev5+tS6cuTBKxDYXaeTz1/CsMPblMcw/iXXY1bYHyxGVZTgjAPv71NHia2dWBJRsgY6Hjr69MVUVmF2qKCoyQCAFHv19/6VJBhYbiMkFmbJ56Z711o89+Q64UR+Szh02A7iOSR7+3HSld9+nrImNjFcFuqjvz9cUl0iAQL8pYx9Dz2PfpUyIq6MsZXkkgcdPT+tU/MTFjh2Woc7gA/wAxHzAkgZ6dKnA828dDxlQqj2P86qW7f6NPbt8rKAduMjr3x/ninnI1SLgbpEwOecVSWoldk5j82HZgmSLaM8nAzjP1xTniLxNEM7xkLjk8UyV/JvlRcbJG4479qeCsOo+XExKsfm+bI5XHHv15o62DYFXzLBUfDSjnI55/wpbWVWuGRV2jaQcZx255+nv0p0AU3UaK2Cpbg9vbP4mooMR6o6ImFIJyfXHb8ce9AEMw2XhkwxUEgqo6+n40VZQ+bqFwjYyOTnAH5dz0H/6qKpNLRhyp7nhTMxRFc4LHkMcD3Iz07VEcNiRRuBUgDPr+VK0bsQuGAXJPy9enT9fejyWCNgnDqMErnP8ASvGVr3Pr5XsUyBuyQVbp9e/IoEMeR85Bx39fcfj+lWjbmJlYjIIHIyDx3psUyQ4RyoByVOR/nt/nito3b0MJS7kJwgMm9gAQOeD71CJ3UHkCNTxk4GPfP5/5zWzOLaWIhCGOPugZ6emP88VzjSKQQdyuvPTpXRqtjnm1uX21DI+Zskfwkc9Pf86f9rUZAdF3Dk88juPbr+tYEzBCy4YALkBsAGopbqRZC2HKL14/wraEWzinUS0OmFy5ODlScBsg9eP8R/nmpYr1m2BzkDjdjHpXLJqbHaGjJAGORnj2/wA96sDVMEHJUg52jIB6Y703B9BKsrHT/aWZc9G56+h5PSnJdMNysS3HPXOCDnmuV/tooQgGAODnJzR/bIAGC/oCfT+tNU2lqDrI6lLn5FGBt/vb/wAf8j60n2jLsQPlPGM/h6c1zTa22QCAMkjjOOP/AK1I2tvg7YyDxg+3HX9P8KfIRzq50klwcESDaFz2JAGe3+fWmecVXkjJ4OWHP4D+lc6dXJ3E7ycYBHbvj/8AXTY9WQ7VJ4OMqTxz/kU+QPao6UXQUlFZT+I4/Xp1qcXL+YcsWGQee4Ixx/ntXPDUU4O/AJHTtTor1GYbeSGGTnpx1H6VDjqXGodI10xyBIzKvXBGe/WlWcb1wSO+VPIHY8Vz4vsOmG+YcY3Dp9PrUj6lnARSB1HHJ/GlYtSN/wC2DG846ZzjrR9p2sCxPoMjG09uKxPt/WIJksDkKM4z2z6UNqKxgEBWIzjI57AH9f8APNEY2FzLua4nIfdGSAMcnnJ9Kikmyy/MWyPuhuM46VkvqBLlg75xljnPb/63aoZNQCoPnBJHJ3Yz26CtEtdCXLTQ1mucqAT36A9/WovPJcBgWZicZHTmsJ9QVwSWBBJ+6cbfr/nvTP7TRjjc2ccZ9fy+lHIQp20OmjvS7Hac7W644+n061Zhvsg5fgjuePz/ADH5VyY1AtIgDAe4PI9h7VaTUVjXnA7cnt/POKzcC1NHVC8zIHzhiBnHOf8APSp/toVCW5wDjnn/AOv/AJ6VykWqZMZBALAEYH4HP6VZg1ePaNzKAxJDfnihxaVjb2kXodZHOWXMjjIOOBjJ/nSvdLEu1uSDngcg9+K5/wDtaEvjzVyAfvHH659/0qvNqgRCCR+B/Hv71m7lxlGOrOkN+mflf5+i9Bxz/n8RVdtXbf5aSYP8/wDOc+tYDXcjhpAD8x6YIOPaoGmdTlGy/TkH68/h7Vly3H7WKOhe+uJMbd8Y4bv8vPX/ADzVGe7ulXPm72cDjdkgf/rrJfUbmNfL3vk/dwc/r3qCaaZiXUgsVBwOnPFChJj+s0+hsMWWMzO6fN/F1+nH49KrgrLIjKrEFsHPU/l1rNe6nO1XYtkd+5/z/nmrUNypdE4Qk7SM9D249sUOEkONSLJeI5RHjpxwM9e2P89e1SlwW2qoxxxt6CmLkyHdsCjBz2/Dj/OKekcpyxUAKSeTwenfNJSNXGyZfsZDDMMR/e4+bgDB/wD116d4VP2jw7qGSRmIDkAfy57+tebW1s88nlooB9+4/wAgV6dYRx6d4PlTzNskigKMnJPGR/nP9a1g0nd9jmnflsZWmgC4nG75HXPzdSf8mrVpMpht9+/O88kckZHNUbBhCzOHK/u+VOAMjvVuRgLOE8juAc/z7d65cLK8HLfVmeYxtUV10LsoddQXrgnqACcfjViSMPbyjadzcnA56nP+fbtVWZne5tWA5fBJPTH0zWjcECCMqQY2HPofx9a7lpqeYyGYsZ4Av8K8rVob1tW5ztweDjv/AFqvJErXtmOQCpHJyRjP+fxqaaRltnUliUYpkZGAe/4VWxFmOihx5zkgB4sjgYHHT35H60NK3nwEpz5fU4IGDnPvU2mM8unoM9UKnI6j061AmGubLcwC8qSVGffB7/5+lV11Fy9CWWVJDZSlgAxGc5PfJ/z9etEkhh1jJAxuHzDt9aaUEmnR8sGic+hAwf4R+tMu2BkSdDvG8L8w56c/4fnRsHqWVyNbcOrFRyAw4/ziql45i1PzYVyVOcIOPfnrT5mZbuCfOAVXKkjn6n61PcqU1NgMMJFLsF5GfT6cUNIEidHJ1MElWdogVbHQfnRSW5BuY3dCEKnaAp/z6flRVfITXZ/kcQbrwRK3mTabIGxncZjweffr71AsngZQ3+gTgjOGafp9cn2ry9blw43bgpGTg9ef1pBcurfec4HXJHP0z14rzf3j7fcfUctFdX956T5vgYEgWNy6MduA4449SfT/ACKoNF4JglMh0y6kiPRRNgj34PTmuJF1I3JdmXgEE4/Oke8Mi7ZXZsncD2/U0J1L9PuHyUntf7zu9ngaVdtvY3sMpHzbZCenNU3tvBhkb7VbXTsxHzCXr+FciJ3iRg27fnGSam+1szkYIccZ/wAPXpTdSondGfsKVtTp7jw74FMfmR/byOCyNJ0H1qaDw18Pbq0D7NQjc9MyZ/z/APqrjzclRgAlRgZI5H1pu9lYFFYBm4UH8Kaq1e4pUKLO1bwj4D2AC8vV2nOMc/XH4UjeC/BMmz/iYTls8EnOe9cUborkdSeFBP6f59aUX7sqoVJBXDHPPtQ6lbfQPY0DtD8PvB0i5S7uNg7+/wCHWmH4d+FBgHUp8nldvQ/TiuNhv5FyEY89cHOO+P1/SpU1idAV5+90HX1/PI/Sk6mI7j9hQudY3w78M7wEvpyo744I/wAiq58FeF7eVd+o3IJcD5Fxjv0IrnP7bujkI8oG7hckY9s/560kupiYb5ZCXBzj/H9aSnXT1B0KJ1D/AA98MMivFrcu3AKlkBPuOn0qH/hWGiSqAuuKv91uAOnvXPDWJ5HUm4m4HQjjH+TS/wBqkLjDAcDbnGD3+nWm6te+gnh6FtTdPw004MC2txHAJ6dhgZ/nVd/hzYQxlv7cgHOOmTz/APWrKXVSGUs2Oe/p7U99SzBjeR82QAwOD1/z9KTq1h/V6FtDWPwwUorxavG4LfdC8HP8jSH4YXatiLVIsufpn3xke1Z0XiG5RMCYKD1AP4f4U/8A4SG4VsrcyZ478DA9Ow+tN1q3Uf1Wk1qWX+FWrQykrfROQB1OM9vyHrUT/C/WAxcXVu4PTa361KPF97Kw8yfcVPG88Y/p1py+JrguhEjkHnIPPtSeIrrdCWEpb3KTfDjVhMVEluNgycydRn/9XFRSfDLXYwAYUKMRnLcj8/wq9e64JHDKZB03srfe/H6Vci8WyRois0mCCp5wD+P5f5NP6zV7EvB072bOdPwz8RK4P2RXx/Du54600/DnxIoYJp0mQ3JyMD/OMV1UfjKXPDyIeBxnGP69TUVz4pum+eO6lB5JB/X/AD7VSxtTZoz+o007pnKyeA/ECkBtMlLngKpOTz/PgfpUc3gjXYRuGl3DZTPCnGOldqvjO7RV/fsoIHBOeP8AIH8qmPjK4nVle4crgYAOP8/40LFyT1QfUY20ZwbeDvECqSNMuOSB8q9R14JqCPwlrhILafPjnhR0+uK7xfGN5DI6fagyg8K5z3qYeMbkYMd1GxycZPX16U/rjS2E8DHqzik8K6urLvs5yVJxsXgcfzq/F4P1XOFspQAMAE11J8ZXg4a4Qt1Of4vfrUH/AAmF+rqVnXaPwyM81m8VKXQv6rF7mWnhbWwxVbIsxOM9Rmkn8IayzoVsmaOQkHB4Pfp+Partz4kv5CHGoA5XkZx2+tZzeIL+K9O26OFBHzOcfl+OfWrVVvUh4dR6Cjwdr8jPiwcgkZUsePx/z3qI+DNeKkvaPhfRucjH6da0ofE+pqdgumwn3QH5B/l7UreKtRZipviFJz978Mfzo9vJaJD+rwfcpnwjq3lBpIkCjPLNgj/EcD8qRPCWpSy4REbd1AbJHPOP89/ytf27eNt33Pbh8k57c+3Sq1zqd5HP5qXJ5UDg8L17VP1ib0aNPq8EtNzStvCV/DGJJo1ZSOu7p6f1/wA8Vq23h5AoEtwqp0IXtxg4P4Vz6eIrxYo/Nu5DyMjG4Ecfr1p419i+GnIIznnbzjn/AD71zznO90jqjBNctzpI4LOy/wBSVAI2ncMnHc/pVu2+3axcJp1uqmKP5ixHA77q5u11rT5XxeSN5G3pHhjnjAH9f85nsfEMlrcMtkwSOTIPTLDp1/rjrSdaptJaETpLozo2szbXF1A0gdlj2sVPB98dqsTHfp8DdS3sDgY4zx/nFVbRxHDI04zvReN+c/XP5VptGotY0VRxnLdfrmt8LDkjboeVmFTnqfImjPmWsD5wV4GO/HpU5l8yxj2RcPxzn1P/AOuotPcHT9u0ZBPTGRz0p1u2y3tl27Y2dt3PpnrXZHc8+SsWC5F7aRsGHB7dOB/9amSF1e7UBsEZXI6D8/pSXuV1ODO0+Wc8AY6Y6fl+VR6njzn5YBkB5PYdf8a0abJ6aGjATa2COTyORx6859uaYjI8yjgtExPI9h0PeiV0TTY2WMtuVc5Yn8fwp8JUSunJSaLcGHr/AJ4prYLJIfp7xTQzoyswDdcY4/yarbvMguFBLMkoxyDgdPWn2D/ZYJcbB8wyrDnnnv8AT/PeS3hJvbmFmKoVBAHPel5kiXS/JayKN6sPlJbqB6fpUyqszW8q4ICsCueoHb8M9/61BLsa3gTgbJSm4jv/AJxU1lsjeWB9u5SSoAzx/wDrNMG9Li2rbQhYkAFl+btz/wDqoptsNksGwEB1YnjofaimnYpTPnuTTJUhWUAMCcA9c/55qtJZTRsY0U+YBkAE5IroblREYYQdqIpYlBt3Zz7e+KhLNEdybyChY8c/T68/WuVJHb7aRhNHcKSI0wWySB6jr/n3qOSWRQnUEr09Pz57Vrl4o42VlzJuxvY8ZPQcVTuYdphh3rvTOcjGTVqKD6xPqUTcMQBg4znkH1xnimtPJFkY+YnIyeMCpZ1QSog28YDdweSO/p/Wob9tzxoWxj73BPX+XSqVNX0Q1iZLQd9s+VcucLktjoD/AProF0GYKqY7FgPXH581Vm3i3C4Az7kgccH8sUw4kc+3AG7Oe3b6/pV+yTF9ae5cE7L1kVgCSMHPbkHNM+1MzFVUsvTgdB/9cVR+bL+XgE4PIx/npUIJHyhiOeMH+h96FRQPFy36mkt0SQWHyk+uBjP+eaf9oGw5GWwTkgnP/wBb8qymZ96tyduAQPXimEuu37xx796fsriWJkbBuFfogwORxx+ef84+lMW9JzsJJ9unfH9ayzJJ5mQSevFNYyZxkY/r7UKghPEtGybtRngbeirtPv2ppuwI92cZPOSSM/X65/SsgySFcbwQBnBJNGZMD2z265/Hmj6uhfW5I1RdKMMTy2G4/L/P9aU3iu2Tg/Tn/PesgzHPJx6d8njvR5rD5j0GDweKfsFuUsWzX+0xbwwUEn1PXp1pftaMGUDkdCDge38qyDK2Sx3MOpJ70jSPu5A9snt0pewQvrTubMt3HyEXuT06Djij7XCeQSylskdPwrH8x41A3YBPJJ7/AOQaRmfaMdOR39OaPYrYf1t3Nv7Sm0nJ2NjtkD/69H2pWGTIwU8/Mc4Oev61iec65C7gTx0/DrTvMJcZPPRu/wCP5UvYWD627myt7GGc9UYdP5/zFL9riD4GWGOc/wA/8msMSEtg4wTycdPp+tP85lDKMqp/h5GP8+tDoIf1xm5HdxjgMM54DHg4J59v/rU3zULna4IxnA47gcevasLzGLbcnI4xyfXmntI5wBk56AHil9XSKWMZtvPG+RvO0DgkZ5ponjI+VyABnggZ57msjeQACx6Dkkf59aUSOFzhWJHOB04zR7BbXD6407M2vtCjBYjOM5Jz9eBRkZwsh4OAW6np/n8Kyo32gDHJ7Z5I6CpmzGEy23PXOf8ACk6JX1vQ0BMm45O5tuSOAR09KcTE7KTlsrn1wv8AKoNuZI88M5GSDjBz/hV21g3ttWQgA/e9fr/nvUezsUsVcakgCFV3MSQevT6fnUyx712xsRjk4GTnP/660beyj823fIYyvsYDDAY9Pz9a37LRoTBOwiO+NgOGxkVm4D+t2VzjmtiIy5O3OPvd+B/9aphEBvQq6kYYHn6Zr1a58O6UxgZ4hhhyc8E8c+3+fekXT7CFptsK5ji4A9e5qeXuJ4rTQ8qTS5ZQHWOUnBxheD+Pbr/Or0OhXssZZbWUqpwScjk98mvV4fszKrqiqrQ5HHQkfy6iqdz+705FTJBA/hOevoPx/L3o5W9yHi3skcQvgm7Aja7UIr/LlemO/Hb6V0UGjWumQFkQvKoHzY9x39eP1rbuy62UMiZwRgtnqfr9e9QXv/HuzZ4ZNi4ODnFCgjOVapLQjuisnkowJAKncq9R3rRd0OoW9urKQsTApnkgen+f61lyqDpFrOwLFSoYKffrU0/lxapBLuUoMocNnIPUf59a0MG+hoacwkuJovlC5HB6Djn1qe2ASxjYNwspA75Off8ACqkG4a0gifgjJBwAMfSrduStpIhCHbIcbucnJq0yPQluU83WYWHL4DAn/wDV9adeqJZNhjynl4JbnGOv6UwvG+tW7NtIdDhs8Fh29M5NWI23kKythXYZbHHB6ZPPQVViLBIqNpu0jBQZ9MGi2fL2RYMX+dF56nHpSKXaS9UlvLCA5ZcHr1pLWMNawsrKDHKNuRyRnnP5/wA6fUbu73I4I/3Eu7JEhMe5mxznj+tXSjDUgCSu+EZBJOf8/wCcVF5JWCYnjEoI9eO3Hbr0qVyq6xCrHcccZ/Ht+v8AjTutwv1GW6Ayz25OCJd3H0Hpx701AqawQeCzdjxyKk3GLV1Tcw3kEnGMKaS82RarE45LMDg9vbGf/wBdO9tSR0KvDqMihs7R8i9Mg/r3/Wipz8msJIU/dvGcZx+v+e1FTzW3KPCGLXF1IX/v7eSDt570k0nzTspGxWUdRjGTwc/5+lOtN+XkyoKguTnHOOM/rz3/AJ5srkwRrn55iSWxyOcf5+lZJHQNYR7bbMZJZ2OS3ucdKhuHxO8gxtUEZxggHt/9b2qad2W72bceWoTlsHnnp/nrVV0+XJBO9s4AK9v/ANVarzJv1IJNxnGWbLc9AR74qC6CiYBQQo45PAA9x9P5VdtbSW+uYbeFXeZjgBR1GR39O9eu+Hfhhpel2sN74gH2q54KQk8ZwDg+v696tCb7niy2d5eyt9lglnyvAjQnHHr0P1q/B4S16UM39kXh44zGRxx64/z+nvk2qfZbPNlbQ2ca/dESgAds4Fc5da1dBmaS7kY9yzNj+fFL2kE7LcVnY8lXwb4lMTbdIuxu4GF7+1WIvAPid3AOjzLtPBYgZ4+vSvT7W+1LUL2K0tmmkkkIwFYnaBxn27V08PhO94+06myEjc2wEqD079/8aqDctkS0jwhvh94pCsf7NYDqSHB7d6rnwF4lbPl6TKx6nBXj2zn0r6BTwpEMCTVboqCCMKBzjvnvzTz4X051Vxf34IbIJIIA9+Pf9a05ZIb5UeB/8K68SNuddMCgZIDOvI/OnP8ADfxSQx/s8A9g0gPbn+le8t4Rhf7mrXKHPPyKR29PrVd/BpWPCatIw9TGf8fp+tT7wJxbseFP8PfEse7fpjfTeCcDr/L/ADiq0fgXxNJuMekSlSRySB+HXrXv8fg2Ted2svuzlWWLGMHg8n+dTQeC4gGDapeO5z90gY9Ov9P0prnsHungJ+Hfickl9OG4jp5gHt609fh14k3D/QV28ceYtfQX/CJaXHhHnumCfKcyYB9uB9akj8PaMsYK+ftHYztjn3zTakK8T53l+HniWLY/2FMMTgLIDj/P9aIfAHiKYf8AIOKYHUyLtPH19RX0SujaMWwY5gPu4Mzc8Y9u/wDKhtF0bIJNyDyeJ24xz1z/AJ4pWlsLQ+fF+Gvic5BtIQwPzESA49/anH4Y+JWkZWhtdx/hEo4r3l/DOlSHKXF6u04BDhsdPX/P61GfCFrJs8nVbhR7gMP0xUvmWqKSjfU8Ib4Z+JNgL28Ddx++HH4VC3w88SoQv9n4BxyrgjP1ziveH8GuRlNYyxO4/ueR+vv+tNTwPKFIOtADaMgxHgdu/wDnFL37A+RHhP8AwrrxKULnTlZQcEeYvH+cUxPh/wCJJWC/YNu89WcAD3/nXvsfgtw+/wDtogAHG2I5Pf1qYeC4dpFxqlxIvXCqF/XH+eaa9p2B8nQ8FX4ZeI/NI8m2Ug5wZe3+c1Kfhh4glGB9lHfHm5HXtxx1r3oeFNMBYNeXJIPXcNufyzUreGdHQEs9wcDgmbb0H600ph7t7HgMfwu8QO+T9lAA24abHTpilX4Ya+Cy7bbBJ+cy8f5/z617yfC2iSRhsT8cj98e/wBP88UyTwrpBUhZbtWUhjiUmhwmF43PD1+GGuKm13sfmOBiQHjk9Pwqy3w11yRF2m04GDmcDtngf56V7G3g/Sm3bbq7QDII8zdj2Jxml/4QyzI2xaldKpwWLgEfy9alwmCcep4/J8PNdDQSeXCyqMErOBu/z7djU0Pg3V1jULagR78sVcH25r1GXwOHVimqru4XLxE/nyKrzeBtR3EJqduR6MhTv7ZqJQn2GpR2TONtfCGpQXMG+FAkeGaRnHXvjP4c+9bNvo9zEZRKQpZwRggnA46+tXW8E68FZTc23qAJiOB0OMf4VAfBniFdx2xHA42y8HHOOlQ6UuxXMi/dM7rEglUsi4+YjGMe1UUjFvbkFkdipAYsD268elOj8G+IHBbzbVAR080k8/QVOngLVZA4l1G2jw24YUnA/TnP9KXsptaIScEQrKscAg38BACN2Dn0/Co55DJHbRRjzBtKvnoPoa0I/AVwQqS6zE2Om2I5/Dn61KvgFAqf8TmQcAkrD27/AOe1NUZ9htxepm3csX2VYZZQrgFdpOefWoPtFsLLyVlHmAHhj+H6f571rf8ACurdiQ+tTlv4iUB4H4VG3w6i2nbrTdOB5Wdo9af1eog5oGSs4i09IPNhDRsuM9scenPSnT3MJlEguMYPOT0/zzV9fho4IKavG7443QnJH0z61XPw21BZAY9UtjG56CNlye3ek8PMXtI7CDULRr+N/tChlXseOOf5Y7VcXXbAx7Vldt54IU456/pz+NVv+Fd6p5bbb+z68Ehjj2xz/nNLF8PNWhJd72zCoQBw2B/j3p+yqLoJuBOuqWSyWsrTAxRZyO4z7VdGrWkjPm6jUltyA/596zB8O9RZnP8AaFntzgrtPT/P55NNb4c6idzrqVqWbjGGHP8A+rvT5Jp3aB8nc1bvUbdJC6SKBKgUYOM8jj86hi1zT7ZNvmDJBGFGQD/n/PAxj3XgTxBBCZIUt7gqx4iYFhn26H9DXKTPJbTvBMDFJGctvB3Ke+QKHzx3QWi1oelS+IdKELxC4YZwMbTjA65p41nT7nUQ6XceEAypyPXFeaSFuXPIJycnIOehPvj/AD3o2HcjI4YhgQrH73t/T8ahSH7NHrM+03Md3G+4NyCGPbI60uoFZDHcqflGBzn+nWuR3XkOkQ6xYea9tny54JcExPgfp0rotG1FNW0aRVP79Bll7r/k1o5WepDhpoaN7gi3ZOSo+YHvke3vzRTIWa42CQhio2OMY5HPp/nFFaxaSI51HRo8MYYtLqcOACwjUbePw/Pt61VWLdf+WkfQYyQMZ9/fkVoSJvhtYuSd5Z13cEd8fzqrCoaSaThVkzs4+b/OMVyJ9zo1Kd3CxvAAzFXkxgnJwPb6kVXvIys3lqSQRzgDA/GtB4c3q9PlXPTP4/zqtDamWY/KzkuFG3k9c1YvU9L+GumW9tZi6nRDcEbyTjhRzj9R+ddffzm6VDI52A9yBge3+fX1rK0iFLLRpGU/vfLVVJP3c4J9z0/X3p63B83bnJOQMnG7mlPTYdr6sfLHi1ZXIzjjH+fpXM3kChWbOAeoIHqMfp/OumlG7aN53YxtxVS7h8tFkG4E4UDnkZ4z+dRZ7mTnZ6Gz4DsY7XT7q/24eVioIwWwOBgDkdxXXfZUnLIWAlGMngZ9fp9KxvC8Yi0aIKN6Zx14Jzn146ityICRQjAhg2AW78e3+fzr0qfwozbvqYl1uSVkZcFR8uF6D3rNeZcEYOcckjOSPw9K6S/hMyC4xt24Ljb0x7VzVxEVXaBwOwPA7UN2KVmNa7ILPkFgQOTwMH2H+cUq3RYB8DO7g/jxnFVZG6IxDADHH64qqshZtu5l/h7Emo2ZpY2lvWDBTkKPXjr/AJNSrclV6BiQG5XIPT39/wCVY6MQAfunsR9ehq5DICUbaWBPzj+9xQ5WQNJbF95W+YApkjJ4xz15qFpv3YHAUY+6MA/nUEcxlZo5VIkKnlTx7cdfWnMACu1TKS3zDG3j2zXnTzLDpO8tjdYebdkN+0NhkBz0wMdeec+3anSBxGsZbODxtbP4fX+tFqWdXLIY8N1bnnJ4/lVqNo47SQPkuxyCBkdPavKxGdyVRRo6Lz8jZYaPL725lrMY5CAzEjruI/z+XrUi3D+YGXjknp0/P6imvFcSSTEogG0BCzjLE8n+h/Sm4wN+QrquWBOOe/Jyf8/jXpYLHrEq8VYzqUuVlpbw8sCVxxgDPP8AUdafHfyA/vGbkDO4dep7VnzEBAGDZ6H8ev48ZpGeQNgHLdT3B9f5V6KndGLh5Got9tJ35ZSc8HIb2x2pftLSIXWRtp4698Doe1ZyFUK7VG3OQPXr+fepPNLE/iDu44+n4Zz/APrq076itqXjN5ZHzcnpleD26/0pjXZ25KnaFG727jP5n8qqB8gkqvQDoc8Uoc5zhCy9D7f069faqd0tSetiZ7ortZslVHQjoPypjXTN8vG5WHTnPNUn3bQACnuDnnk5qJpdpOGy3qOP1qdLBbsaBvSBxsVCpOdvp/8AXzUn24hiAcBP7o6gCshn2jcxYZHP0/yKrXN+FGM4b1B5P4fh+lK/YLHQnUm3EhvLwcgr0+n5UDWJNpDkt8pyFJBxn8scVxN9rkNjEJri4UIc4XHLdse//wBeuJ1fxzdyI8FgrQxHAaQ9V59vT6Gm5NKzKVK57VP4gt7JA91cxQBOu58Aj+tVtR8ZWGlLBNdSzJFKgbzfLbZtI/vY4z6ds/SvOPBHhG61d4tW1wGSIozQwT8lj/eIP5//AKxXs97bW5SOJ4VMWxQVCY6Dp/KvKxGbQp1JRpa8tr/Pt5myw9rJnMW3j7QLs/JrNsuOR5h2n8z/AJ96018T6WuxV1WzBbJ4nAXHtz7Vz2ufDjQdXMkqWn2WZ2J32+FPQ8kdDz+PvjivNde+Gmp6MHkhAvrfPLInzqMcZXOfy/KtKGcYeraEnZ9n/nsS8K07o91iv0ljLxTJJFngowYc9/8AIpDchlEa8hQRjIyPavmizv8AU9Gulmsp5IZFIGwk4A75HpXuHhLXv+Eg0KDUJWiFxnZcqD8ob1APODXp80WtDKVO250xuWEWwM3JOA2eBnn+YppmBVcsVAH8I4Hp+dVPmDZbcRjjPOO3NLu3AgBl+XJPfv0p69COuhdF0do3ZzjPzHG0n8+P8ad9qYsHDHbjByf5fjVFHIDENkDqu3oeuMf1pwU/MCGBAxlTnGO5/D1pKwGh9oQdCp56Nxj8fx/ChbnYcgZbP8Wcflx/9bP5VNreZ8oBBPORgjj1BoLRryzYAGTjk9P8/nVIL3LJuyjYIYnBCnPUc9cVC98wlCl8YGevv/n6VXlkbO7cRtGWK9B7c9/8aoI7XMpUO+CRznPP5+1F1sLyOhtLuTpv3ZGf17f5Fc98RNGS401tZi+WaBsTsE+ZkOe3ryP84rpNPtsXClztQEElzn9Ku63bfbtI1G2I3ebAQFUDqVOMe9TJXRPM3qeAGTDRgvvC/ez6n/PatnQ7P7XqEQK5DyqpTGN3c4z7c1jW0fnlVkj2ylstgYHvnv8AlXaW3/EjtI9Ukws0jYt4yeT6n+Y/OuSELyu9gUr6HcyxW0erJp5hAtL+BouBx5ikEYH0yfwrzK0u5vDuvMB8iRzGKRW/iU9j/n1rvdS1iK78MWutIE3W1xFO5GSV+bDD6Y3fpXFeOYfL8STXCqRDcxLMuf4sjIxx6it66TjzRLpS3R10hH2lxG+1HIcYxnBHY0VSt7g6hpNldKQWMK5JHBIyOnbnP5fmVlFq2pOi3PM8MhEhUcISNozjORn/AD+VMit2V0g27uCcn09/x/z0zrTWhMrAZI+UHaOg/CmeSC0km8nIwAg+7jgd/auY2b7mDcIHaZ1Y7j8vB49zVvRbVbjV7aN2zFvyw/l/SrH2dS25fmAHOeMNx+faruiWxivGkjTDxjk8Dp1HFUm7ILdmeg3EYh0e2ZDGrXBLBSTyAKxZLrbK7sFynI2k9MZx+ZNaepSyiz07ouyIh1z3JPP6n/Oa4C+1QxzFFbC5zj8Tjv16U6q10C2mp3Md4slofLUE7sEd8H/61Is6zRgoh5J3gnOO1YOmXippDXC5ZyxCsvrjp69zWlFK0jxwwHzA45IOVJzxgflVQg9znkveO+0Nf+JLFklcglec4B5/L/D3rShcB2zjvz7n/wDWKrRxPbWywnd+5QAZ/XHanPuTB3bhgHnP+c8/r7cehFWVkCVi2AFBz8oJwQRnrnn+dZGo2oDCUKQhxhlGMe31/wDrVrxbpI9p5IG0jOfwpkqb1WItuB+6WHHX1/CjR6An1OImiYM2Q20HuMY9B+lVBH8gPGTkbc8n/P8AhW9fWw88p8jIT8pLfw5xWTJGyMQFJXnrzjtg44/yaylsbRkRZLc+W3ByCM/jViFwpyo3Ackg9PbrzVq10OS5tWuS3lng7SOQOf8A6/51VgjmlKDy/LBON78A9M8eleXmWIdOi4w3Z00IJy12JT5c4Bl4IcMMHB6k9frT2nQHzEPy9xzgDr+P4VKlkkZaViXhzjP3cnr0qOVFjIZDHvI4XOfzxXxVTDuCvN/I9NSi9Ij0mPkmKNgeejDAIzz/ACxUUkhB8vZgqP4jnHqaJXgURMjvgDlR2PGAOx5qNRNNK0RADADOeMj27HtUzoz5rbjST1sWUiY/MdzKTtzkjnA5GfxFQyD96SFUNnGGXGD+XeuWu/HTwXMtsbSJERjGN8mWGDj8e9YcvjDUru2aNp1weAIlxjv1PtX1mDjHC0lBas0WV168uZ2SO/lU7jsQgng5zgEfzqnc3EFup8x0XnA3EHJzn/D8685GuyPb7DcTAf3d5OPaof7QcE/vCXySN3P4ZrpeLlayWp108gctZSPRo9X06VFDSgE/eLdvx49elXVvbdgEFxEdzcsG4J/GvO7C8M7KCGkOTkquRg9ePy/Otu20/bAkMzI0aFjsKg7gemSc+1R/afs1eohV8kow0TaOvyAileuODuz/AJBo3/OB8pBAI5xn3/T86x9NVbCGWGRv9ETlCQSUJP3T1yOP171BN4m0+KYl3LdztGSMdvz/ACr0KOKp1qammeFUwc4VHCKuas0m0kkZ5yct0Gf8azHuQylosbjyQT/9fPQVmT+IEvYp0hRx/ng8dO9WtFtLeSOe+vAzxRLtEXq5HH9P1rnr4+NKpy20OSpelLlkI14chWcrjsBgL9fwqjD5+o3gtoioAHmSzSHCxD1/nirN/p0qW13LbywI1qEbyZCd0mW524z0H1/nWAsy2sc8l9JDG0+14j53yKCeQ4xweD68/hXXhaiqwVRbMuCTjc14Lbw3LJdXNz9oNrFGzGWTl7gr1AU8CrejeHtHvng1F7O3W3cg2qM26QjPIcH6r+dcWb+G+tLm2On3cl5dqBAqoeH3DBUd/f2Fdz4f8OappmsR3d/cpO5gCFQPupzhCOOR1PvWeaYuFLDze11oXTi5SSWp2UESzPtYkru2jaeox2/z2ravXVJVIJwoyflzntkD8KwY5WtZo5ZIgyheDuH559QP89q1JSz7ZERWXGM59/8A9dfFYSS9lNbyep2VVeS7DSQUIOMsTz79q5BLnU7GfyrjMsUswAY5K7c45x0//VXQ2sly13cC6GUBPzNge3HOatuiPuyoyDg5556iojqnZXL20OT1rwtperTLM8Oy43ZE6DDYOOGzw3U9R6dK5jw1oOqeEvFbxSAz6fd7l82NsqBzjPuP8K9OW2VogUyCo28duOMe9U3VWLbiQwOMg8g5963wmaYrBS5Ze9HzInQhU2HBX2KSTk84bKg++Pw/lUnlEINgbBXPTr9RTrW6tkBiuCFdgPLcdCeuD3Ax7ip44QJGMbHaRwVOB06g9+RX2WFxtLFQ5qbPMnSlTdpIqKhZ8MzEEnO0cDp/9bikXHmcqvJGOecfQYq04RWycnAwCBnA7fhUedqZ3FxwOARkH6+x+v5V1pu5mNDB2dQjHHXrkdvxqFrgQhNzKxyeSelK4G1lJCngbjkY9vQ84rPubjZuAwCO23g/16UgtZiTzL8yKQBjAAORge/1qzZxNCEfAz1AI4x0qhbAyT7mQAZ+76f54rctrYsxwMk9ccjP1pxdncLGjbu4cAs2D8pIHBPOcZ//AFVoplbSTzTyUB4/HPv+dZOF2s3JUDoBg9DW1Gxlsom+8pUqB2OOf6frV2urEdTyDwvpX27Ukyh2s2XYLwqg8n+dWPF90bvUdkOwW9uuyFdv1Gf0I/Ouos7L+wdN1Kd0H2lWaJPz6/rXG6ixEcf7sDbyyjpyeK5ql4QaQoWudD4IX+1dA1PS5T8hX5Vz0DD/ABB/SqHiaJZPDOh3jgJLCGtJSuMZTg9PcdDVTwhqiWOvQhpVVJsQyAnac9Vzj3/n7V0HiOBH0nxDZuny291HdICvAVwBuHHruq4rmpehpHSSKegS+fYRoCI2jcqeBjGBj+VFY3hyZlvLiGOTBdQRz1wf50Vz07cursEk77jY4lLyTSAgO2QW6gDiiO3I8oSAFmBYcAAfh69a1I0zHHEU6AeYQMYA5J/nUE4H2MyqwMjLu4HQNyM9iKwaTKMgKRHG6Y/eOGzswBg+30rT0qxD3UarklSSTjAO445qRY4xJCGyI40wwYfezjpVzw7H5muwqZCu2QDaeAApyePzqoRuyrXRN4guTDqFz5ZUQoAoBGOAOuT/AJ4rzK8YvckgBjGuBz3/ADNd5rkxZ7xpN7O0pAA4z+OPxrz+5lVfMdVZG3kYzknHH+FN6yKuktDb0SdPtX2G4b9xckKBnhZOqkcevH410Xg1WuPENvA5UCJ/mweCB1zz0z/nNcLBdFlZyQhP3WGPXIrt/hxum8TyyFg7CBnJz0yRW9NHPJdz1Ev5pYjOWzxj+XtUtyu91xjJGMN0GBjP+femgBmG7IC5HzDgnPTjr0FDjcxG9SB8zYzjjjH6H8K7NGJEEU/lyMyg8ZJ24HH0q6eUJcLx2B6jtz9MCs26AALIQeMjndyc5P8AKsrVPEkOhaLLcvgMMJGAer5+X27Umragk27I1NSazjKw3VxAk2Mp5jYZh0GOeaw7qMb/AJZhtAyGDAgDpkY+p/WvC9c1qe8vjcXNx5s0hJZjlguDjH0xjpivYbdoNPtYbe2j/dFRswecEdyevb8687G41UYts7qeGejZoQ6vOlu9qfmwNvmHjj8Oxz/nFPWRPLSN3IQYAycj/PrWWTLFKS/zZ4ZRyV9Oaw9Z8WCxlEFuqzT5JA6CPtz/AJH8q+RnVr4uo0tb/gepQwjnpTR11zq1raaePtdygReiY5I47fnzXO3vjTToIPLhtJJN43rKrcHHbj9frXJa9E7mCRJC0M6+ceny57Dvx9fw61jz3AlZt+VDtks2Ovf8K9GOXRh/F1Z7OFymnyc83c9KbU7l9MGoJFBIhg88IxZGDDqOR9enp260y28UzSI06CNpwcBIzzjPzbQfvYP+TXAz61eHS47MylYQFAUDk46evBx9P6VYLwxOZRvBJG1hj5WH4fSumOFw8GuRWNo5WrNTte+hc1SaWS6nkeMjzJGO/btGCcj/ABrHkkfG8HK4zwe3+f51v2+ovdOlvd+bMGyAzchQAWwM8jmsi90u6N/9mKMZHII4wrZ5/wD11cEkzaU5UUoFSC5khlyiksR8vrW9ZaDLf7XmUWsJGTgfM3POB279fSr+k6FDYos02yScc7scIcYx9c1rS8DJO5eozxk/oP8AJrkr4vXlp/eSqk3oLY20NiohgUJ23cbvrn/CrgPG5eUK8defQZqn55V1XqMDGDnt09v/AK9OEx2bcEvngkZOeOfpXlT5pO8hODL0TlQo3MRwCCuR0NctrXh9YIpry0KPGnzvDg7gDnOK3xMflIO3jr9f5cVYEuImdiOMq2G6r/kjrV0a06ErrYxqwlb3dzkrCNoLAROV3sC5+Y8dwD/hXRxGC2hijWR5EVd77xgbsf049arrpe6+Q2sRmMj7fKQEkHOD169R3/lXRxfD24voQdRu2tWLEhIjv4446/XjsK74054qVorRnxeLp1o1n7bc5C1lvNT168hsbs6ddW0O9ZJExvA528cjJ6dc1naVd6THdzLrnz35lBQr84cYwAPTliefpXdar8K4J385NafzBGVjMsAI7nH6geox1rzvXNKt9ImiWeeK1mjjHmr5+5yc8MDj04x7d6+lwyjTpqnB7DhFNHrWiabb6NY4G2e/jAaWYqAA3QhMY2j2Hqac8hLmUu25iSe/H9e3WsPw/qX9qQrPGxkgkgVy7DBzzx9emf6VtS7Ecoh2p129h+FfHZ1i5VKvsn0PRw9KK2ROLhSEicb1IyrKAWQjvk9unrT4rp4ZzZ+aXSQAK3OG6c9f84rNkYMMDvj73T/PSiLKyIUyxUjO089uM15kasoxSOh0u5tgjccnGCOe3FSLtMgIOAOARwev+fzqrBchwVmBEgyNuM5H+TViP7pGDnsfQc/5/wA5rphLnM2iwHDLgnAJ6EH6YNY9yQ07sW6MASOcn/8AWcVfnuBFFlgCei55J9xx/nNZJbzWbGUABOOMn0zz1/wrHEyTskOlF3uNuXQSpFKVyw4TPLdfT6VzfiXxNqPhyCG4s5FkjSYB4XXAIIONvpgit10QzCRh+8jB2MOuTxiuJ+IkSjQXdSI2WZFw/qcjd+tdmVScMTDke+5NaEZRfMdn4Z8aWXiaEqf9Hv1JJhZs556q2OlbbtG4LQ4A6ZPA4z2/OvEYLb7HfW+pW17HmeNZI3xtKSADdGVzkEYxnoc5HU167perf2rY+dLD5TIQrjdwwOCGB9CP8ivueZnjyik7koYj5eTzk4PQ/wCf/wBdZ8haVyNw6Z29Af8AI/wqzcvgsD8pODyx6VHFH5jAMAMDkjsfSrvci3mT2VsmfvER54OQSD3rbSIfNx1G3gZ/n2qvawhYwoGCxGVYZxnrVrLZ56MP4wBTTtsJsYXGVXYdgJyBjHPf2rTsLoIqW7AEA5DAcZ5PJrKUr/Ew6A4B9/8A6/0qRZBC6vkhs7W9uOg9O9WJ2toZ3jbfFaW2FQQTOSfrjI/HANee3sjRSm3ODu5Zj3wevtXqfidVvfD1yHUERASqAM7SCM84/wB6vH7q6cyy7U8sv/F/Eo5461z4iMpMjlsyS3mQ3SSspOyTcmAQSR1Pv3r1adbfUfs0hO6DU7Z7Vx1y4G9SMehD141FcNH+88zdIORkdvp/ntXceCtRlfRb+3Jy1jMl3GM8gA5b9ARj0JqaE7NwZpL8jO054ILp7SSFY2UsWkRcHI4/L2opniKA2HiW/wBuRG8pdCOcBvmHv3/WisJzVKTia+zc1fU2JsurqQdpj27AMhSRznH1/WoJipghi4TfJkr22jn+mKSaSVJbaFy3zsZGIAHQ8ZqGU77thApDKcZU8L0z75wKi+hmrE7sjSQ2vVhHudt3ckKP1zVjw86rrW1WZnjWQjB4+6cGs6dmW9myoTanLegAJOOnqa2PD0aQWF7cr8sqwkFvUvx+g54rSnq3cqN2YHiC6ijs3kyc7iSyjGeTkf8A164WWV3UszZBO7rjqa6jxTNGLDACvJkAtxweT/n6Vx0IMoycBs5OOP8APWpsm2xvRIsRsMNlsEdM9CMAY/z06V33w4uYh4jWMAohtSGx/eDen5etefbiEVQ4ZmOOR0H8+9dd8NmK+NrcMq4dHHzDjt/UVtTWquYtts9ml+XaNxPuRjP0qKWdgGyd2Oh9v8/zqVzsz94gHnjvz+J6Vn3koQYwVDAKeeuDkV2Ju4lqVda12DTtPNxN8qggDA459v8APX8vM/EuuR39vbwpKksUr+YwBIxtx279R+ZrY8eTb9MESMCXfBG3J45/p+VeZiQ/aGVslQrKRyAMkf4VlWlywZ35fR9riIR3JZLW0lckwybSSQPMOO/8geMVvweJrqG3SMASBUCnLcjHT19DWCk7xuxXjcCrDGdw/HtijzCgAHGew65rwasfaW59T9CjgcMvsLQ7WHVLzUreNIVxNL8uScryccntgDP41zEqoz/M7eYrEOXw2SOPTpVSOaYH5JZVQE/cJHFCybSFXoOntURpxgvcVmaYbBwpSbWzJ1tbm8XZEu9hklVI/wA9j7VHe2d3o1wBqtj8m0jYzjIyODwfU1r+HNWt9NvybpGaCTCsoznHWvULbwv4c8T6LFcSRNcYiMUcrudyjOQffBbvXVRi5ux5ObY6eGlype4+p4I0+7c7Z+YnH+f8Ks2csM6sd5MgICxAckZ5Ofbr0r2Twb8MoPDzfbbudL2+IzGfL+WHPpnPPqc128QzI3nRIyjoFx8vcjI6/wCe1dDoxS1PInnjjZQVz5ss4b281D/RIpJ3zjMaFuScdunSuxLXOI4ZuXi4IYZbPQ+h7f8A1q9lklggR2cRwrkkY7n+VZFwdE1VXW5iiyhwEf5T9QRz61y4vDQdkppepks3lOfPKB5r5yrGVIXHGeeh5z/n9Ka8u7GZCD1K46fStfX/AAtPprteWCy3NiV3MFGXj7HuMj3rmBJj5WdicEc9OOnJ7flXkTwzg9T2sPiKdWPNFllHQtuZiJAeWLc5/wD1AfpTlk+VdrAHcG+Yn26e1UixAbcgUkkcDg+n6gVIsvyZHTGBnr6df89KzcDrUro0FkKEMw5Y8Yzz78cf1qVJyAEH6kgZ+h/Cs0TK8eAN2DzznH/16kWZckj7pGeAQeD1rN02Djc1obzypQySbHDZUo38XbpXc6H4mW+jEN1tW7HBAGN/4mvMUnwhDdyeCc/5H/1qUXZt51kjlYMDlSh2kZ7/AP666sLVnQlpsefjMFTrxt17nr94YpoWKqCBw2CSwPAPTjAyPyrz2/0nQfFNt5rmK42LgMv+siPTj159fetLw3qsl95puLkyZPlqhYAdiccZ74/CphY6as6XFnbxxxhSN6gruAJz9fx9a9DEYuLpKq9GfPLDSpz5HqivounLpGlw6fGwCxDGS2d3Q7j71bb5VIIHzKDwcNkZ4/8Ar+/tUyKJZMEbgQMgDp6g+3+FRalNukIjKBQRtC8AAZ4r5ObdZuo2d0VZqKISwU4AXIySuOcVCqnzM8hs/eXqPTH8vpTXlwmxfmGc8jIOf59qWLLIq7VypBAIzz17H1/z6Qk0jexMkpjIJzgdGAwatw3kyuGwCx6bz07dM/r71QOwheFAHXBxk8Y/Gm+ZjPAbcP4efw/lQm09CZQVtUWri682UhRjHGQR15qB5gjYXk4HJ9P8/wBKrvIArbs7c5HHOf8AJ61G8zZeNm+Y5PP0xVcrbuybKxNM/kq+wMx3EjC8Z/8A1YrlfEsA1OC2tpd5W5v4Fk2YLbC2MqM8kZ6e3tW1PcIAZSBnOMdvy/L86w/tRfxtoVskqiOCYXswL9hkfjkbuO/5V62VUHLER8jnxGlNs5zxfoknhnUpLcGR1inRYZCBufaB37kd/wD64rv/AAdIX0cSqGZZWDAhs8dMA+xBFYPxR1Rbmz3yp++nm3oAwzGoHH6D9Km+H1/JJp00Uki7owjBRkYz36+1faVLRbR5Si3G70Or8uVm5VTjJ5Gcdh/k1p2SKoDSfdP8THsAKxJdWs7NiZpFwGIYggY5zjr/AJzUMfjWxym2B2XGOMZIPGazVRLdmkcJXqK8Y3R2CnZtG1gNvLZAHXnP6frSSSkEgD5gPlYDt9e3ArGtfFFjdDaqzcDJYr/PFaMLxzAMjeYT90qev4cVtGcH1MZ4apSfvxZIjNtxy5AyCSOT1/z/AJzPGQ7b3UN84+Xoen6VGsRkKZGSQcDP9R36VMiqvzFQTjORgYGMVoYtFjUkKeFtQLFv9TIcZ6jB5H+e1eHySGSXzpW++c/KO2fT8/8A69e0+KJ3t/BV/MhOfszeWfc8fXvXhjyL5hX5mKtkk9j0rnxD0RC1I3VmkQg8P8pPBPoO3+cV1fw9bOtPaSOWjnhltsZ6goefzH+e3MqoKwggK6nc5Pc+nXjtWv4fkaw8RWVy+cLMuCPrggH8a54zSki4yujpvEqtLc6ZdykBp7NQ4BA+deGH6UVb8U2qS2yjLRtaX01vgkDh8SDH4H+dFVXp3m3bc0g48v8AwDOgmZ9dnAYvHFEI1YdPfH4kdqr2c0hMJXaTPcYDbieFz7Hg880trObOylumKtNK3mKSf7zED8On5fSiUmxuYbW2QN9n2q2fu7pG69PTP6VjYzd7kd7IiXpQDdvUY3DHC+/eumjb7P4ZZt+xprgYVM5OAD/U/lXPXIK6tcEqqqpVFXB57sPpxW3qVz9j0XTrddmAryMoHOCxxn8MVpD3YuRa10OH8YOw8tdu0Z5ZBx1//Ua5EOwK4weOjjgnPP8AKuh8UyMbsIqswI3fT8a5lm2oFLLsBwoXnoOmaKaXKKT1LKTeV5bpkHo3AwP85/lXZ/DSL7R44tWX7scMk3UcjI6/p+VcG0paYiSaMgA7s8kA47+teq/B/TQq6rqhG1AEgQ+uMEj168VtTj7xi1fQ9QkZyvBG30245x/nrWVOn+sGCSOMHnr+Xt7VfkmDCM5DHI4I+6Mdf8/0qpMV2sFIJGCSDwAD3/Cum5ajY8w8Xq7SEYB3DLc4xz+VcEqsrEsfmPB5/AAV6h4wQOmAuD93OPrnn14rzW+2i4x8u0cAg9a4MXJ8tmfRZDT5sQ59kRhXd9yRswUZxjOP85pZWIPz5Xplc9Kms76SzLmGMeYy7VJ6jPp+XFVZJHbLStlj3PP5VwWTPsOZp6kgkOwHJyWPp7fmafn5gMcZOPpUS3ZSGWEJGwlwS2MspB7Ht/hTFkLgBW5PAJzycYH+felbsONaz97oX4N0UUtyE7hUfnr3x+Feg+EPEjadp6WrFdgOBzyCec/ka4PxEw0+5h0rLD7LChlU95GAJ59MMKSyvmhgO1yWBO0YwD/9f/ChwnF3i7M8nMK1OvRUX1PcbTxGZVEa4IK5BB4z14/WrT6vbRlFmIXzmCAt/eP8/wA/515tomrPJDG8pCSsBmMN90+ma6JsXE0WU3qDlMHof888+9dVOvK2p8lVoJS907WWGC5gUSR7xz98d/fPeq66baJMjMdzL055/E9See9VILiO2ijjeRVJX1z9SRjmlMyS7mGcjIBPOfb/AOt7VtUpwqNOUUYrmjdXNpUiRAQMgnHT0HauI8daBp9tYXOsRxCG43Bg6jCueF6fj2rpDM+C7ybADwAMDuQc5rnfG2q2x8LXkCyK7SFQu0qcfMMnn2orQpzptOxtg/axqpwPN5JXLrkgleQAccfUfh/nNQCaPAGc5bO32/D8KqxSmVFj6BmCFhz39R9fyq9faZd2yRgbZfMPyGM5zxnpn0x1rwvZ20PrnWjHS1hUk3bi4G04yOmCfT368U4yIuWT7p/vDqMdKzTOfNQSYBHzDfkY49x/So571YAw+aRu2SNp568UKi2xyrxS5maLTMjAv8pY5VSMHP65qi93JcyPDDEGbBJYZJAx0A79zjrxWBNrrM7DO5wdoZjkDHoPwp9hqNxayxzwzMkyNvV/7pz1/wA+tdkMJy6yRz08VCrLRnQ2GtyW1wIHdkt1O8Y68dPT3rtbPXoLiNAkwVx1JOO3p37V5tPsnke4ICb2y6jI6+lRed5LufM5B4C/L+X5VhiMHCsrJmlWjCS1PXRqmzbIFK7eBg9e2eeO1S3V+l/Osj7FbAVivHqeB+PevKLbXbm0+7ISvo/3cenNbdp4mhlwswPLZbp3H+fyrzamXVIK0djjlRS1O2aRgWdVJjJ4bcPcfX1pBcFWwG+cvg4baR3/AM/UVzcOqRPL/os4KOu0lmyc+oq9HqCAhhMrkNjdjA7DNcksLKPQzulozXSdj8q8kntzikknkZxgfIFySc9e42/hVBL2PaHEhB3cDv7/AEFUtQ1VLe3O50VB8wDN29AKUaEpStYUmrXuaUkqgMM7c8kA5J/P8aa89qH23N5HG5HMKAu5PsO34kDrXm+p+LZbx3jjljiCqTncQWx7jrUcOvaXYWkF7D9quNchlWUSSHZbpycDb/ER6nrXuYTJnJp1dDz8RjEvgR2urag9tbx3X2a6SzLbBctjHpgEcA9uvBrib25n/wCEiluheQxsrrlgRKoTGCMg89SevPtUVv4s1Oaa7t5Ira4tNRmd2spIz5KyOcgrjkHJ4wa7LVvg/d6XpNtcQ3yy3wQm5jdlCmQnhFOOe4JPHA45r2sNl9PDtuGrPPniZSXLI4C/mlu7+Vpn3FX2lmXBcZOD7Z46diK1LXV7nw9JPDZzQzJcmM+eg6ADOPwzg/QetVtWeayuAhmjnltipiuUyPMQjOGHXIPGM5GPYVkCaScochgq7Vx+J9PU/jW9aN1qdOG1asev+CtIttXhe41SJLkMpHPRW9x9CP8AIrM8UabbaReeXaOCrY4IX5eee3rzUb+LGhsli06ZfKgRUDH5flAx06k8f5zWFPezXt0z3EpZ25OWJwO36YrkxMoezUUtT6HB0qnO5N6dhjSdcFTgdhyO/btmtvSNZubaVQsphccopYjOf/1f/WrDQbnV9yjayhgrfMfoD9PpW/D4eNxYvd205WMI2wi2O6XgbckHgnkfh71yU1JP3T0cT7NRtPY7nQfFa37C0vIlSZPfgnn866y3k825hTYSkhG7Gfx57/8A1q8X0KaQeJdP/wBHaLdKsRRhggEDDdfofyr2O0lxIk2RnsAc9fX8q9XDVnUXvbo+OzPC06M7w2ZH46jJ8AakqbQ8EO84B52EE4/CvA7W581zMwXABJC5y3Tt7HFfS1/Amq6Pc20wGyeNo2KnpuUj/D9a+ao7a6glmhmx5sbmBkOcIVJB4/A1pVPItq0y2Fh8qFkba7k8EY2jv+mB+FXLWUxRtMo2hMNu2kDHYj8RVF2aWFgcSfNhWX6Y59+lW7ZZEfyFKElGVufX+nWuZlQ0PU9Ws11GG+ttgLXFta3qk4GWyUb8cAUUvhadbq38PznH7y1mtGwOpUqw/wDQDRXVN7A5uOidjm9v2i/+yr5flwpGpHGAEGf/AGWowzXWuqm1WX7XuYkHDCMen/Ah29qm0tUW1vLx1Eh3GGI4wWxgdM1FoiNDFeX0US+YkBJOejHJyPbAH+enEtSr6aDLpAl06hNwad5SQvTHGPyrY15GW4soXUgxW6gjuOPT8Kw9FhLXkcTbWZpFDFSCBnGfT/IrT1q/83VLxgECo20bx8uB265/z9Kc9IFpO9ked+Ipv9PwPlbdjB5IHPSsTKkB8Z5wcDjPt/jV/XnVr5wpO4HOSM4H5frWchaOQowIUDHPUj/9VOGq0FN73HFYyu45Icj5QD+n5/nXvPgSxOn+BNPOADckzMRgY3HIBx7f54rwZwQj7F5xuAJ/z6fzr6CnX7D4esoF3BYbeNQMdwuP8/SumF1d9iIpt2LIvUUqr/KRxk8ZHY9f8KdJKMfMmVHUgZ7en+elcVaay323JfeCCBk9AP68f41futbWOAsNrDbgc+xwcfn+VUqisdTotNXIPFDRJayuZVCJ99mOP1I6/pXlE0nmStJkZLE+uPpW14uvZNWNtCl0VgEp8yPHDY55/DP+emG+FwCegzz/AJ9P5Vw4t3aPosgg+Wcn5IZnoSV2Y4A7daRw+0DGCx45AFIzMOh46jjv/X/61ROTn2z261zJHuzlZaEmcx/eJIHc4/L9KuaReGyv4b2VVaOFw+w8kkdOOnYHHtWW8i7SM8dB24qadRHZbN+HYFyOrE5xj+dXGN2cVfEqEG3sSX09zqep3V7dTbXkLSPx2Ht14UDH0p72dzo9/JBcSKxZFdXXJXDAEcHnoau+HdIguNTt7K9uvsyOd8hCly2PmI456Aj6/Sq/jO/jvPE13fRun2Z3UQ9sIoCgYPI6dOK1STiz5F4+U52fwnTaAyxQxpDtHygnjkf55r0DS7ffEuW+VQSSp5P0x1FeU6FqipIGd8DIJwee3QV0d1rmo3lvJDGzW0K+hw7cd/7o6is4rldzqp0J17cux0useMtO09vLWRbm7wAUUZVT6H6DHp1rKiv/ABZrcZvNPshBaeWQvmynEgPdAoznIx6Vl2DaNoHk3F3JFJcyp9oAdecnAI9cnjH4n1rQ1fx3b20EdppggZOCWgyVjwcgZIGeOoHGTj69TUVrN2OuGG5Hy043fdmQk2tXcMgnv7h/KBVoiSDuxyMH3rLLRQh88zDAB6rjuGPXPI6EfjTNQ8SahfybhceWASRGhx15P86zIj52AQu3oQfvHnPv9a4aiXQ9ilC1rr7jWe9JKGWZmKLsj3L0Xrj/ACKiSZ/nAl2Lgk544zwPfrUel6Fd6xqUNnboPOmYgE42jAJPP0BNdbN8PdX06DD2q3U0qllCOeQBll6cN1wc+lZ/V5TXOjaeJoU5ck5JPszl7q5kvQweTDAfI5bcRzjkjn/PWuTvLS5ilcXFxlV+bLNw1dibO6tH8q5tXBUZ2upUkn0/XH0pNT01JbPzTCxVjwwAI+nHIPtTpVXTlytE4vCQxFO8dH0s9Di7TT2lkTr83YAjipzDNYkyKcx8qSF4xx1rbEUMCRRrITIR8+Y+EPGOe49avapp0emaqkM1xb3HmIGlWBiwUsOVyOD65r0rJrXqfMQ5qMuXqY1jexwzJK0KNEeqM2AT0/D+VE1zbRxpEkYcxtkSg/eH+c1n3ka2t4YopY5QMEbTng84P0/oK2PDfhLV/FNxt0+EfZ84kuZfljTv+J9gD+FYOldnoPGWjeRjNIGONxIUcf5H41qaToOva8sj6Xp1xcxpyXT5VyB/eJxn8a9p8O/CLQtHSKfUQ2qXW0YMwHlK2AeFPH5k12kEq2TmIRJDEPu7AFUA55A/HtW3s4xV5HnVMyk9II+UriK+0+8ktp43t7iE4kjkUqYzx1H0xVu01K4jUeZOHDA8Hn9c8fT/APVXoPxo8NX39sx6/BCXtJIlt5TGvKMMkE+xGBk9x9K8nCyKGfZk5+U8+/Izzj/PepqUFJbELEuWsnqdRBqs8qs3XB6E4I9PrjAqDULbUdTjaO3kFyYfmkjiyxI+melUNPhjbmV33BD5CoQMv0G4nOFxkk//AK69Ak1+08M2dpt06R7OSMY1ONFia4IUFgA3OAx4PGQOD0zlTwqUuZFOvzLlPI5gYZmV1ZW3ArkYPHsOf/r09SVXdghu2M56e30Ndbr+nLrkb61Cnl2887RBzkbSFBHUdMY/E1wySfKVKjLHqR/nNd+6OCUeR2ZueF761s/FemXd8W+zRXCPIUXkY6ZHfnFe0634gijU3t84YMSEMZDOQxAXAz2wP614Tpenz6lew2UMqCa5fbGHJGWOMdK9xs/hib2ztZPE93HMLdFX7PauypKcfeZuxxx8uP5VcaqhFozlG71PIpLk3RmSQDYiMFdh8zc9TnIz+P8AOsyE7S7DoTkjPT8fxr6UXwT4RjXc/h+z4XkgE57c4IFSWvhTwlFOPI8PacWb+9CCBz6H61yzmup1Ua6hbQ+e4Gwyn5S3YZOT78e1a9jZy3EgZ7djbqf3jggnB9M/WvfjoPh/zs/2HpylepFsox1B4A47dqrXvgnw1qVs8UVilrIAzLLajYwPTt1H+e1YSw7lqj1qGc04tKaaPE4rQtHc+dH5bDbsQKNzHPY+wGTjg16r4Ks/tWgq8cgDEMoVsBWJ/DsQQPavM7uxurXW7vT7iRGnhJUuZMBQMEMPqNpq1oWt3OjatDdxzMERizopysieh7DFYUaipVFzLQ9vF4d4mh+7l72/yN3xXHb2Hi2F7ZAFiRBx0LLwB74ArtYLqRkidwFdlUlVOMHrwM/49K8x8V60+patZwop8gsLgZXG9mOSQfbocdzXoVkxMG0gMVRQvGQSAP8A69d9KS9o3HZnzWOTjTjGe6Ot0u4kkDRMwKsMqP1NeR/EHTG0rxlPcBClvfqLkHvuBIYD6kA/8C/P0jTZQHCsykryBjJ9v8/SsH4v2LXOjaffxZLW1yEYoMHa4I/mBXTKKcTxp2TZ5xbxxSW+6FCFYEZOcjn/APV+VW4oVs4yGctOdwzjgg84qjZXVvbIIQ+cLuYsMZPT8f6Yp4uf3kjAs/OCR3PH1rkmklciL1VjuNC1T7L4RknU/vLC7VgM4+V0K/zzRUHgyMXqalpSDd58KSAAc/I4/wAf/wBVFddKUVBXRq07uzKzv9k8P2cIbd50bTsSMDkZwOmOSKkhhuIfDt6+XRJJRFE3TIVQpP6H/PVdRjDW82zdGiNHEmFPQctgnjoB/nNOutqeFYI5EO77xweBk56/Q15217CSstxfC0XmapA5KgKS57DgZ6H6VW1O5UefJJu5dtufrxk9xxjitXw1GIbS8dMFktWGSAByQOp6cE/lXM6rMUsxA77ic9McH1+tVNrRGvmcTqcpe7lkClAD9OPf+dVdrpjY4BODgng+1OmIMzMDtYMcg/0x/nioQ26RWK7gSGPtn0A61pAxm20Wo4pHlXhQN6gd8An+dfROuRB7VW25CIdpPOf85/HNfPNvKS8Zd/4kIBJx16flX0reQifTkwCdqDAwOvvx/StopuLTCDtJM8SupGt9RkdThQS2cdKgv9Qcw7N5OSQfb3/X9TWprtn5V4Q8SnLHBAxu/wDr8VgXC7W3OeRxnHGPx/yKw1iz1pSvG5WhuYobWaGa08ya4AdZWcgADdnA9csDnPQdOKoSPhlJw2OgHQ/4UXEkF1fSGN+UGAfUD1P4VHKVzkDPPArmre9M9vJlbDuT6sa7cr0JzzxTHfgY+8DwppZMByCAM849qglkwOoA/KlFXO+rUsm2CuDOuW28jdjjAq9awLdXjS4VobdmKsBnzOw46n0x33e1ZMUjAsqowkPRuy//AF/89q7XSlh0h7Rvsy3EVkRe3KblUsit6kjn5unf860mlH3e58vmWMbXIti/4jW30fwxZ6PIkP8Aaksgu7hsAvDnkLnqDtwSK8yvZpbm74zkEAMO4I4re8QXourq9vd8sz3E7sjSYyQzHaT26Y/+tVS00ExeS0lwpu3kC+UrZxnrurSm1H8jysLSdSaijZ0KyCRxyTscIM9ep5zj/Grl9qrp8sSFWc46E+v5/wD66iuJoIR5UYIVeVA55I7fnWPdy72B+bGMAkc5rBN/M+0hCNJci6CxzAZypOTzz145P8j+H4U0NlsE/KcdOMEVXVyG3dCqnGeufWpAwUkgqCR6gY6+tJpmnOupbUKXCksrYxuOCM9PwFS20VxNPHHCshlnYrGobbu9QD78fnVNXILByn17c9+PwrY0W0lvL2R4pBAbeMzrcLGX2MuCMAY5OOn1qUtdSJ1WotI9a8O+GbXw9f3F+Z1aJ4IvLtiDvjcdfmOR3OenX251tU1mVlYyvFt3fKnTLex9u/0ry638ZXBtmgupH2yYY7WPOCe/fpVLU/Es2qR263DlGtS+8qmA5bIB9vlIH4mux14QjywPJWBnOpz1NTa1++l1a6RbhEjt4BvjEUu4yMehJ7HnofWuXWG5WU28E8jIAeS/y469M+oql9t5yQNxJ5P6cmgXfmuPmJkxwOpyBXnzcnqe9QcKUEuhn6nLNDOrspwzYMbck5H/ANauq0HwZrXiO2WbT7N7aNEBM93mISBskMnGCOB27it/R/h7DK9hrGquyKjrItrs25P8ILZBHPJr0211MfaFjYDg4wOQo9B/n+dd1CS5UmfL5niObEynTVziR8HLabUbWe9mjkiRFV4YTtDsFA6kZA3ZPHPvXfW2npZQrFDEkMaDCxwrtAA7dOcVeuIJXeP7O4BJOc44OP8A9VKiTPsVkbgDkEZyPT8Ofx+ta8tmeW5yl8RZjjVFDFcE9B1OPx702eKKTLuikjvyePSkjZPK2MRyR14yT/8AqpIS5UGQ5bqBnJPX/wDV/k1q0nozK1tjP1GxhutJubC43vDcwSROo54YY4I+mc+uPx+dvFnhPUvCM0Q1F45ILjIiuI3JDEZyGGODzn8DX0pHAylnZjlM5GcDOeSf1rn/ABt4Tt/G+hGxaZreeJxJbzj5tr4wQw7gg4/XscyrPVlxm07M+ZheKrkSZcgAMfXB/Lt/ntoaRqLDxJpa3s0clnbz740uHzEBuyQ3HAYgAk8ZAJzisnUIZ9N1CfT7+Fo7u3kKShl6MP6YwQR1FUJJdybONwzznr+PbqP69Kez2NeZbntk/jHw5qenTae8KafbhpAtmyjEbnOSoGQTk5z0Jz614a7r9olOSRnr0J571aW6ZI8uq5HUhev49j79aqPIzMynGck/mfetLpiq2sjqfh5LbDx3pfnqssXmMoDdm2nafrkjH0r6XEjKgQyGTAC5HJAxyK+TfD8slv4i06WHJdbmMqAevzAV9SWqoqqZnUs3UDnqen+fWspLUyUibeI0Ikz04wM4x6f/AFqqRl4ZBKsmEZgdvSrqhJBtDghvkCscd/8A65qnKPJlcMwZRj5TjaPasZqOzN6d7aF83KGddoY59RznHf8AStG3i3OckhCAoPT8BXNvI6yFi+3bgAZPIB//AF1p6HeXk9xcee3+joAIUCYZuuWP0H8jRTrRUlEmVN25jy/4rW5g8TRukILzwqd+3ByN3A/DA/KuNhuSgMikhh7dDnp29a948VeGrPxBDKZoka8jUeWxJAB9+3evEL6KaG+niuIliljkMbRg5C/l7VyYqDjK59Tk2Mbiodi9pEP9oXkEMnJgYyxj2P3gO3XB6V6bAuIyqsQWBJOSAcds/h/KvLNKuDa6tDKgyHIJLZJXH0+terwOr7M4ZdvB/Xt2rqwMvdaMc+p2qqa0TNKBgEV1dd3Gc89fr260nxDj8z4f6q7AZhQSjPT5GVj0+lNgVSM8lCuDz1B+v0qfxWEb4eayGAI+xTHBx6ZH8q7vs2Pl6sbHgdhHvkSWVVRexHfjNaVqiyMxC9G4weCB6e1ZcC/KgwTGMgAdc9sf59avQbi5UJ/CSvOSf88VyS10Rmt9DotC1I6VrsV3DMqmMNvbrgEFfyzRWTGdsBlYFfnwcA5/r7f5NFOE2lY0fpc37qCa18Nw2wldmbCLERkvnHQnt1q34ljMRt4ELJEWwoHfHI9+/wClTJAl7qId4mZbWSKONcAtu27iTxgdRVbVYvtV4ZXcJHC4jURghSecn+f5Vl6hF3loaFo6w+FNRlJjVZNkagcEdc59evSuM8RyIkWExtOPm25zx/Xn/Irthti8M2yYIW5uiy5xj5QB+WQa4TxSsckr4JTaMLg4GfQc80SdpWNN7nI7cEkjHJB4OQOemfypsafMdq7gO2fw6Yp7ExksyEgdyMAn6UjsFZZFYKozx6f5z+tamUlpckiRZCiKSX3AfMcchhX1GigWcY6kRjtxXzZ4ZsH1fxPplnFnc9wCSOMoDubp04FfTZjOzYrbB0BI+nT1/wD11vS0i7k7I848T2B+0khUbuATkjOeOe3SuD1O02HfISF3HJ+n+RXrfiWAyRLNhmZWzg5457f41wOs2q3FgzFuVGVOD+vvWdSNnc9OjNygzzuKDyVuJFXbGeF5Hr6UMNoBIbcf/r0X53SZZy0YPQ8Ln/OKoySkjcGOB6nNcc4PmPewWIVOiopbEzyKrAs3A9utVpJwSFXJboD6dsVXeQhXbIHP3SMZqITqdu5SQDuXB71pCl1OTE4+Vmkjc8PQLJqjmYhEiO9weOhq7LqDKtwhxtlfdIAeoBOP8g9hWFZ6w8ImDocSsSXHXH+RUkkiMvmGTcGAJYL97Prn/PNRUg+Y+drzlUlzS2J4pD56SvuIGcDsD6n860NNk3p5pbMhkO5+meOn65xWHcXDSH5SDszkD+fFLp14IZWV2Ic8Jt9fX9PwxR7O6OjLJxp105+hrXlwEYhDzwefX/JrOMhDoQ+7vjpzT5VlkJ2r84OfXH41BypJO3IHSktT6ec9fId82MAdecEdhUsRYvtydx6ep44qruwQcEEc9adFIyEumM4444p8pnzrqdjpOm2E+Gu5ZGAG4rGcZ5BGfxqWz1aHQtSu5UtvMUuTE29lAVh0PPY4rC025kmWQIWVFTLbCFOfXrj8/SkuzYhVkt5bkOCS4m55PUjgVLS5bWG2pbsiaSTguCrD0/DjHT0HtULSlf4uMhgpyRnnn/PvW94V0OPxHqU9tK7IUtnkWRTwjD7u4HqOvTBGOtco8xZd3LcYII60lTG68FeK6EzS7ACDz2bPQ/Wuh8JarbWt5JPLGrXCA+Uzc7cjsOx9+tcg84ChcYPPPOaWz1A211GwPHQ54wP8eta+yujir4tbHt66tLcpseUuSMsW5yf645P+RV201CUz7pHdmJ2gkdff/P8A+vjdGuvPQBWCr6DkGungnWWFw3VTnrgE5z/IVzqDR50rJWsej6Ve+da+WxYsecke3p9cVpMSsUjMo8w9TnGPb3PJritB1ARXAR3Cjjqevb8Pxrs0lSXBBTLD5hj6nr6V6VP3oaHnzTi72KkNu4knuY7ppEdgyqR9046A1OknmKrqGbngF8e3Pv1p0flgkjO7kDGSM+uKzbbU4QZpI51d0kKMoOcHGce3Ud6LKO4Nc2pp7zHltwXPQn+Ksm7nj0+7luXlQQuOm7GRzkZ+mcfWke9luVlWGTytgwXYcZx2Hp7ivEfiP4l1zTdROkXdvJA33vMJyk65wpj6ZH+FQ5Kb0K5bLU5T4ia9aeIvHF/qNo+6FgiK23bv2rgn8wfwrkscY6kdRV8W6RyK8imSBDhgGx9celEsUBuJDayM0CkbC/JIx/OtXLqVThzO1yvKqCNEDsTn5hjj8KSK2eUOwB2xjczKCQB6n860LCCK4uUhldQuMZOSAccdPU8V3Hhjw/p39nz3l/ZSLbRIxlvpLnEYxj5XT+PlhjHVgB0JIIu+hdSnaxyPg2yjvfGWkW8rBUa5UsQeBj5v6dK+nj5boAFKgkhRgZ+gP5fyrxvxC2i6NaWWraTbaYdS84GE2jkPHychowzA5HG7A649K3dC+IV9b2kNzrluxsLljGjrEcxOD8wOcZHIGB3+lElf5GLaR3/lRh2Q79rDo/AX/P8AWoZVTKKqFsYbHB5/wz/Kp4NQhutOivrSRLm3mwy7GyG6Ajvz7Zqbyt+XYq6kdcYPuPauecEXCo07FGSPNxEUiLKp6AdP8/nitzT0iwyrkFcHB689s+mP5VjSrKuWtmUvtPAGc/485ra0nCadEZYZBJyT5iZzzjPtWUL86NJfDe+pyvjzWbzSBFJYzpGJNqsxGT12/ng5/CvIr65a7vJ53lZ7iRizyNjcTwM8Y7AfkK9c+Idkt9pE6qAZAAydiSGHH5E/nXiUbHzFBwcHHzZFZ4m7k+x9FlEIqHMlqXLSQrcxgoRg/eJ4PTj+f517HZrjT7eJ1LbY1zzxnHXP4V5pogs7bRdW1G6hWV2AgiU9VZujfqDXT2mqvLHgHcAFUZbsBj161thVZcxebNztB9P1O603cbmKFT8xkG5sZ4A6D8+lWPF6bPAetxLjcLKc4PsDg9axtJupZPLkz90Yyvp7f5711OoW6aroN3bhlK3VrInB65Uj8OcfnXfe6ufKV1aVmfNdoY4o1MjBgBgAYyfQe3FXPtZNwx3Fd3PJyVPAH+fb8Bnx7NiGVQXABII4X2PTBz29qniizKGwScYz6/5+vauSS1MUrO5qRXSLAPk3ICMlhgMf84op0LB1KHncBlSOCR/+qiiM4pe8Wn5HZ6L9m8m1bfIi3VxLcR5lPzDJxnv90VFqm6KKCMsPMMjyOob6gHr9OKbpcsUviFRAuYbdXiUELwFAXgD3Y1Bfym81a4jZ/lhQIRkfe79P5e1RpdIaWpuXtv8A8SrSox9wq02B1+9x+HH41514rbfvCKA+7HJwPfr3/wAK9E1tZFuLaBpAscVuuQRyBgfrx0968x8RTOJcPsBPQj09s9sDFKcffNOljnC0hAJYlkOeT36f4dc9KmhmWOVnkBz1AH8R6flmk3MYpWYKGxjIbODSRAEoXlO8kKAeT+A/A1rYxkz0n4Saat34kutSOQlpGEjz0Dufx7A/n3r2KZscHAPJJPPXpnPU1xnwusvsnhAXKwhXu5DJjb0AwB+ik/jXazltoVyofGWH6966qatEla6GZqFuZrVwuSCBhS49B15rzzV4zaMRsBUggrngj+nWvTW4QqSNrZI44yOOCT0rg/FM1vAk0JVmZiRtI/DP+fSs6slFOR00KjjoeXahpN1OZXiRDAXO1j0Bzn6njuK5+aOS1l2Sps7Hv7+n4V2Mk4cExocgnA289zx7/Wql40M6osiZwuGBJ9ev/wBYV5KxcnLVaGscfOLdzjpUj2h8jrwMdvyqpJg4UJnjI759fw/wrqb/AMOrJDNeaRM9ykMQluoZE2PAuSCdpbLqDgkgYGea5qZGyV8vDYBOe3H616EGrFTqxqK6KZTPvlsf/WrQQGOPLhs+4yaghkRZFkJ4IBJIyPx/IVYaQyY2Mx2t95jntiqk29Diq2TsRyON5BABzjCjHXv/AC9KZISZdxHbAOO/0oMmzcGUkLggeh57CmxMbghFHLkICfU/1oXczWmxegvMFknLKwOQDjDfU/lVnzkcNk7gPunP+c03U9JhtCUtlYLgLuyTvPf+dZQjuVKyBJFUNkccDvWfJGWqZ6uHzCqlZq5rOUEXPQHpjgd/6UgMbN6Dr1+n61km7mDHdtPU7cU/7XyC0eFHoe2afsmjpWYUm9NPU0hMQ21JMIeCq8Zz1piuOD2yerZOaga5jfzAA2734A/CkDShv9Wwb1I/p36/5zU8pbxUOjLgupoMGKV45WwC0bEHGPaqzsuUIyA3BbIOaRra5kw+3Z+FOSzlDDAboOR6dePfrTXL3OarjI391EIt2kbZkdDg5/z/AJNW4NHDoZpJCpHPJ7+xNRC5cfupEAweeO/sPzqxcXciWSxpwhODjJOPUUpOeyOGVXmdzoNCvmieK2jdidwGAPQ9Rmu1sHME0vmSvJuPyhhkZz0PTnP868ssNSTTr2K5JBBPQjJHHB/KvTYdQt72yWS3yrAbh0Pzcc4/yeDWU04as1hPmR0GmzvuR0CKoOT3wSfTt0/Wush1WGC1R55RFtX53LdBn+Vec/25N9rey0+3ku70cLHGMgNnjdxwOK6DTfBN3qEguvEs3mfMHWyTJQdsHHUf570qM57QCpGD3ZpS+MBdC4bS7O4upExtaMHa3PXPp34rWsI5IkLXdvBHIRvZwwG8nqT6dvyq6LSGzt40hgWOMLkCMDCLnp06fWp7byrmKQRINgJTPB6Dnn61souTtJ6mbso+6ieNF4kGxiB3/hPI49PrXPeNPBtv440F7CURw3iEPbzlcshzk574Pfnv+NdGd0NlHGqjZjDD0NVzLsxKu0jPIjPHrW8fddjB+9qz5I8R6JqXhfWLnR9Qx5kZDHYSUdccMp9P8KzosL05IGQQMivoz4seFdP8SaLc6uD5Wo2Ns0ySKf8AWxrlih9Bjdj39a8M0LwpqniC7+zWluwYtsBkGwZIyByeOB39O9W9dEXB8upa8J+Fr7xFLcPZNEDa7W+eTYWJyQB6nCs2PRT9K7Dw58PNV123sL37UkujvlvszzNCxJLcAgMAM8kjoD+NclqU6+F9XmtdG1fzoA6OlxEVLArgjPGAQQOnt7iuj0fxPLqmjmwNz9muI7jzlWA7HuHk4cqc7Rxu+U7V549qjZbhJ8zM/Vf7CtZH0/w7aTxXcE5Y3pO5FkGcorNzsUZww5JwTniqF1qkCW267u21LVZpGV7i8UvHark/dBPLMcH2weDVPXtbjkupbKy08WUKTNs3f60Y4w5yQTnOfw5NYy3CBYlMK7lB5xknnOeT1AH+etXe2xmmdn4a8U3fhDWBYteRXunyhfN8iUspU8nGR1HPbt9K9xtL+C6sY2iZpImCsm0feByRk98jnmvHPBmgad4z8I6pazRW8ep6a3mW8yN+8lQ5JV+cED14PStLwnrN5oLz6Deq+GUy224kE9c47dif+BVhUhpzmilfQ9UWZjGxwwTP3sZx7g+pwa2LaFbi1gZ1IMZBx14/+vXFad4hHlOtwPMkYcEc84xn/Guv0vVVvbYRx8OOM5Bx+H+evauWNSDlozRqRgeMrqytLaSWcjYVOApxlvUf5/wrwyVl81mVC284G7PXPft/+uvafiAgl0qVAnnSsv7pRGG+YMM/ofavELxmjchQ2SQMk5Kn8Op5qKkG2e5l0404XbFeabe0IdgrqN6hjhsHgn3ziuv8PQziUBwQigADHUdvrXN6VaSTuDweeC3cd+PevQdHsfJwNoLY7HnGe2KULxKxWKU5NnTacoQEAcHBC9B9PrXXWNyFh8sMSVfIGcAkg8fTv+Fc9awpHCjKq7mHQnIH4/1rQt32EyBsAYOGOccgdTXoU2j56q3KTPGvHulLonjC8iTd5Fw5uYgQcEOfmx9G3DH09ycJnVZF2xuOhJz6/wA//rV658VtLF34Yj1aAEPp7DeQP+Wb8H8jtP0zXkVm2D2y5wcDG09zn15JzWVRWdzC2ppwMWhG0P8AP0Yck49D1/yaKjskLtsdiXXOMHGRnv6UVHNYtK+zOz8KJvhnnCsxaEdUycsSee/93mqVjbyz6hMA5UyTkZxgtg4ycd+K0fD0LQx3KYYbY1BUyYzzgc891NT+DrULqNlEUTzSzueWYZ5IHHXr+tTFajT1sXvFM/l67dNGisIwI84yBhB/XNeT+IrlWvwjoqYAHyngD1H4g13Gr30N5cXVwMCJix5ODgk15xqT+deSfLlEOByOBjj+dQtZXKtZFZo/MKnJDOcEYIHU/pTJnZG3hl+XJGGyM9j/AJ+tToVU4KsACCc4BHHr/n/FyooBV9j7CQfXHPNbRexm7n0n4Tt1s/CukQ7NpECKwIAwdv8Ajz071pzEFyy4UlsHAGAOPz6motMKLpdsoAXZGBnAyB1p7hiWGMFRyy/xV2XsuwrdyOQbSWkO1eqbTkseefT1rzHxxayQXxuVwASDj1B9APxr0uRgSTnITo2Rz1x9P/rVyXja18zTRK6HEYOQDgn8z7+9c+JipQaZcFf4UeVs9vcF8jaxB4B5X2/+vWfcOwV+PMGdwQdc9vx4qC8iuGuna0hmcgnIRCwyOfTin2eneI5laMaLfEKQS3kMo64zg4/yK8lUeVc3MrLuxeze9iMXOyZW8x1kXoyPyv0x65NKk1ncTW0N9bxW9rFlHmtIUWVhnIyCQrdRnocY71ak0bV5Dn+zLgOozgoRVmPwjr8rZSwKqyg/PIFwcdeT7GtIVoR2kvvB057o5u70C4+0Trpkh1GJE8x2ghcFU7kxkZGMc9R71iFnQAAjnrg5Hp713V7oWsaCxvppJIGRhiWK5w6sc9Cp74rL1G8fXZY/tFvbm734NxFH5bTem4LhSevIAzgV2U8RCUb7g4yXuyRz9vaz3c/lQxM5cFgB0x6k1vW2jRWwRpGLyHDKR90c+neuil0D/hE7WPzrlHkkQMe7E/3fwA/X61zN3PJPNK7FOfmZV4HA6AHp1onUvoj2cNgIqnz1NzstN0O11ITG5tHuFEDM3kcMuABuXnk54/H88lbb7NqE9o0rZt/3Y3jB47MORkHj8PpXV+HDL9mPlMQZbZ1yvBzsyOe/IHHr+mPrkkP/AAkN+wz5UsqyKDyxEiq/Ht838xXnUajlGS7MWTO1aUDnL/SILqFcbPMLZ3Rjkg9s5xjPt/hWdBokq5wMgMSQBkjitZJfJlKg7kZssRnH+f8AGtnTHjS/SMlRFITywBA6Y5rX2s4Rtc9nH5fQrwdSmveRk2fh0ugkdGA4PDcnOe35f/WrVi8PSZVY7eMA43uzED346/8A6/auuiltTZeUrrEyfLuUDI7471fkvrTfwY17ttUZbiuWVeT1bPnORR0OZg8N2+0KdzsBhvkOOP5dP/1U5fDtv5gjeB3QNjCsAxOe2cZNdHHq9hbbo0OVYHKk9+P55HFZV9qayyNDEWWQg7WHpn3/AP11yyqSburnNWdjzrxpoVxpGqFJlMZ2bgCQcA5wcjp+Nc0brzU2FhuOCOOM16P4rhjvtHhuCQbpPvhn3M2OMjuMgDn8fWvLpozHcFAhGDx/j7V7uEl7SFnujlgTyOJSACqgHGAcduea6jwhpWp6rMB5j22mowM0xGDz2U88n2rkhgblUKRnoa9i0e8VtMtolVY44UXaFOFU+v5/0rWtLliddPVnYeH/ALLoUItrGALl8vKRl36feP0/lXaGZmsGkgXfJtwoz344PpXmcc4hKv5i7V+Xc/qf/wBea63w9qsbmSMMOMEgMTj/AA6iuShVbbTNZwT1R0FnMl7aRxBJUZ8khx9zGM/Xp/OprK0WwtiJNo3SMxIIzz/+vp7Cs5JZ7GR40Ktbbd2Sc7fUf/WrE1rxXFbIVjdCE+YsTwOnpXTGULXe6M5pvRbHS3Op2lpIQFGEPzbj+H9BXDa54/toTNFZHeSSG44z6fTvXnev+N5LmR0jnzG+Tx6c1yFxqU14xYyER9MqxwfXPem5zmr2sChE9C1XxC+p6ROb26Vwmxja9puchT3255I7/oeS1HxbqRS7dXjdr6BoZi68hDxgdPfmnavNpMotYNLtjGqQgzysxJZiBx1+n+RWe1jFcaVcXL3QjuYcNFGwx5oPYe4rWknGJnNxdzDIDFlzggAFQOvtW7oOh6nq+n315pwMrWRQSQoh3BXBG4fkR/hWC2FA2EurKDzxz3/z7V6f8E7uQX3iC3ViIpbHzJPlGBtbAzz6Oa1Su9SG9Dz2LRdQuLYXMdrI9sZDFv27izhdxUep2jOO9UgzbApACocFsjp/X/CvRfFM1xoviu9i0+UpHdxJM8QHEMy8qR6ElPyYiuCupUa+luGj2287CXZFgAA5OF64wcgemKqpFJ27Ba2p2Xwm1yHR/GyPctLLb3cRtWQJvyWIxkZ9ufxroPiCrQ2ttqNr8r294UXCdFfIwPQcDj615pol+NI1aG8KOPLkyNrYcD1478j2PSvSfibcodHjljlD2896G3hgQyYZhj1z8p/yacbOm0NfFcj0q4vru3jubUSeW5GMjA64IruvD8mt2duLiSFJyGx5ULDdt459N341yfgy+iXRRHMECJIN6gZGGPPI+hxXofhY3q3F0xZTYkL5AUEOOnJPfnIryFh4+0bOuVbTQh1HQdY8R6dMBLFYzuxwzozFARjBxgD8zXBp8HdeE4Et3ZSxZ+9vfgepBFe1y3G5tn8ZHA7Nk9s/yoYqF43EkZ2k8frW8acYqy1JVeajY8mh8JXmhkfarcGM9LmLLqT3J4yOn8vetmyijR/lzn+9jORj1/8A1V6DBvUlSMANnCjgfl9ay9R0yzZXnCLBMu5mIHB65/WqUIvW4pVpS0ZmxqQq4JIGeO2ecH+dWFC+Wwzz1A7E+vNU4ZCVTIwu3JOOf/1GrcZYyrEcEEZUDNdEdkzGXmaZtYdY0a6srhf3VxE0DKBngjt6etfNssE+mytBOczo7K2BnGCQfwyK+ltPUPHOgBZSA4wAO/PHrXiPjyzjsvHOpKxKBpFnHGcq6gnH/AgadRK1zF2MK0V4pHEkuGJycnAH49utFNQRzks484Hnb788j8zRXOOLdtH/AF952+iXMg065mUshVE3K8WcHBOM59WHNbXhdfLbUbkMCLe0YqxHtgE/hmsDTZkGkXW0BGZgpVWzuX7uP0rVhZ7fwbrEylj5sscKk9xu3MP1/WlBLW5otTndVaKGzWJIVSTGDFt4PGfSvP3kAuMyNklh8vT8/f8A+tXZ67Ops0eQMXK7ty4z3Hp1riyAwIZjnP3tvIH4VFNdWVNCeeCUG5gOh9+ntVn9zOsrs+cDO3I5wB/9eo3QSIyZYgKDjjOP8/pUSoWSTywIuNwbPUfXP1rRdLme7PqXRG+0aHbtxho16jgfKD/Oppx8jI4x8wyS3Bz2+v59KyfCE3meGLDJxmGM5wcE7RzWpq0b3OnT+U+ZguU5weB711Tk4xuKKuzK1S8VWSDeWL/M23t+PY//AF6ym3GRFkkYg5zxnnt+GMVStbqe5xNK5MhXDYJzx/k1ZiYFOZFwemP5V8DmOMqV68nFtLse5RoqEDTtoQ6gqNpwNx6dD/Kql9dx220byznoMnOORzVmC3ndGZCMkbhjv/nH15rNljSWUSvECx5APXJzXNzyUEpI0pxV2XbaSGHZvCl3ODnAA/zzUN9dW67QCoXOAcex/T396oXFw8IC7ABhQTn1xg5+tc3rWolYyN2MA/KD647fh/L3q8OpS9225ThZ3OX8Za9FeIlvG0iyNKHZSNmFHGT685qppGlzWVpFq1yFjhLIiIGG8gnJYDn06EVh6jHJeag1w5JZiPkAyMCuivbmxj0O3iLSf2qjYGclQpBxgeucD8TX1tKmqdOMInLQp+1qub6FLV76a/la4efcvmeUiyH5wvXOPTGPxNUoLNpJ/JjI3EE5YY7Z5/wqqxkZ0iLhChOD79Tz9QK3dNjW1t53UmXcmC+O+Oef89K1lLkVzvcuefKdZ4KkKtYidxmOdYyeoxnH8jiue8WyS/2pNLFaSgQFbKSUjCl4wR16ZKgcY7VoeH2kVZYiQCJN27jAOOnH0P8AjR8RoZo9du5Ild7GYRXhjLHaC6hQ315Iz7/SuTD29pOPmePhn7HFySOGF7KbhGLEOWyCD05roiG2SbFQooAZt3X3JNc9JHatcRrb7XQsApbnAznP5V1OpfZjpPmR+aZwxWf5cIuCcbW9TW1aK92x9Fgq8pRmpvQyIdXcN85Y7R3btnH+FW21c4wrkDI78sOfX+tcfPO0sxVcDJyDjpn+VTI8r4G5QMjkkDOea0eEjufN1aq5n6nRtqb+dk7SrZCktgk44x7dKuWcGo3rosFs7FgWUswXp6EkD/8AVWXpUDLeRyNh4yjK/wAv3cgAceoz1q74stbu2ddRhZfs0n7shSdykDr9Pf6/WsPZw51TjucdZ3ZcuftChWuEdDjo6gAcccge45FcVq1ruvH8pXfOW7f56GtCx1ycYjdneLG0hm7c/L7f5zUOpJ5kgaPeysPkKttOMkf0Nb0YOlUMYws9DGAYOAx2sOM966vw5q724WCRg0YOBjjp/kmudW3k6SYBPPIyc4zU6280EP2grgDBBPOa7KjjJWPQp0ZWuepaddm9d45EUhhlehz7H1rstFgggRruJAFYg4z17Z/IeteSaDrkdpcQO0g8oDaRjt/IdK0r/wAc3uq7rbSkEFmmfnx8xx157en4Vwqk4NtlVKqjGyOx8TeL7Ox/0dpmklUHEaZwfqfTivL9Y1fUtUlVt22IksiccDrnkVvWOhPLELqRcyk8l+5Pf6//AF6LzR1Qj92ePlzgZwBUfWYqRxOUpaI8/aGUHDbSAwz83OPSkaTexAUbWYvgckf5710k9kofEoDP0474+n+elc9cqY791O04G3A44P16/wD167qVTnZcZSjoWVXy8hFBAAPXP16ewrMuCZJCCuQvp6/yq+8zC2RmXK4O0kA4x/Pt+VZrruZiVHrjb6811LREvQuySPeRC6a3VVUrGzouFZscA9skD9K3vAOsNo/imFRIIbe8U2srSjoh5/Ag4/z0h0HxALTQtV0WRYDBeoSGmjJG4D5cejZ6N69c1lT2N3YtBJcwHyrmDzImk6SISQHGOcZHt0pRdhxtext+MdSg1bxhe3VkqmKMqgZQQHKjqe3JyPwrmbqPyJnj80PGVU7xz1XP49anjKqGkRQQR8gJyM469vfH1q5pl5bGFraeNWCwuAu0ZIYjPJ6EdR9Pem5tu5U4rYqaXZS6pqcGnQyRpPPIIk8zjL9FGexP8zWpPrN+ulJoFxlobO4JGTkptzx9OT+FZlm8uma1C6nLRSq6kHIbBBB5/A1oa3J9r8T3NzDylw/mR/JsySPTJPXIoa0ZMX0Ox8I25njco4EICM3BPIGMf5zXt2hWf2TTYwrBt4z069OOfSvCfBiLNr0SIf3KqoIJPLDJIx+dfQdjELe3jViAFUYGfmNcsUudtGj+FFp8CM7eGPXHXPf8Kgi3xRHPOSSSBweKklZQBlU6Y6BsjP8ALpTVfzlZWy2DjGBx/kiqTSdiUna6Gs+AQxwcAk4zkc9a5rxXqhs9PUDeHmJXhsHHOfxxmty6kCD5ZCSCDjHI/vHP1xXm3iS5fUvEEduPmS2HzluRk9ev4VEp62sUlfU3NHcGJJSwAzkMew/Mmt6EfOoVgrHkgZ/l6Vm6ZEsdrGMqMcEYHXp2rTKrH8gbdkYK8k8//WreC0Jmru6NTSnwku7buIxg4J68A+3NeT/FexY+LrK6GQHs0Vycfwu2D+RH6V6xpsgHn7OvlgjHfpjpXmvxhbZeaMqpnfFNvx1ABQkjt61rJe6zK1mecBJGuSqttUcgZwMYHpmiqjS7VKgkbxkHbk4z9f8AOaK5Ek1qOO2jPRp4zbadpNoxkLNCJbgMoAY46nv1z0q7eZTwZp8QAV7i8kmbrg7VK8j8vxrL1m6ik1VjHHtEIEP3eWxjJ+nStXUwLjRNGhEgVY4XdiCTyW5+oyB+RpRajBmkU3ojivFWUTyMhTgbhjv26+1coq7jtJwMhhtP3Tnr19BXReI4184ldz+uBnH19+K5+MFWJcj6njFKnohybvZjoUEeY5JAO3zd/aoPOMDuhUqCCwB+bAOM/jirRZGi+ZtrdT8vHUdAasaNpy3+s6fZqN6zzIoKHHRgTn8M1om7pmMrI+ifClkbfwtpltIGLrAhIZc/wj07ZFbW3fg5UnjHOc8//rpkO2O3jVFLEADbzhf0/wA4/KdH8oInABOfnGCOpA/CulpWHF21PPLiIWt/d2oz8kzHGcZ7/Q1Zi3ELhiSAcDZwOam8VWptdSiuMhDOvzE8YYHv+lU4N27CrgucEE5/Adv8mvzzMaLpV5LzPeoPnppo1LRlQZjZvMUcn0z2/wA4rMumPIDZcHIyRgfl3yAfxq5nlFKEnrn730OaSRInJDAcHPynGe+c964vaPRMtJKVzmr6YOkhkfluAeeRjr7df51xuoT+cxVTypJOOv416OdDs5JsPCzo2flDnA6Yxz6/1rltW8EamXeeECfa2NqN8xXtj/P8q9bBVqKsrlSlpqeeW6+ZOSAd+/gdh+BrUdLaPS7ieYu19HhYlCkxtnPJPYqASB3OPei90jUtMvAbuymhYqc7ozg9cc/0P6dajv7mdLFLJJWe2SVZ9hwNr9M9yfTmvpKcoy95NNCo05KL5TO0yDzL0yyfNHEVY/JkZ4/Wt25uz5UUcWwkfOxXvk57dO/SsBI7iTfBExVWIPDZ6HGTVqIPbwSIchWXaCPfn/DP0p1Pe1RVKnJTuzWsb02twzFt27DYyOoGP5VueKtZtZ49Ok3LJFPpklpcKGy4OCUJHZgyxn/9dcXujWYJ83ykA7GA7+tQXkMyTKVYMJCPu9cfQfU/SopwUZ866nDiMI/bc6LvhfTYtUvne7yix4CoN2WY46D1JxitvWJbDS4r22XMRWMxujDcrN6jnqOxz1zWckSafandM29ccK5+Y45JP4/4VzWqTvcEKSxLtltuPX+fPf0FWk6lTyPQnTeGoNt7mamWkLEdT94nGMfpWhZ2jM+6VjtPQHH51RRxEeVx05PUjirSXipjyguODnoScZ7/AOf69dRNqyPmveu9DurA28FsYxsy3IyRuH0/z3qYaxFDBIsxhkiyflbncMVwTXcrnJYq2OPmye/H+fWrFlZLcR+dPOfLVwHyRuC/j1Nec8Gr80pG1PCyka7XukrcS3kGjgSFTGvlEIikjqV5B4x0xVCztVkcz3M6sQMEAcd8dun1qFsK7Qo5KAkqzjBI6fgcdq6Xw7o9td2ZmvZLWOAPlQZlWYtgAYADMVHXHFdSWlrnq0cFTi77sl07RdKYQkM0jzsse14tyoX/AIjg9B2HU59qseNobG08L2kVpPDN5crRP5anOQfzAwKp6lqaZCWDSiMII3LsSWOCCRnpkHjvXMandtMvzkggYC+mPp/Ooi3KZ6FfCqlRbm9exixyyyfuASAx4PPX6j8K7/wjoIyuYfnx9/14/wDr/wCelcXolt5t6rYyANwByea9n0C1VdNQIwQ4Py7up/D61GY1nFKEep8jOTk9S8bVYYim0Fv9gcZ5/X6A1l38I8oGUZKqcKenP/6zXQurH5imWY45PGelY+otCqsX+Vjj7wwOv/168qOrSLitDg7sAZZMHb/e+v8A+uuNvyDcSNuIIPQde/8AOu11SPIaRfuHqT6Dtn8vzrlLq2L3U299pTLbQcH9enrXs4R2LaS0KVzOzHyolbaAMrjvVUD1K5PTj+n5VKVUyZyNrYxuH+FMMe2QKSMA4yM8V6CZKWtiW1iR7mJJCVjZ1WRhzgEge3v37iuw+JN8dS8c3MMVrHbxWKpaRRhhyiDIPBxznt2x71zWl3BtdRhnWOC5ZTkpMNyHg/eBxnrnHFWHgEcz+aEYsSd2MA55/D/9VPpYtRXMijOTHEEKgA9QBUMIwxkCBSoyCM8egOKsTwMVYqj45GME4weP6VXjRkUtzuJxjHt/9apUk9iaj1NG5gW9s0v0MhliCrOjckAdGHr0qONZJbmFINwYkBApGSQOo9fxqGOZ42SVdwYDs3HPGPxNdV4d05oTHfzwuiyIDCfLIDLnBYewwfyqK9TkjzAtTa0K4t9NgiDzLBexOH3SrgON2SP6CvYPD/im11ZCV2BkyCjSZYL6nt6/55rxzUbCV7MzRqMxgnyyB8w69PX/AD7VzKapPbOznzFBIDgEjB9OD/n2rioVHL3ky27qx9USSh43OQUOAD1GKoxtsJIxtySDgYAz/n/Cvn/SvHOsaY5FtfzOc8pJ8wHTuee3r3roLf4p+IJFXzIbSQAnIKkZ46cnGK6NL3sKKaPUtXvktLaSY9Cp/iwDgdK4bRoWkuZbhxzNIWPAOAece3UflVeTxRLr0CRtAIHB5AbcpHt+I6fStrTo8OpwqsTwAOfcZpNKTsXdROgt1wFLfL6bV6f1z/gKnPH39wJBweo/zyabFKVCBW454UZJ9e/TmmlgSG6hmzycAH8P88iutXRg2aukOFkdAmdyE59fw9sVw3xggeXTtKuShKpJLCCB03KDzn/cP612OlStHeDcR3A9MH/61YnxRtjN4DuJdu4WU0U+Rn5Ru2n9HJ+lVJOzJfkeJSYRBGWKkgY2nIX26cdaKroGkRd5keMDGR3/ACHX/CiuaMXbRf194L1O2hUNON2T/o+/r3Ldf1rs9ZgiSXTI1QBV0tMAdu9FFYz/AILOpLX5M828Vqr6ywYAjy8/juxXKsoS1hdchjuyc9cDiiilR+z6kVd0WWjTED4+Ykg+/Wul8ExRnx1pJ2jOWb8djDNFFdD3XzIa95H0NbRrJFuYZIUd/anx/NcS5ydqqRzRRXRLZen+RzRd7nP+M40NgwK/6tm2+3NctZzyCFTkZPcqPVR/Kiivjc7/AI8vkfQYL+Ai25Il2joCBzz1ODWgAAVUdCmD+Roor5yp0Oi7Y9ABCrdSyZJPNWoACRHj5OeBx6f4miilD4pGf2X8/wAyO+tYbqQQzRh43yWU9/lBrwq6gii1aaCNdscTHYAcYx05oor6fLXaMrHThG27eT/UhiUG3Mh++AcH0+Zh/Kq92fkk9RHuB9Dj/wCtRRXuLb+vM0WkG1/WxaaCI+FlmMaeasnD45GOnNQxgeZK+BuVOPxDH+goorHdmC1qXH6qoSJgBxgNj3OM/wAq5KR2aVyzEny2PJ70UVvhNUwzb/IaxOyLn72Qfz7en4VKVG5xzhCu3npnrRRXVLb5fqeTR1tfzJ4kUMSB0PH61Ow2hsdg4/DrRRWE/jPSppW/ryLtvGp2nHOAf1NXMnaygkKJEXAPGD1oorke572GS5PmUJnZVGDj5QfzHNYWoSOZyCxI5oorroHk5w37Jljw9I41WLDEbmwcdxXuWixoLNeM9+TmiiuDNP4qPkov3i9I5CleNuDxiuW1P94sjOSxEmOTnvRRXAnqzt2ireX6mDfgLZzhQAAgIwO+F/xrjbtFXVJIwo2ZYY9hRRXsYIO5TnRUty6gBgMg1EQPtSrjglc0UV6UTOX+ZpWcaJZvKqgSbPvelQPNI1pBlvvPk8D0zRRTS0bNoo23giTSIdqAblyffg1g25LX8cZ5Vl5H4UUVw027yfqc1b43/XQmngjErgIMEMfxBX/GvS9DuJZtCCyPvWIQJGGAO1VyAB6cE0UVniG/ZfIIfEjSaGPbIuwYVyo+mTXn3iONIdUIjXaG2Ej3Oenp+FFFc2D3XzNYa1NSkEVXG1QOAOB9a0bFFdzuGflB/Hj/ABooroqN6GjXvr+ux0+nxI00aMuV44J9cV1mizSeY6lshegIoorqwusf67k1Pg+780dJbEyNLv8AmAZgAfTNMfhN44YBiMfVf8TRRXZH4vvORvSJNbswl4Jz5icnr1FaXiiKN/CuuxMgMZtZ/l+kZI/Wiik9i30PmqG4l8goXJUDdg9znv60UUVzW1IWyP/Z;" vertex="1" parent="1">
          <mxGeometry x="610" y="240" width="160" height="100" as="geometry" />
        </mxCell>
        <mxCell id="45X9PmNRLV-VkTAyh2oA-50" value="Siamese&lt;div&gt;Network&lt;/div&gt;" style="text;html=1;align=center;verticalAlign=middle;resizable=0;points=[];autosize=1;fontSize=14;" vertex="1" parent="1">
          <mxGeometry x="20" y="480" width="80" height="50" as="geometry" />
        </mxCell>
        <mxCell id="45X9PmNRLV-VkTAyh2oA-64" value="" style="edgeStyle=orthogonalEdgeStyle;rounded=0;orthogonalLoop=1;jettySize=auto;html=1;" edge="1" parent="1" source="45X9PmNRLV-VkTAyh2oA-51" target="45X9PmNRLV-VkTAyh2oA-62">
          <mxGeometry relative="1" as="geometry" />
        </mxCell>
        <mxCell id="45X9PmNRLV-VkTAyh2oA-51" value="Triplet loss" style="shape=trapezoid;perimeter=trapezoidPerimeter;whiteSpace=wrap;html=1;fixedSize=1;direction=west;" vertex="1" parent="1">
          <mxGeometry x="355" y="720" width="200" height="60" as="geometry" />
        </mxCell>
        <mxCell id="45X9PmNRLV-VkTAyh2oA-58" value="Anchor" style="text;html=1;align=center;verticalAlign=middle;resizable=0;points=[];autosize=1;strokeColor=none;fillColor=none;" vertex="1" parent="1">
          <mxGeometry x="190" y="210" width="60" height="30" as="geometry" />
        </mxCell>
        <mxCell id="45X9PmNRLV-VkTAyh2oA-59" value="Positive" style="text;html=1;align=center;verticalAlign=middle;resizable=0;points=[];autosize=1;strokeColor=none;fillColor=none;" vertex="1" parent="1">
          <mxGeometry x="420" y="210" width="70" height="30" as="geometry" />
        </mxCell>
        <mxCell id="45X9PmNRLV-VkTAyh2oA-60" value="Negative" style="text;html=1;align=center;verticalAlign=middle;resizable=0;points=[];autosize=1;strokeColor=none;fillColor=none;" vertex="1" parent="1">
          <mxGeometry x="655" y="210" width="70" height="30" as="geometry" />
        </mxCell>
        <mxCell id="45X9PmNRLV-VkTAyh2oA-62" value="Similarity Score" style="text;html=1;align=center;verticalAlign=middle;whiteSpace=wrap;rounded=0;fontSize=14;" vertex="1" parent="1">
          <mxGeometry x="405" y="810" width="100" height="30" as="geometry" />
        </mxCell>
      </root>
    </mxGraphModel>
  </diagram>
</mxfile>
